{"glyphs":{"0":{"ha":708,"x_min":125,"x_max":704,"o":"m 125 274 q 243 565 125 443 q 467 669 343 669 q 638 588 572 669 q 704 383 704 506 q 588 94 704 215 q 364 -11 486 -11 q 190 71 256 -11 q 125 274 125 153 m 200 335 q 258 141 200 229 q 414 53 315 53 q 575 142 511 53 q 639 338 639 231 q 581 528 639 443 q 425 614 522 614 q 263 530 325 614 q 200 335 200 446 z "},"1":{"ha":497,"x_min":111,"x_max":453,"o":"m 258 0 q 343 536 263 114 q 347 564 347 557 q 338 575 347 575 q 315 561 331 575 q 133 360 229 485 l 111 378 q 236 534 164 453 q 363 656 308 615 q 453 621 417 649 q 385 281 414 464 q 354 -1 356 99 q 278 -31 308 -31 q 258 0 258 -31 z "},"2":{"ha":640,"x_min":81,"x_max":617,"o":"m 81 35 q 126 96 81 72 q 233 125 172 119 q 450 292 369 211 q 531 464 531 372 q 487 581 531 532 q 375 629 443 629 q 272 590 315 629 q 228 493 228 551 q 289 386 228 421 l 281 369 q 204 410 236 378 q 172 490 172 443 q 241 617 172 561 q 400 672 310 672 q 553 619 489 672 q 617 481 617 565 q 590 377 617 428 q 513 281 563 326 q 414 200 464 235 q 299 128 364 165 l 299 125 q 440 95 363 118 q 568 49 517 72 q 610 10 610 29 q 560 -62 610 -17 q 194 60 322 49 q 108 -3 119 6 q 81 35 81 8 z "},"3":{"ha":672,"x_min":44,"x_max":625,"o":"m 292 -282 q 115 -224 185 -282 q 44 -76 44 -165 q 128 92 44 25 l 142 78 q 100 -40 100 24 q 161 -180 100 -122 q 315 -237 222 -237 q 478 -179 410 -237 q 546 -36 546 -121 q 286 154 546 117 q 282 190 282 171 q 289 239 282 215 q 531 467 531 321 q 488 581 531 535 q 381 626 444 626 q 282 590 324 626 q 240 497 240 553 q 281 406 240 440 l 269 390 q 210 429 235 401 q 186 496 186 457 q 256 619 186 565 q 407 672 325 672 q 554 620 492 672 q 617 485 617 568 q 601 414 617 447 q 567 358 586 381 q 512 310 547 335 q 452 274 476 286 q 388 240 428 261 q 381 232 381 236 q 390 225 381 226 q 625 4 625 176 q 524 -199 625 -117 q 292 -282 422 -282 z "},"4":{"ha":686,"x_min":65,"x_max":746,"o":"m 746 61 l 743 32 q 510 29 589 32 q 492 -257 492 -136 q 417 -289 447 -289 q 394 -251 394 -289 q 418 24 394 -181 q 110 -4 210 10 q 65 81 74 22 q 271 395 144 229 q 526 663 397 561 q 618 628 581 660 q 518 94 553 394 q 746 61 646 83 m 354 100 q 428 99 403 100 q 510 551 453 275 q 513 569 513 565 q 504 578 513 578 q 481 564 496 578 q 294 355 394 489 q 121 96 193 221 l 122 93 q 354 100 243 100 z "},"5":{"ha":669,"x_min":61,"x_max":678,"o":"m 299 -282 q 131 -229 201 -282 q 61 -90 61 -176 q 139 72 61 6 l 154 57 q 118 -50 118 11 q 176 -185 118 -133 q 322 -237 233 -237 q 488 -175 419 -237 q 556 -10 556 -112 q 472 154 556 103 q 264 206 389 206 q 176 200 221 206 l 169 208 q 253 564 253 447 q 240 647 253 607 q 254 676 242 663 q 276 689 267 689 q 299 629 294 689 q 532 669 424 669 q 678 576 678 669 q 657 483 678 518 l 643 485 q 490 569 639 569 q 289 536 403 569 q 233 283 274 410 q 326 289 282 289 q 541 227 457 289 q 625 39 625 165 q 526 -191 625 -100 q 299 -282 428 -282 z "},"6":{"ha":694,"x_min":151,"x_max":726,"o":"m 151 300 q 251 679 151 492 q 407 874 321 811 q 572 936 493 936 q 681 899 636 936 q 726 806 726 863 q 674 706 726 744 l 661 717 q 678 769 678 739 q 640 855 678 821 q 547 889 601 889 q 415 831 478 889 q 308 675 353 772 q 238 349 238 518 q 288 123 238 214 q 422 32 338 32 q 547 109 500 32 q 593 278 593 186 q 547 441 593 369 q 436 513 500 513 q 321 449 372 513 l 303 463 q 474 567 363 567 q 610 494 557 567 q 663 324 663 421 q 581 91 663 200 q 381 -18 500 -18 q 214 69 276 -18 q 151 300 151 156 z "},"7":{"ha":588,"x_min":121,"x_max":671,"o":"m 243 -293 q 197 -275 215 -293 q 325 151 222 -108 l 168 163 q 167 181 167 167 q 171 201 167 193 l 340 186 q 497 485 410 349 l 496 488 q 306 515 414 486 q 146 569 197 543 q 121 597 121 583 q 178 674 121 618 q 558 554 424 564 q 636 638 594 599 q 671 589 671 624 q 635 529 671 554 q 547 494 600 504 q 399 182 461 349 l 560 171 q 563 156 563 165 q 554 131 563 142 l 385 146 q 272 -287 292 -104 q 243 -293 261 -293 z "},"8":{"ha":658,"x_min":131,"x_max":663,"o":"m 131 196 q 192 360 131 283 q 369 483 253 438 q 275 606 303 558 q 247 707 247 654 q 316 867 247 799 q 476 936 385 936 q 609 884 556 936 q 663 756 663 832 q 616 626 663 685 q 506 547 569 567 l 493 567 q 599 729 599 626 q 557 842 599 793 q 451 890 515 890 q 352 849 393 890 q 311 750 311 808 q 341 658 311 703 q 450 525 371 613 q 543 418 515 453 q 593 338 571 383 q 615 246 615 292 q 535 60 615 140 q 347 -19 454 -19 q 193 42 256 -19 q 131 196 131 104 m 200 225 q 251 86 200 144 q 379 28 301 28 q 499 76 450 28 q 547 197 547 125 q 513 311 547 256 q 394 458 478 367 q 200 225 200 374 z "},"9":{"ha":656,"x_min":61,"x_max":638,"o":"m 61 -144 q 115 -44 61 -76 l 128 -57 q 111 -110 111 -79 q 150 -198 111 -162 q 247 -233 189 -233 q 380 -175 318 -233 q 485 -21 442 -117 q 551 297 551 126 q 502 531 551 439 q 369 624 453 624 q 251 551 294 624 q 207 394 207 479 q 251 236 207 308 q 357 164 296 164 q 467 258 429 164 l 489 249 q 420 148 467 183 q 319 113 374 113 q 189 183 242 113 q 136 349 136 253 q 213 570 136 467 q 403 674 290 674 q 574 574 511 674 q 638 335 638 475 q 543 -26 638 154 q 399 -212 482 -143 q 228 -281 315 -281 q 111 -242 161 -281 q 61 -144 61 -204 z "},"―":{"ha":876,"x_min":238,"x_max":706,"o":"m 238 281 l 374 419 l 238 560 l 374 699 l 238 839 l 417 1021 l 706 726 l 568 586 l 706 447 l 568 307 l 706 168 l 526 -15 l 238 281 z "},"‖":{"ha":876,"x_min":238,"x_max":706,"o":"m 238 281 l 374 419 l 238 560 l 374 699 l 238 839 l 417 1021 l 706 726 l 568 586 l 706 447 l 568 307 l 706 168 l 526 -15 l 238 281 z "},"‗":{"ha":876,"x_min":238,"x_max":706,"o":"m 238 281 l 374 419 l 238 560 l 374 699 l 238 839 l 417 1021 l 706 726 l 568 586 l 706 447 l 568 307 l 706 168 l 526 -15 l 238 281 z "},"‛":{"ha":876,"x_min":238,"x_max":706,"o":"m 238 281 l 374 419 l 238 560 l 374 699 l 238 839 l 417 1021 l 706 726 l 568 586 l 706 447 l 568 307 l 706 168 l 526 -15 l 238 281 z "},"‟":{"ha":876,"x_min":238,"x_max":706,"o":"m 238 281 l 374 419 l 238 560 l 374 699 l 238 839 l 417 1021 l 706 726 l 568 586 l 706 447 l 568 307 l 706 168 l 526 -15 l 238 281 z "},"‣":{"ha":876,"x_min":238,"x_max":706,"o":"m 238 281 l 374 419 l 238 560 l 374 699 l 238 839 l 417 1021 l 706 726 l 568 586 l 706 447 l 568 307 l 706 168 l 526 -15 l 238 281 z "},"․":{"ha":876,"x_min":238,"x_max":706,"o":"m 238 281 l 374 419 l 238 560 l 374 699 l 238 839 l 417 1021 l 706 726 l 568 586 l 706 447 l 568 307 l 706 168 l 526 -15 l 238 281 z "},"‥":{"ha":876,"x_min":238,"x_max":706,"o":"m 238 281 l 374 419 l 238 560 l 374 699 l 238 839 l 417 1021 l 706 726 l 568 586 l 706 447 l 568 307 l 706 168 l 526 -15 l 238 281 z "},"℣":{"ha":876,"x_min":238,"x_max":706,"o":"m 238 281 l 374 419 l 238 560 l 374 699 l 238 839 l 417 1021 l 706 726 l 568 586 l 706 447 l 568 307 l 706 168 l 526 -15 l 238 281 z "},"ℤ":{"ha":876,"x_min":238,"x_max":706,"o":"m 238 281 l 374 419 l 238 560 l 374 699 l 238 839 l 417 1021 l 706 726 l 568 586 l 706 447 l 568 307 l 706 168 l 526 -15 l 238 281 z "},"℥":{"ha":876,"x_min":238,"x_max":706,"o":"m 238 281 l 374 419 l 238 560 l 374 699 l 238 839 l 417 1021 l 706 726 l 568 586 l 706 447 l 568 307 l 706 168 l 526 -15 l 238 281 z "},"∃":{"ha":876,"x_min":238,"x_max":706,"o":"m 238 281 l 374 419 l 238 560 l 374 699 l 238 839 l 417 1021 l 706 726 l 568 586 l 706 447 l 568 307 l 706 168 l 526 -15 l 238 281 z "},"∄":{"ha":876,"x_min":238,"x_max":706,"o":"m 238 281 l 374 419 l 238 560 l 374 699 l 238 839 l 417 1021 l 706 726 l 568 586 l 706 447 l 568 307 l 706 168 l 526 -15 l 238 281 z "},"∅":{"ha":876,"x_min":238,"x_max":706,"o":"m 238 281 l 374 419 l 238 560 l 374 699 l 238 839 l 417 1021 l 706 726 l 568 586 l 706 447 l 568 307 l 706 168 l 526 -15 l 238 281 z "},"∐":{"ha":876,"x_min":238,"x_max":706,"o":"m 238 281 l 374 419 l 238 560 l 374 699 l 238 839 l 417 1021 l 706 726 l 568 586 l 706 447 l 568 307 l 706 168 l 526 -15 l 238 281 z "},"∛":{"ha":876,"x_min":238,"x_max":706,"o":"m 238 281 l 374 419 l 238 560 l 374 699 l 238 839 l 417 1021 l 706 726 l 568 586 l 706 447 l 568 307 l 706 168 l 526 -15 l 238 281 z "},"∜":{"ha":876,"x_min":238,"x_max":706,"o":"m 238 281 l 374 419 l 238 560 l 374 699 l 238 839 l 417 1021 l 706 726 l 568 586 l 706 447 l 568 307 l 706 168 l 526 -15 l 238 281 z "},"∝":{"ha":876,"x_min":238,"x_max":706,"o":"m 238 281 l 374 419 l 238 560 l 374 699 l 238 839 l 417 1021 l 706 726 l 568 586 l 706 447 l 568 307 l 706 168 l 526 -15 l 238 281 z "},"≡":{"ha":876,"x_min":238,"x_max":706,"o":"m 238 281 l 374 419 l 238 560 l 374 699 l 238 839 l 417 1021 l 706 726 l 568 586 l 706 447 l 568 307 l 706 168 l 526 -15 l 238 281 z "},"≢":{"ha":876,"x_min":238,"x_max":706,"o":"m 238 281 l 374 419 l 238 560 l 374 699 l 238 839 l 417 1021 l 706 726 l 568 586 l 706 447 l 568 307 l 706 168 l 526 -15 l 238 281 z "},"≣":{"ha":876,"x_min":238,"x_max":706,"o":"m 238 281 l 374 419 l 238 560 l 374 699 l 238 839 l 417 1021 l 706 726 l 568 586 l 706 447 l 568 307 l 706 168 l 526 -15 l 238 281 z "},"\r":{"ha":394,"x_min":0,"x_max":0,"o":""}," ":{"ha":271,"x_min":0,"x_max":0,"o":""},"!":{"ha":411,"x_min":144,"x_max":444,"o":"m 246 321 q 344 1040 307 738 q 424 1068 394 1068 q 444 1053 444 1068 q 419 911 444 1022 q 278 318 343 571 l 246 321 m 165 7 q 155 17 165 7 q 144 57 144 28 q 165 107 144 86 q 214 128 185 128 q 264 107 243 128 q 285 57 285 86 q 264 7 285 28 q 214 -14 243 -14 q 165 7 185 -14 z "},"\"":{"ha":424,"x_min":199,"x_max":536,"o":"m 199 668 q 254 1026 247 882 q 314 1049 289 1049 q 332 1026 332 1049 q 231 665 331 935 l 199 668 m 403 668 q 458 1026 451 882 q 518 1049 493 1049 q 536 1026 536 1049 q 435 665 535 935 l 403 668 z "},"#":{"ha":865,"x_min":121,"x_max":896,"o":"m 358 308 l 581 313 l 656 581 l 433 578 l 358 308 m 229 -26 q 247 36 233 -10 q 279 151 260 82 q 314 276 299 221 l 124 272 q 121 292 121 283 q 124 307 121 301 l 324 308 l 396 578 l 215 574 q 213 592 213 582 q 215 610 213 604 l 406 610 q 488 922 446 753 q 528 911 511 919 q 443 610 513 844 l 664 614 q 704 770 669 639 q 743 922 739 901 q 785 911 767 919 q 700 614 761 824 l 893 617 q 896 600 896 611 q 893 585 896 590 l 692 582 l 615 313 l 803 315 q 806 299 806 310 q 803 283 806 292 l 606 281 q 518 -36 531 8 q 485 -26 496 -33 q 503 37 490 -10 q 537 154 517 83 q 572 281 557 225 l 349 276 q 297 92 328 203 q 261 -36 267 -18 q 229 -26 238 -32 z "},"$":{"ha":649,"x_min":122,"x_max":654,"o":"m 122 228 q 203 386 122 322 l 215 374 q 182 276 182 326 q 225 156 182 210 q 335 89 268 101 l 397 443 q 310 521 333 499 q 261 584 286 543 q 236 668 236 625 q 310 817 236 757 q 471 883 385 876 l 493 1018 q 536 1013 514 1018 l 510 882 q 612 842 569 876 q 654 753 654 808 q 575 635 654 675 l 564 649 q 594 715 594 678 q 568 792 594 760 q 500 836 542 824 q 476 698 496 815 q 443 513 456 581 q 508 454 489 472 q 556 403 528 436 q 595 340 585 371 q 606 274 606 310 q 531 117 606 179 q 361 44 457 54 l 336 -104 q 301 -100 317 -104 l 328 43 q 181 98 240 46 q 122 228 122 150 m 413 538 l 465 842 q 353 805 399 842 q 307 707 307 768 q 333 622 307 660 q 413 538 360 585 m 368 86 q 485 127 435 86 q 535 236 535 168 q 425 417 535 319 q 368 86 404 303 z "},"%":{"ha":790,"x_min":172,"x_max":807,"o":"m 182 140 q 660 696 440 418 l 658 699 q 611 692 640 692 q 506 728 551 692 q 447 570 504 644 q 310 496 389 496 q 209 544 246 496 q 172 664 172 592 q 233 837 172 760 q 368 914 294 914 q 410 903 394 914 q 426 878 426 892 q 410 849 426 861 q 346 872 383 872 q 258 819 292 872 q 224 701 224 767 q 254 594 224 642 q 339 546 285 546 q 432 597 397 546 q 467 715 467 649 q 461 764 467 742 q 443 803 443 785 q 472 832 443 826 q 533 753 493 782 q 622 724 572 724 q 694 742 663 724 q 761 840 731 788 q 778 843 769 843 q 799 835 790 843 q 807 814 807 826 q 783 764 807 793 q 731 717 760 735 q 210 114 475 407 l 182 140 m 439 138 q 497 309 439 231 q 638 388 556 388 q 739 338 701 388 q 776 219 776 289 q 716 47 776 126 q 575 -32 656 -32 q 476 17 513 -32 q 439 138 439 65 m 489 176 q 520 67 489 115 q 606 18 551 18 q 697 70 661 18 q 732 188 732 122 q 699 295 732 249 q 613 342 667 342 q 523 292 557 342 q 489 176 489 242 z "},"&":{"ha":876,"x_min":107,"x_max":961,"o":"m 215 50 q 107 264 107 132 q 183 455 107 371 q 385 583 258 539 l 385 586 q 288 657 326 608 q 249 765 249 706 q 335 922 249 857 q 518 988 421 988 q 642 948 590 988 q 693 849 693 908 q 636 747 693 782 l 624 760 q 640 811 640 775 q 599 910 640 869 q 493 950 558 950 q 374 908 426 950 q 321 800 321 865 q 371 686 321 739 q 515 610 421 633 l 511 582 q 282 481 365 563 q 199 289 199 400 q 283 99 199 175 q 485 24 368 24 q 685 88 594 24 q 776 260 776 151 q 731 372 776 331 q 593 413 685 413 q 488 401 547 413 l 485 439 q 539 440 514 439 q 788 525 696 449 q 893 729 893 613 q 858 838 893 790 q 758 899 824 886 l 764 918 q 905 867 849 913 q 961 739 961 821 q 887 565 961 643 q 707 446 813 486 l 707 443 q 813 389 781 433 q 846 285 846 344 q 721 65 846 154 q 446 -21 601 -21 q 215 50 310 -21 z "},"'":{"ha":219,"x_min":199,"x_max":332,"o":"m 199 668 q 254 1026 247 882 q 314 1049 289 1049 q 332 1026 332 1049 q 231 665 331 935 l 199 668 z "},"(":{"ha":464,"x_min":176,"x_max":560,"o":"m 176 232 q 267 672 176 472 q 542 1021 363 885 l 560 997 q 311 654 396 868 q 232 231 232 460 q 385 -269 232 -82 l 361 -287 q 176 232 176 -92 z "},")":{"ha":464,"x_min":35,"x_max":418,"o":"m 282 79 q 363 504 363 272 q 210 1003 363 814 l 233 1021 q 418 504 418 825 q 328 61 418 263 q 53 -287 233 -150 l 35 -264 q 282 79 197 -135 z "},"*":{"ha":538,"x_min":171,"x_max":653,"o":"m 244 581 q 210 617 225 593 l 374 774 l 171 871 q 193 914 176 893 l 390 804 l 418 1032 q 465 1024 449 1032 l 425 799 l 646 840 q 653 790 653 819 l 431 764 q 480 669 436 754 q 536 561 524 583 q 492 539 521 546 l 397 747 l 244 581 z "},"+":{"ha":775,"x_min":168,"x_max":731,"o":"m 171 326 q 171 360 168 344 l 429 369 l 432 631 q 472 631 456 633 l 468 369 l 728 379 q 728 338 731 357 l 467 332 l 460 65 q 426 65 443 63 l 429 332 l 171 326 z "},",":{"ha":411,"x_min":94,"x_max":301,"o":"m 94 -218 q 190 -92 150 -161 q 229 38 229 -22 q 151 182 229 117 q 218 239 179 221 q 301 86 301 165 q 242 -76 301 13 q 110 -232 183 -165 l 94 -218 z "},"-":{"ha":426,"x_min":126,"x_max":419,"o":"m 128 313 q 126 350 126 324 q 414 383 269 363 q 419 351 419 369 q 417 328 419 339 q 128 313 290 315 z "},".":{"ha":411,"x_min":147,"x_max":283,"o":"m 167 6 q 157 16 167 6 q 147 56 147 26 q 167 105 147 85 q 215 125 186 125 q 263 105 243 125 q 283 56 283 85 q 263 7 283 28 q 215 -14 243 -14 q 167 6 186 -14 z "},"/":{"ha":492,"x_min":-10,"x_max":688,"o":"m -10 -142 q 642 1185 322 500 q 688 1163 671 1179 q 344 478 565 919 q 25 -158 124 36 q -10 -142 17 -157 z "},":":{"ha":411,"x_min":147,"x_max":367,"o":"m 299 460 q 250 480 269 460 q 231 529 231 500 q 250 578 231 558 q 299 599 269 599 q 347 578 326 599 q 367 529 367 557 q 347 480 367 500 q 299 460 326 460 m 167 6 q 157 16 167 6 q 147 56 147 26 q 167 105 147 85 q 215 125 186 125 q 263 105 243 125 q 283 56 283 85 q 263 7 283 28 q 215 -14 243 -14 q 167 6 186 -14 z "},";":{"ha":411,"x_min":94,"x_max":367,"o":"m 299 460 q 250 480 269 460 q 231 529 231 500 q 250 578 231 558 q 299 599 269 599 q 347 578 326 599 q 367 529 367 557 q 347 480 367 500 q 299 460 326 460 m 94 -218 q 190 -92 150 -161 q 229 38 229 -22 q 151 182 229 117 q 218 239 179 221 q 301 86 301 165 q 242 -76 301 13 q 110 -232 183 -165 l 94 -218 z "},"<":{"ha":775,"x_min":175,"x_max":738,"o":"m 176 340 q 178 374 175 354 l 722 621 q 738 581 733 599 l 238 361 l 238 358 q 690 140 442 258 q 676 110 683 121 l 176 340 z "},"=":{"ha":775,"x_min":147,"x_max":750,"o":"m 192 443 q 189 460 189 451 q 192 476 189 471 l 747 496 q 750 475 750 488 q 747 454 750 465 l 192 443 m 150 213 q 147 229 147 221 q 150 246 147 240 l 707 265 q 710 244 710 257 q 707 224 710 235 l 150 213 z "},">":{"ha":775,"x_min":163,"x_max":725,"o":"m 178 110 q 163 150 167 132 l 663 369 l 663 372 q 208 590 421 490 q 222 621 215 610 l 724 390 q 722 357 725 376 l 178 110 z "},"?":{"ha":592,"x_min":193,"x_max":671,"o":"m 261 396 q 285 463 261 431 q 333 513 308 494 q 408 561 358 531 q 545 667 503 618 q 588 781 588 715 q 540 900 588 853 q 419 947 493 947 q 308 910 354 947 q 261 813 261 872 q 350 697 261 728 l 346 678 q 235 719 278 683 q 193 807 193 754 q 274 939 193 885 q 439 988 349 988 q 603 934 536 988 q 671 796 671 881 q 640 701 671 746 q 575 630 610 656 q 468 557 540 604 q 365 479 396 511 q 335 406 335 447 q 401 314 335 344 l 394 296 q 297 324 332 299 q 261 396 261 350 m 227 7 q 217 17 227 7 q 207 57 207 28 q 227 107 207 86 q 276 128 247 128 q 326 107 306 128 q 346 57 346 86 q 326 7 346 28 q 276 -14 306 -14 q 227 7 247 -14 z "},"@":{"ha":1138,"x_min":133,"x_max":1110,"o":"m 133 169 q 183 424 133 296 q 315 654 232 551 q 718 875 497 875 q 1001 741 892 875 q 1110 428 1110 607 q 1036 153 1110 278 q 854 29 963 29 q 752 87 783 29 q 721 228 721 144 q 724 288 721 251 l 721 288 q 533 22 647 22 q 443 74 481 22 q 406 214 406 125 q 494 463 406 358 q 685 554 575 554 q 825 514 757 554 q 782 221 782 321 q 806 110 782 149 q 872 71 829 71 q 999 161 943 71 q 1054 386 1054 251 q 951 697 1054 567 q 689 826 847 826 q 497 769 585 826 q 343 619 408 713 q 203 185 203 422 q 299 -131 203 -3 q 556 -260 396 -260 q 737 -201 661 -260 q 840 -47 813 -143 l 861 -50 q 755 -235 854 -164 q 529 -306 656 -306 q 319 -237 411 -306 q 180 -62 226 -169 q 133 169 133 46 m 478 232 q 501 113 478 158 q 557 67 524 67 q 671 224 614 67 q 742 482 706 324 q 649 510 701 510 q 540 464 582 510 q 496 361 514 425 q 478 232 478 297 z "},"A":{"ha":1074,"x_min":40,"x_max":1219,"o":"m 40 132 q 96 272 40 201 q 235 385 151 342 q 503 447 344 442 q 558 599 506 456 q 689 917 644 839 q 847 1051 761 1039 q 963 997 919 1042 q 904 383 904 654 q 919 171 904 254 q 1008 25 946 25 q 1068 61 1038 25 q 1133 192 1099 97 q 1192 431 1167 288 l 1219 426 q 1113 78 1176 183 q 981 -28 1050 -28 q 835 138 878 -28 q 810 386 810 232 q 582 400 682 400 q 542 399 556 400 q 451 189 501 278 q 331 40 399 97 q 194 -18 264 -18 q 85 25 131 -18 q 40 132 40 68 m 558 449 q 810 422 664 449 q 838 776 813 588 q 858 944 858 929 q 822 988 858 988 q 763 954 792 988 q 660 758 711 896 q 558 449 640 708 m 86 144 q 115 75 86 103 q 185 47 143 47 q 397 224 289 47 q 482 396 440 293 q 257 340 350 382 q 134 252 182 306 q 86 144 86 199 z "},"B":{"ha":1068,"x_min":128,"x_max":1047,"o":"m 414 92 q 456 468 414 235 q 515 822 497 694 q 589 851 561 851 q 608 825 608 851 q 603 787 608 815 q 588 711 597 758 q 572 632 578 664 q 504 164 504 283 q 532 68 504 100 q 644 36 560 36 q 860 103 769 36 q 950 292 950 169 q 869 474 950 407 q 651 540 788 540 l 653 568 q 849 640 767 571 q 931 811 931 708 q 852 966 931 911 q 657 1021 774 1021 q 340 911 469 1021 q 207 633 207 797 q 241 485 207 550 q 347 396 275 421 l 343 375 q 188 443 249 375 q 128 615 128 511 q 178 795 128 707 q 314 947 229 883 q 679 1065 471 1065 q 835 1043 761 1065 q 965 965 910 1021 q 1021 828 1021 908 q 957 668 1021 739 q 797 567 893 597 l 797 564 q 976 485 906 551 q 1047 314 1047 418 q 1006 172 1047 236 q 899 71 964 108 q 760 13 833 33 q 619 -8 688 -8 q 499 18 543 -8 q 453 4 468 4 q 414 92 414 4 z "},"C":{"ha":761,"x_min":96,"x_max":831,"o":"m 422 -18 q 185 103 274 -18 q 96 407 96 225 q 231 833 96 635 q 393 1001 301 938 q 583 1065 485 1065 q 760 992 689 1065 q 831 810 831 919 q 767 625 831 704 q 613 546 704 546 q 503 585 549 546 q 458 682 458 624 q 510 775 458 740 l 522 768 q 511 697 511 728 q 542 613 511 643 q 617 582 572 582 q 723 644 681 582 q 765 793 765 706 q 712 956 765 889 q 565 1022 658 1022 q 399 957 474 1022 q 276 792 325 892 q 193 438 193 622 q 266 149 193 267 q 460 31 339 31 q 626 108 557 31 q 711 303 694 185 l 733 301 q 736 264 736 279 q 642 64 736 146 q 422 -18 547 -18 z "},"D":{"ha":1143,"x_min":128,"x_max":1128,"o":"m 415 99 q 463 485 415 226 q 518 829 499 676 q 592 858 564 858 q 611 839 611 858 q 569 604 611 833 q 506 153 506 269 q 531 65 506 94 q 633 36 556 36 q 935 226 826 36 q 1008 410 982 308 q 1033 604 1033 513 q 1012 760 1033 688 q 947 892 990 832 q 829 986 904 951 q 657 1021 754 1021 q 340 911 469 1021 q 207 633 207 797 q 241 485 207 550 q 347 396 275 421 l 343 375 q 188 443 249 375 q 128 615 128 511 q 178 795 128 707 q 314 947 229 883 q 679 1065 471 1065 q 1015 939 901 1065 q 1128 621 1128 813 q 1090 394 1128 508 q 986 193 1051 281 q 607 -6 836 -6 q 497 15 531 -6 q 456 3 472 3 q 415 99 415 3 z "},"E":{"ha":785,"x_min":63,"x_max":768,"o":"m 63 251 q 136 439 63 356 q 329 563 210 522 l 329 565 q 163 796 163 653 q 260 987 163 910 q 474 1064 357 1064 q 622 1019 558 1064 q 685 900 685 974 q 660 820 685 856 q 600 765 636 785 l 586 779 q 621 861 621 808 q 571 973 621 928 q 444 1018 521 1018 q 303 968 364 1018 q 243 839 243 918 q 306 697 243 761 q 476 592 368 633 q 474 565 476 582 q 245 470 328 546 q 163 285 163 394 q 240 103 163 175 q 428 31 318 31 q 643 126 554 31 q 724 322 724 211 q 715 382 724 351 l 736 389 q 768 292 768 347 q 674 94 768 185 q 392 -18 557 -18 q 163 54 264 -18 q 63 251 63 126 z "},"F":{"ha":1007,"x_min":143,"x_max":1219,"o":"m 600 -28 q 578 4 578 -28 q 606 228 578 42 q 653 508 618 310 l 519 499 q 514 524 514 508 q 517 543 514 535 l 660 549 q 728 792 683 679 q 825 961 772 904 q 518 1003 608 1003 q 294 928 383 1003 q 206 731 206 854 q 251 592 206 647 q 374 535 296 536 l 375 513 q 333 508 354 508 q 199 567 256 508 q 143 714 143 626 q 272 958 143 849 q 582 1068 400 1068 q 853 1040 667 1068 q 1097 1013 1039 1013 q 1200 1057 1168 1013 l 1219 1044 q 1165 960 1201 988 q 1064 932 1129 932 q 857 954 978 932 q 747 554 801 843 l 899 565 q 903 543 903 557 q 897 517 903 531 l 742 513 q 678 4 693 244 q 600 -28 632 -28 z "},"G":{"ha":797,"x_min":103,"x_max":796,"o":"m 211 -33 l 229 -51 q 176 -175 176 -101 q 231 -311 176 -254 q 361 -368 286 -368 q 528 -246 468 -368 q 601 85 575 -147 q 629 389 625 297 l 626 389 q 506 177 581 250 q 344 104 432 104 q 170 201 238 104 q 103 451 103 299 q 235 857 103 674 q 390 1008 301 950 q 574 1065 478 1065 q 730 1015 664 1065 q 796 882 796 965 q 711 736 796 785 l 697 750 q 725 850 725 792 q 676 969 725 922 q 550 1017 628 1017 q 407 969 475 1017 q 289 838 339 921 q 197 488 197 683 q 251 245 197 332 q 382 158 306 158 q 574 344 493 158 q 644 599 617 449 q 722 628 689 628 q 744 601 744 628 q 733 493 744 585 q 682 93 713 290 q 634 -133 660 -47 q 567 -279 608 -219 q 458 -383 522 -342 q 324 -424 394 -424 q 176 -365 236 -424 q 115 -224 115 -306 q 142 -120 115 -171 q 211 -33 168 -69 z "},"H":{"ha":1057,"x_min":46,"x_max":1203,"o":"m 46 158 q 96 308 46 235 q 228 431 146 382 q 515 504 342 500 q 556 864 556 704 q 543 1021 556 939 q 611 1053 590 1053 q 656 961 656 1053 q 583 503 656 801 q 838 469 694 499 q 929 1021 851 597 q 1010 1053 978 1053 q 1029 1035 1029 1053 q 1001 886 1029 1025 q 946 540 972 736 q 919 229 919 344 q 938 83 919 140 q 993 25 956 25 q 1052 61 1022 25 q 1116 192 1082 97 q 1175 431 1150 288 l 1203 426 q 960 -31 1124 -31 q 824 268 824 -31 q 832 429 824 344 q 568 449 688 449 q 508 275 533 329 q 215 -18 383 -18 q 96 31 146 -18 q 46 158 46 79 m 211 47 q 322 95 265 47 q 428 239 379 143 q 503 447 469 319 q 243 383 347 439 q 133 292 174 346 q 92 178 92 238 q 126 83 92 119 q 211 47 161 47 z "},"I":{"ha":725,"x_min":132,"x_max":779,"o":"m 139 118 q 240 278 139 217 l 253 258 q 194 149 194 218 q 238 47 194 89 q 346 6 281 6 q 506 104 442 6 q 544 197 529 142 q 566 293 560 251 q 585 443 572 335 q 672 1014 618 719 q 608 1019 646 1019 q 336 926 447 1019 q 242 805 276 876 q 207 658 207 733 q 249 514 207 575 q 374 451 292 453 l 374 431 q 328 426 351 426 q 186 488 240 426 q 132 642 132 549 q 181 813 132 729 q 311 958 229 897 q 638 1065 454 1065 q 779 1046 717 1065 q 711 681 751 919 q 663 403 671 442 q 539 76 619 179 q 317 -47 442 -47 q 190 0 242 -47 q 139 118 139 47 z "},"J":{"ha":846,"x_min":21,"x_max":892,"o":"m 83 -124 q 153 -296 83 -224 q 322 -368 224 -368 q 458 -325 394 -368 q 564 -206 521 -282 q 663 182 631 -86 q 683 365 664 196 q 715 633 701 535 q 778 1010 742 819 q 701 1018 744 1018 q 431 925 542 1018 q 333 798 368 872 q 297 650 297 724 q 340 501 297 565 q 465 435 383 436 l 465 414 q 419 408 438 408 q 277 474 333 408 q 221 635 221 540 q 271 810 221 722 q 404 958 321 897 q 738 1064 547 1064 q 892 1044 825 1064 q 817 635 851 868 q 751 194 764 267 q 606 -237 700 -101 q 464 -376 546 -326 q 293 -425 382 -425 q 101 -351 181 -425 q 21 -164 21 -276 q 108 53 21 -43 q 314 149 194 149 q 465 93 397 149 l 456 74 q 317 103 383 103 q 149 38 215 103 q 83 -124 83 -28 z "},"K":{"ha":713,"x_min":44,"x_max":910,"o":"m 44 3 q 97 324 44 17 q 193 1017 175 767 q 269 1046 242 1046 q 292 1014 292 1046 q 232 590 292 918 q 167 224 174 265 l 169 222 q 465 815 307 588 q 796 1075 649 1075 q 881 1040 851 1075 q 910 949 910 1006 q 908 922 910 932 l 886 918 q 789 999 871 999 q 567 864 688 999 q 378 597 482 769 q 663 53 525 339 q 760 189 715 90 q 831 431 806 288 l 858 426 q 747 97 822 210 q 585 -24 671 -15 q 326 499 447 268 q 133 8 207 274 q 64 -14 96 -14 q 44 3 44 -14 z "},"L":{"ha":822,"x_min":29,"x_max":1065,"o":"m 29 86 q 84 180 29 139 q 207 221 139 221 q 368 154 267 221 q 446 442 422 274 q 458 540 450 474 q 474 652 467 607 q 494 743 482 697 q 601 977 533 890 q 757 1064 669 1064 q 880 999 835 1064 q 925 842 925 935 q 863 619 925 732 q 697 447 800 506 l 683 467 q 806 621 761 517 q 851 822 851 725 q 822 957 851 899 q 738 1015 793 1015 q 582 742 625 1015 q 565 614 581 732 q 535 436 549 496 q 411 125 493 251 q 599 -19 413 124 q 715 -106 674 -76 q 810 -161 757 -136 q 904 -186 864 -186 q 1046 -112 986 -186 l 1065 -129 q 853 -268 967 -268 q 719 -226 790 -268 q 544 -96 649 -183 q 360 57 418 11 q 183 -28 279 -28 q 74 6 118 -28 q 29 86 29 39 m 83 106 q 118 41 83 69 q 201 13 153 13 q 326 83 272 13 q 157 171 211 171 q 103 152 124 171 q 83 106 83 133 z "},"M":{"ha":1189,"x_min":39,"x_max":1335,"o":"m 194 -18 q 88 26 128 -18 q 39 142 47 69 l 58 150 q 186 56 93 56 q 408 249 304 56 q 547 614 489 397 q 617 1018 604 831 q 704 1051 672 1051 q 721 1026 721 1051 q 710 872 721 1008 q 699 635 699 728 q 774 400 699 400 q 873 487 818 400 q 985 747 928 574 q 1061 1021 1018 853 q 1142 1051 1111 1051 q 1161 1033 1161 1051 q 1133 886 1161 1028 q 1046 233 1046 432 q 1125 25 1046 25 q 1184 61 1154 25 q 1248 192 1214 97 q 1307 431 1282 288 l 1335 426 q 1228 77 1293 185 q 1093 -31 1164 -31 q 951 267 951 -31 q 1001 690 951 413 l 999 690 q 738 338 876 338 q 617 644 617 338 q 618 724 617 696 l 615 724 q 475 244 558 431 q 194 -18 357 -18 z "},"N":{"ha":1068,"x_min":38,"x_max":1418,"o":"m 38 131 l 58 139 q 176 57 90 57 q 419 281 317 57 q 558 1014 553 576 q 636 1061 608 1061 q 658 1036 653 1061 q 768 590 738 700 q 913 151 833 353 l 915 151 q 946 480 918 282 q 1015 818 974 678 q 1293 1149 1114 1149 q 1385 1114 1353 1149 q 1418 1025 1417 1079 l 1397 1015 q 1300 1082 1374 1082 q 1058 792 1151 1082 q 984 468 1015 657 q 953 128 953 279 q 957 26 953 75 q 879 -15 910 -15 q 858 1 865 -15 q 711 456 825 72 q 594 885 650 660 l 592 885 q 476 274 575 529 q 192 -18 364 -18 q 83 26 122 -18 q 38 131 44 71 z "},"O":{"ha":875,"x_min":89,"x_max":899,"o":"m 89 382 q 135 610 89 494 q 272 806 181 726 q 382 991 297 917 q 582 1065 467 1065 q 758 1002 685 1065 q 865 844 832 939 q 899 638 899 750 q 786 236 899 431 q 421 -18 638 -18 q 180 99 271 -18 q 89 382 89 217 m 460 33 q 732 265 629 33 q 803 607 803 426 q 790 742 803 675 q 749 874 776 810 q 672 977 722 938 q 554 1017 621 1017 q 392 940 457 1017 q 328 760 328 864 q 386 579 328 658 q 536 500 444 500 q 644 545 601 500 q 694 675 686 590 l 722 674 q 656 506 717 567 q 507 444 594 444 q 333 529 401 444 q 264 732 264 614 l 261 732 q 183 442 183 625 q 258 158 183 282 q 460 33 333 33 z "},"P":{"ha":1008,"x_min":128,"x_max":1065,"o":"m 447 4 q 500 465 447 124 q 546 789 533 689 q 621 819 583 819 q 639 801 639 819 q 622 694 639 794 q 569 339 588 490 q 847 447 740 350 q 968 728 968 561 q 881 942 968 864 q 647 1019 794 1019 q 340 911 468 1019 q 207 633 207 797 q 251 473 207 542 q 385 401 296 404 l 386 379 q 343 375 364 375 q 188 443 249 375 q 128 615 128 511 q 178 795 128 707 q 314 947 229 883 q 672 1065 471 1065 q 863 1033 776 1065 q 1008 926 950 1000 q 1065 747 1065 851 q 1015 559 1065 647 q 881 407 965 471 q 564 296 746 306 q 547 1 547 167 q 468 -29 496 -29 q 447 4 447 -29 z "},"Q":{"ha":826,"x_min":69,"x_max":1207,"o":"m 69 90 q 124 174 69 142 q 238 206 178 206 q 330 183 279 206 q 467 104 381 160 q 675 358 596 188 q 751 685 751 518 q 692 918 751 822 q 518 1014 632 1014 q 290 890 385 1014 q 196 615 196 765 q 247 437 196 508 q 375 365 297 365 q 493 431 449 365 q 539 597 538 497 l 571 596 q 505 394 569 475 q 344 313 440 313 q 188 389 251 313 q 125 589 125 465 q 177 809 125 701 q 326 989 229 917 q 539 1061 424 1061 q 762 957 682 1061 q 842 694 842 853 q 739 332 842 513 q 508 76 651 178 q 819 -117 724 -68 q 1046 -182 953 -182 q 1192 -126 1132 -182 l 1207 -146 q 968 -258 1104 -258 q 765 -203 872 -258 q 683 -155 731 -185 q 607 -105 636 -125 q 510 -36 578 -85 q 422 26 442 13 q 238 -17 329 -17 q 113 14 157 -17 q 69 90 69 44 m 122 106 q 159 52 122 74 q 253 31 196 31 q 381 57 314 31 q 253 138 292 117 q 186 158 214 158 q 141 144 160 158 q 122 106 122 129 z "},"R":{"ha":1031,"x_min":126,"x_max":1176,"o":"m 378 14 q 418 338 378 101 q 494 799 489 763 q 568 822 532 822 q 585 806 585 822 q 553 611 585 793 q 511 372 511 374 q 849 488 721 372 q 967 744 967 592 q 879 946 967 872 q 650 1019 792 1019 q 346 915 475 1019 q 204 633 204 803 q 238 482 204 551 q 340 392 272 413 l 333 371 q 185 441 243 375 q 126 610 126 507 q 181 797 126 708 q 321 950 235 886 q 676 1065 478 1065 q 865 1033 779 1065 q 1007 931 950 1001 q 1064 764 1064 861 q 946 500 1064 618 q 710 363 853 407 q 976 47 856 207 q 1149 431 1100 140 l 1176 426 q 1063 93 1139 204 q 900 -29 988 -18 q 608 343 757 168 q 506 333 567 333 q 478 6 481 133 q 400 -24 433 -24 q 378 14 378 -24 z "},"S":{"ha":706,"x_min":56,"x_max":736,"o":"m 56 218 q 88 339 56 283 q 178 419 121 394 l 189 400 q 124 263 124 356 q 194 101 124 168 q 365 33 265 33 q 528 92 458 33 q 597 244 597 150 q 582 324 597 288 q 530 397 567 361 q 468 453 493 433 q 388 511 443 472 q 310 568 336 547 q 250 624 285 589 q 200 700 215 660 q 185 788 185 740 q 283 988 185 910 q 504 1065 382 1065 q 666 1019 596 1065 q 736 890 736 972 q 651 756 736 797 l 638 771 q 672 853 672 799 q 615 971 672 924 q 476 1018 558 1018 q 328 969 393 1018 q 264 836 264 919 q 313 706 264 761 q 460 583 363 651 q 539 526 514 546 q 601 467 564 506 q 655 386 639 429 q 671 292 671 343 q 568 71 671 160 q 332 -18 465 -18 q 138 47 221 -18 q 56 218 56 111 z "},"T":{"ha":996,"x_min":143,"x_max":1200,"o":"m 732 -14 q 617 47 667 -14 q 567 253 567 108 q 642 690 567 438 q 751 974 689 850 q 526 1003 606 1003 q 295 929 385 1003 q 206 733 206 856 q 250 592 206 649 q 374 535 294 536 l 375 513 q 333 508 354 508 q 199 567 256 508 q 143 714 143 626 q 272 959 143 850 q 589 1068 400 1068 q 843 1040 665 1068 q 1074 1013 1021 1013 q 1181 1057 1147 1013 l 1200 1044 q 1142 957 1179 982 q 1035 932 1104 932 q 814 961 960 932 q 724 688 754 814 q 663 254 663 440 q 690 85 663 140 q 760 31 718 31 q 842 84 800 31 q 917 257 883 138 l 946 249 q 732 -14 872 -14 z "},"U":{"ha":1207,"x_min":131,"x_max":1353,"o":"m 342 396 q 192 465 254 396 q 131 633 131 535 q 183 808 131 721 q 313 957 235 896 q 594 1064 442 1057 q 699 1000 654 1053 q 614 696 649 840 q 564 346 564 486 q 569 254 564 300 q 590 156 575 208 q 635 72 604 104 q 710 40 665 40 q 1001 515 868 40 q 1114 1013 1061 725 q 1199 1047 1169 1047 q 1217 1029 1217 1047 q 1193 914 1217 1025 q 1106 504 1124 608 q 1074 204 1074 310 q 1140 25 1074 25 q 1237 122 1188 25 q 1325 431 1286 219 l 1353 426 q 1246 76 1310 182 q 1110 -31 1182 -31 q 1013 41 1043 -31 q 982 207 982 113 q 997 375 982 275 l 994 376 q 675 -18 875 -18 q 575 15 618 -18 q 509 103 532 49 q 476 217 486 158 q 465 336 465 275 q 535 765 465 485 q 560 863 544 806 q 583 947 576 919 q 589 986 589 974 q 550 1017 589 1017 q 451 992 511 1017 q 339 922 392 967 q 240 797 275 868 q 204 647 204 725 q 247 499 204 563 q 367 419 289 436 l 365 397 q 342 396 357 396 z "},"V":{"ha":1179,"x_min":129,"x_max":1206,"o":"m 368 369 q 200 442 271 369 q 129 622 129 515 q 178 806 129 717 q 308 961 226 896 q 594 1068 439 1064 q 700 1004 658 1053 q 618 739 654 885 q 574 411 574 558 q 585 282 574 344 q 619 163 596 219 q 685 71 642 106 q 785 36 728 36 q 897 74 844 36 q 985 172 949 111 q 1046 292 1022 232 q 1083 410 1069 351 l 1082 413 q 1013 394 1053 394 q 856 501 915 394 q 796 739 796 607 q 852 965 796 864 q 1006 1065 908 1065 q 1103 1028 1061 1065 q 1165 933 1144 992 q 1196 817 1186 875 q 1206 700 1206 758 q 1099 263 1206 476 q 942 58 1033 133 q 746 -18 851 -18 q 544 101 613 -18 q 475 404 475 221 q 544 829 475 568 q 569 915 557 875 q 585 971 581 956 q 589 997 589 986 q 551 1022 586 1022 q 450 997 511 1022 q 333 926 389 972 q 204 646 204 817 q 253 479 204 553 q 390 393 303 406 l 389 371 q 368 369 381 369 m 1044 443 q 1096 456 1071 443 q 1121 668 1121 564 q 1115 772 1121 719 q 1094 882 1108 825 q 1051 975 1081 939 q 982 1011 1022 1011 q 891 942 925 1011 q 857 782 857 874 q 867 679 857 733 q 898 570 878 625 q 956 479 918 515 q 1044 443 994 443 z "},"W":{"ha":1617,"x_min":128,"x_max":1643,"o":"m 368 368 q 193 440 258 368 q 128 618 128 513 q 176 801 128 708 q 308 961 224 894 q 590 1068 436 1061 q 699 999 653 1051 q 610 729 653 894 q 564 419 564 550 q 574 297 564 358 q 604 174 583 236 q 667 74 625 113 q 765 36 708 36 q 960 182 875 36 q 889 547 889 351 q 909 750 889 651 q 969 917 929 849 q 1060 986 1010 986 q 1154 746 1154 986 q 1040 239 1154 471 q 1235 39 1113 39 q 1360 98 1300 39 q 1454 229 1419 157 q 1517 389 1489 301 q 1388 451 1440 397 q 1314 578 1336 504 q 1292 739 1292 651 q 1310 891 1292 819 q 1369 1014 1328 963 q 1471 1065 1411 1065 q 1599 972 1551 1065 q 1643 733 1643 883 q 1543 286 1643 501 q 1390 67 1481 151 q 1199 -17 1299 -17 q 981 138 1064 -17 q 726 -17 869 -17 q 603 21 656 -17 q 521 121 550 58 q 478 253 492 183 q 465 400 465 324 q 539 819 465 579 q 590 994 590 985 q 547 1021 588 1021 q 448 996 508 1021 q 335 926 388 971 q 201 639 201 811 q 251 469 201 542 q 388 392 300 396 l 386 369 q 368 368 378 368 m 1353 778 q 1397 552 1353 651 q 1531 436 1440 453 q 1561 696 1561 567 q 1526 933 1561 846 q 1447 1008 1496 1008 q 1377 941 1401 1008 q 1353 778 1353 874 m 1017 314 l 1019 314 q 1093 732 1093 521 q 1046 928 1093 928 q 997 840 1015 928 q 978 635 978 753 q 1017 314 978 475 z "},"X":{"ha":992,"x_min":97,"x_max":1200,"o":"m 97 135 l 118 139 q 228 56 140 56 q 458 213 343 56 q 635 519 535 317 q 572 836 596 753 q 447 1001 526 1001 q 371 975 413 1001 q 294 904 329 949 q 206 658 206 796 q 248 494 206 565 q 365 424 290 424 q 426 436 394 424 l 432 414 q 333 389 388 389 q 188 457 246 389 q 131 631 131 525 q 261 933 131 793 q 383 1029 317 993 q 500 1065 449 1065 q 660 897 608 1065 q 704 678 683 825 l 707 678 q 838 928 789 857 q 1049 1067 933 1067 q 1200 932 1167 1067 l 1179 921 q 1050 997 1138 997 q 838 832 936 997 q 717 603 803 776 q 788 219 757 328 q 911 39 840 39 q 1020 140 965 39 q 1110 431 1075 240 l 1136 426 q 1037 103 1101 222 q 876 -17 972 -17 q 703 175 765 -17 q 644 450 672 271 l 642 450 q 483 161 535 235 q 228 -17 357 -17 q 132 24 165 -17 q 97 135 99 65 z "},"Y":{"ha":1133,"x_min":131,"x_max":1169,"o":"m 436 -215 q 532 -26 436 -106 l 549 -46 q 499 -171 499 -90 q 555 -310 499 -254 q 690 -365 611 -365 q 872 -244 804 -365 q 947 43 922 -157 q 969 277 958 133 q 988 492 981 421 l 986 492 q 690 103 883 103 q 572 153 619 103 q 506 269 524 203 q 488 407 488 335 q 544 785 488 549 q 590 992 590 972 q 550 1019 590 1019 q 452 995 513 1019 q 338 925 392 971 q 204 657 204 814 q 249 499 204 568 q 372 415 293 431 l 369 394 q 347 393 363 393 q 194 464 257 393 q 131 635 131 535 q 181 810 131 721 q 310 960 231 899 q 600 1067 440 1060 q 694 1008 653 1056 q 629 750 635 779 q 583 424 583 550 q 594 310 583 365 q 638 206 604 254 q 722 158 671 158 q 972 568 869 158 q 1067 1026 1014 732 q 1149 1057 1121 1057 q 1169 1033 1169 1057 q 1146 917 1169 1026 q 1088 572 1117 776 q 1060 328 1074 469 q 1033 99 1047 186 q 986 -120 1013 -33 q 914 -272 960 -207 q 797 -383 865 -342 q 654 -425 728 -425 q 500 -365 564 -425 q 436 -215 436 -304 z "},"Z":{"ha":949,"x_min":119,"x_max":1200,"o":"m 119 78 q 173 165 119 131 q 289 200 226 200 q 464 136 363 200 q 622 444 522 221 l 506 438 q 500 460 500 447 q 503 478 500 469 l 639 485 q 774 733 706 632 q 931 874 842 833 l 929 876 q 717 936 865 886 q 677 949 708 939 q 637 963 646 960 q 603 974 628 967 q 567 984 579 982 q 535 990 554 986 q 499 996 515 994 q 467 997 483 997 q 281 933 356 997 q 207 764 207 868 q 249 638 207 688 q 361 588 290 588 l 363 565 q 329 563 350 563 q 202 618 254 563 q 150 754 150 674 q 269 971 150 879 q 535 1063 388 1063 q 560 1062 547 1063 q 582 1060 572 1061 q 606 1056 592 1058 q 627 1051 619 1053 q 650 1046 635 1050 q 672 1040 665 1042 q 697 1032 679 1038 q 719 1024 714 1026 q 745 1015 725 1022 q 771 1007 765 1008 q 1078 932 972 938 l 1082 910 q 1015 885 1046 900 q 955 847 983 871 q 906 805 926 824 q 861 750 885 786 q 824 693 838 714 q 788 626 810 672 q 757 560 767 581 q 725 489 747 540 l 886 500 q 890 481 890 492 q 885 456 890 467 l 706 449 q 510 107 611 232 q 811 -85 750 -51 q 1032 -154 940 -154 q 1182 -97 1124 -154 l 1200 -117 q 963 -229 1096 -229 q 756 -164 867 -229 q 447 44 714 -140 q 265 -28 361 -28 q 160 2 200 -28 q 119 78 119 32 m 171 96 q 204 38 171 63 q 282 14 238 14 q 408 71 346 14 q 240 151 289 151 q 190 136 208 151 q 171 96 171 121 z "},"[":{"ha":535,"x_min":108,"x_max":599,"o":"m 163 -231 q 376 -271 239 -247 l 372 -308 q 299 -299 363 -307 q 177 -285 235 -292 q 108 -276 119 -278 q 325 1013 181 140 q 586 1065 446 1031 q 594 1010 599 1042 q 477 992 578 1006 q 375 979 376 979 q 163 -231 307 625 z "},"\\":{"ha":481,"x_min":136,"x_max":496,"o":"m 457 -153 q 136 1174 319 440 q 186 1188 161 1188 q 496 -143 301 653 q 457 -153 479 -150 z "},"]":{"ha":535,"x_min":67,"x_max":557,"o":"m 67 -271 q 163 -251 78 -268 q 293 -225 249 -235 q 497 983 364 163 q 392 997 483 986 q 289 1010 301 1008 q 297 1065 289 1043 q 557 1015 453 1033 q 335 -274 531 867 q 69 -308 71 -308 l 67 -271 z "},"^":{"ha":822,"x_min":221,"x_max":739,"o":"m 221 390 q 532 911 407 707 q 564 910 546 913 q 739 385 653 650 q 710 375 725 376 q 539 843 621 629 l 536 843 q 250 374 365 569 q 221 390 233 381 z "},"_":{"ha":604,"x_min":-39,"x_max":565,"o":"m -39 -193 l 565 -193 l 565 -232 l -39 -232 l -39 -193 z "},"`":{"ha":578,"x_min":181,"x_max":421,"o":"m 399 706 q 181 899 289 792 q 199 922 185 907 q 219 940 213 936 q 421 726 308 836 l 399 706 z "},"a":{"ha":600,"x_min":42,"x_max":746,"o":"m 185 -12 q 83 45 124 -12 q 42 203 42 103 q 70 362 42 285 q 144 490 99 439 q 360 589 231 589 q 513 544 440 589 q 469 210 469 346 q 488 80 469 129 q 540 31 506 31 q 634 126 588 31 q 718 431 681 222 l 746 426 q 518 -14 669 -14 q 422 48 454 -14 q 389 196 389 110 q 393 260 389 225 l 390 260 q 185 -12 308 -12 m 213 36 q 340 210 279 36 q 422 511 382 325 q 321 540 378 540 q 200 492 250 540 q 150 370 169 446 q 131 219 131 294 q 153 87 131 138 q 213 36 175 36 z "},"b":{"ha":625,"x_min":90,"x_max":771,"o":"m 319 29 q 408 67 365 29 q 474 165 450 104 q 335 249 388 182 q 282 394 282 315 q 319 512 282 461 q 421 563 356 563 q 530 499 493 563 q 567 354 567 435 q 538 200 567 279 q 671 261 617 201 q 743 431 725 321 l 771 426 q 681 223 750 285 q 521 161 611 161 q 426 35 485 83 q 292 -14 368 -14 q 147 56 204 -14 q 90 267 90 126 q 115 504 90 360 q 172 771 139 649 q 260 1025 214 918 q 344 1069 313 1069 q 357 1065 350 1069 q 428 989 401 1043 q 456 868 456 935 q 381 649 456 753 q 199 521 307 546 q 175 281 175 371 q 216 98 175 167 q 319 29 257 29 m 206 556 q 344 658 289 575 q 399 835 399 740 q 324 1010 399 956 q 254 781 293 926 q 206 556 224 664 m 317 410 q 365 285 317 347 q 486 206 413 222 q 499 300 499 249 q 473 442 499 375 q 393 508 447 508 q 336 478 356 508 q 317 410 317 449 z "},"c":{"ha":451,"x_min":46,"x_max":597,"o":"m 46 239 q 157 510 46 399 q 329 594 242 594 q 415 563 383 594 q 447 490 447 531 q 427 440 447 458 q 375 421 407 421 q 376 442 376 429 q 356 519 376 492 q 301 547 336 547 q 190 468 239 547 q 136 258 136 383 q 181 97 136 160 q 293 33 225 33 q 456 132 376 33 q 569 431 535 231 l 597 426 q 465 95 558 203 q 264 -12 372 -12 q 110 57 174 -12 q 46 239 46 126 z "},"d":{"ha":611,"x_min":42,"x_max":757,"o":"m 186 -12 q 83 47 125 -12 q 42 207 42 106 q 140 483 42 374 q 361 589 235 589 q 429 575 399 589 q 494 1036 483 899 q 572 1067 543 1067 q 592 1042 592 1067 q 538 713 592 1007 q 478 218 478 381 q 551 32 478 32 q 644 126 597 32 q 729 431 692 221 l 757 426 q 528 -11 679 -11 q 433 50 468 -11 q 397 211 397 111 q 400 274 397 256 l 397 275 q 186 -12 314 -12 m 215 36 q 343 211 281 36 q 419 511 392 344 q 324 540 381 540 q 204 490 253 540 q 131 225 131 388 q 154 88 131 140 q 215 36 178 36 z "},"e":{"ha":454,"x_min":44,"x_max":600,"o":"m 44 240 q 75 388 44 315 q 163 514 106 461 q 326 590 242 590 q 398 563 371 590 q 425 490 425 536 q 338 339 425 407 q 135 249 251 272 q 184 94 136 154 q 301 33 232 33 q 463 135 386 33 q 572 431 539 236 l 600 426 q 470 99 563 210 q 272 -12 378 -12 q 112 58 179 -12 q 44 240 44 128 m 135 283 q 203 302 168 289 q 274 338 239 315 q 333 395 310 360 q 356 471 356 431 q 296 543 356 543 q 186 460 233 543 q 135 283 139 381 z "},"f":{"ha":381,"x_min":28,"x_max":413,"o":"m 43 -242 q 103 343 43 -96 q 32 363 68 357 q 28 392 28 375 q 113 410 81 401 q 207 1036 169 760 q 282 1067 247 1067 q 300 1043 300 1067 q 250 749 300 1017 q 222 578 240 693 q 197 433 203 463 q 399 508 283 458 q 413 472 413 489 q 192 393 336 436 l 188 361 q 365 26 365 274 q 294 -299 365 -157 q 144 -429 232 -429 q 43 -242 43 -429 m 131 -254 q 178 -381 131 -381 q 257 -299 219 -381 q 314 -18 314 -172 q 179 301 314 200 q 131 -254 131 -60 z "},"g":{"ha":533,"x_min":-24,"x_max":515,"o":"m 43 -129 l 57 -142 q 33 -219 33 -174 q 74 -332 33 -283 q 172 -381 115 -381 q 256 -347 221 -381 q 310 -261 292 -312 q 378 213 354 -136 l 375 213 q 182 -8 303 -8 q 83 50 124 -8 q 43 207 43 108 q 140 485 43 374 q 361 589 229 589 q 515 542 446 589 q 450 107 481 378 q 410 -132 432 -42 q 350 -289 389 -222 q 263 -388 315 -347 q 147 -429 210 -429 q 26 -378 76 -429 q -24 -260 -24 -326 q 43 -129 -24 -179 m 214 39 q 344 218 279 39 q 421 511 390 339 q 324 542 381 542 q 204 493 253 542 q 151 374 171 449 q 132 226 132 300 q 156 92 132 144 q 214 39 179 39 z "},"h":{"ha":651,"x_min":89,"x_max":797,"o":"m 147 -10 q 89 181 89 -10 q 176 769 89 454 q 264 1025 219 921 q 308 1056 282 1042 q 349 1069 335 1069 q 361 1065 353 1069 q 433 989 406 1043 q 460 868 460 935 q 386 650 460 754 q 206 521 313 546 q 171 174 171 307 q 176 89 171 122 l 179 89 q 229 328 193 218 q 320 494 264 429 q 444 567 376 560 q 561 490 519 558 q 543 405 557 469 q 523 295 529 340 q 517 206 517 250 q 538 80 517 128 q 592 32 558 32 q 685 126 638 32 q 769 431 732 221 l 797 426 q 568 -11 721 -11 q 472 44 511 -11 q 432 207 432 100 q 447 351 432 264 q 463 456 463 438 q 422 508 463 508 q 354 478 389 508 q 260 314 299 426 q 206 11 215 192 q 147 -10 169 -10 m 213 556 q 349 659 296 576 q 403 835 403 742 q 328 1010 403 956 q 213 556 242 763 z "},"i":{"ha":304,"x_min":83,"x_max":450,"o":"m 214 -11 q 120 38 157 -11 q 83 179 83 86 q 108 382 83 246 q 138 561 132 518 q 206 588 181 588 q 225 563 225 588 q 206 453 225 543 q 168 178 168 268 q 187 72 168 111 q 240 32 206 32 q 422 431 350 32 l 450 426 q 349 85 407 182 q 214 -11 292 -11 m 284 753 q 275 744 284 753 q 239 735 265 735 q 194 753 213 735 q 176 799 176 772 q 194 844 176 825 q 239 863 213 863 q 284 844 265 863 q 303 799 303 825 q 284 753 303 772 z "},"j":{"ha":240,"x_min":-276,"x_max":300,"o":"m 281 753 q 272 744 281 753 q 236 735 263 735 q 192 753 210 735 q 174 799 174 772 q 192 844 174 825 q 236 863 210 863 q 281 844 263 863 q 300 799 300 825 q 281 753 300 772 m 81 140 q 112 403 92 261 q 133 561 132 544 q 203 588 183 588 q 221 567 221 588 q 192 372 221 528 q 154 115 169 246 q 128 -85 138 -25 q 99 -215 119 -144 q 50 -328 79 -286 q -117 -429 -21 -429 q -230 -383 -183 -429 q -276 -275 -276 -336 q -192 -149 -276 -192 l -182 -162 q -218 -243 -218 -189 q -183 -339 -218 -297 q -94 -381 -147 -381 q 17 -300 -19 -381 q 36 -244 28 -275 q 51 -165 44 -214 q 60 -84 57 -115 q 71 26 64 -53 q 81 140 78 104 z "},"k":{"ha":624,"x_min":86,"x_max":769,"o":"m 143 -10 q 86 154 86 -10 q 90 238 86 193 q 101 340 93 283 q 115 431 110 396 q 133 535 121 467 q 147 622 144 603 q 207 1036 181 815 q 283 1067 250 1067 q 300 1047 300 1067 q 244 713 300 1008 q 228 629 242 700 q 212 540 215 558 q 199 463 208 521 q 185 378 189 404 q 176 308 182 351 q 169 232 171 264 q 167 169 167 200 q 174 88 167 119 l 176 88 q 278 440 199 299 q 468 590 364 590 q 542 562 514 590 q 571 485 571 533 q 499 344 571 404 q 385 283 453 304 q 576 57 501 164 q 742 431 688 129 l 769 426 q 666 110 733 208 q 507 -12 599 11 q 299 257 413 122 l 301 279 q 435 340 381 289 q 492 457 492 393 q 475 513 492 493 q 431 533 458 533 q 341 476 383 533 q 268 342 299 418 q 199 10 219 222 q 143 -10 163 -10 z "},"l":{"ha":356,"x_min":90,"x_max":500,"o":"m 254 -12 q 140 51 189 -12 q 90 256 90 115 q 174 764 90 446 q 260 1025 217 924 q 305 1056 279 1042 q 342 1069 331 1069 q 358 1063 349 1069 q 420 974 397 1039 q 443 836 443 910 q 372 575 443 701 q 186 419 300 449 q 175 258 175 326 q 205 88 175 144 q 281 31 235 31 q 384 126 332 31 q 472 431 436 221 l 500 426 q 254 -12 425 -12 m 190 451 q 334 582 282 481 q 386 801 386 683 q 319 1001 386 936 q 251 771 283 896 q 190 451 213 615 z "},"m":{"ha":982,"x_min":79,"x_max":1128,"o":"m 79 132 q 106 370 79 210 q 136 561 132 531 q 207 588 182 588 q 225 564 225 588 q 192 390 225 553 q 158 135 158 228 q 161 86 158 100 l 165 86 q 231 340 186 225 q 450 590 321 569 q 564 518 518 578 q 543 423 557 486 q 522 326 529 360 q 509 242 515 292 q 503 149 503 192 q 506 92 503 111 l 510 92 q 565 338 521 208 q 658 513 601 442 q 782 592 715 585 q 901 517 858 579 q 881 426 896 488 q 856 310 865 364 q 847 208 847 257 q 868 80 847 128 q 924 32 889 32 q 981 67 953 32 q 1042 194 1010 101 q 1100 431 1075 288 l 1128 426 q 899 -11 1051 -11 q 801 44 840 -11 q 763 210 763 100 q 783 369 763 275 q 803 481 803 464 q 760 532 803 532 q 669 467 714 532 q 596 322 624 403 q 533 11 544 179 q 481 -10 503 -10 q 440 37 456 -10 q 424 140 424 83 q 445 347 424 226 q 467 481 467 467 q 428 531 467 531 q 338 470 383 531 q 258 322 293 410 q 185 8 207 193 q 129 -10 150 -10 q 79 132 79 -10 z "},"n":{"ha":651,"x_min":79,"x_max":797,"o":"m 129 -10 q 79 132 79 -10 q 106 370 79 210 q 136 561 132 531 q 207 588 182 588 q 225 564 225 588 q 192 390 225 553 q 158 133 158 226 q 161 85 158 99 l 165 85 q 231 340 182 218 q 454 592 322 575 q 571 517 529 579 q 549 423 565 492 q 523 300 532 354 q 514 196 514 246 q 534 76 514 121 q 589 32 554 32 q 685 126 638 32 q 769 431 733 219 l 797 426 q 696 85 756 182 q 564 -11 636 -11 q 467 41 506 -11 q 429 197 429 93 q 450 365 429 265 q 471 483 471 465 q 428 532 471 532 q 339 471 385 532 q 258 322 293 410 q 185 8 207 193 q 129 -10 150 -10 z "},"o":{"ha":583,"x_min":47,"x_max":729,"o":"m 47 233 q 89 406 47 326 q 201 524 131 485 l 214 506 q 156 408 178 476 q 133 269 133 340 q 176 101 133 169 q 288 33 219 33 q 378 74 340 33 q 436 175 417 115 q 290 263 349 193 q 232 425 232 333 q 271 547 232 500 q 367 594 310 594 q 478 533 432 594 q 525 360 525 472 q 501 213 525 286 q 701 431 668 218 l 729 426 q 642 229 711 289 q 485 169 572 169 q 392 40 454 93 q 251 -14 329 -14 q 106 53 165 -14 q 47 233 47 119 m 447 218 q 457 306 457 258 q 419 470 457 400 q 335 540 382 540 q 285 508 303 540 q 268 433 268 476 q 319 297 268 358 q 447 218 369 235 z "},"p":{"ha":582,"x_min":-1,"x_max":558,"o":"m 51 -146 q 113 463 113 232 q 107 561 113 521 q 175 588 144 588 q 193 578 188 588 q 200 555 199 568 q 201 514 201 542 q 186 267 201 410 l 189 267 q 205 322 200 307 q 224 378 210 336 q 250 442 239 421 q 281 496 261 463 q 319 546 300 529 q 364 576 338 563 q 419 589 390 589 q 522 530 486 589 q 558 389 558 471 q 533 244 558 321 q 460 106 507 167 q 240 -14 367 -14 q 154 3 199 -14 q 86 -418 126 -189 q 14 -451 49 -451 q -1 -433 -1 -451 q 6 -389 -1 -426 q 26 -280 13 -351 q 51 -146 40 -208 m 165 69 q 283 29 217 29 q 411 121 360 29 q 469 364 469 229 q 452 481 469 425 q 393 536 435 536 q 254 367 324 536 q 165 69 208 253 z "},"q":{"ha":565,"x_min":44,"x_max":599,"o":"m 192 -12 q 87 49 129 -12 q 44 215 44 111 q 142 490 44 381 q 356 589 229 589 q 510 542 432 589 q 451 190 486 426 q 411 -236 411 -89 q 460 -372 411 -372 q 513 -312 486 -372 q 553 -85 553 -218 q 506 125 553 38 l 522 138 q 577 53 556 110 q 599 -74 599 -4 q 546 -318 599 -199 q 429 -429 494 -429 q 326 -232 326 -429 q 390 260 326 -44 l 388 261 q 297 50 343 113 q 192 -12 250 -12 m 219 36 q 338 201 276 36 q 421 510 365 281 q 318 542 372 542 q 197 490 246 542 q 133 236 133 396 q 157 92 133 149 q 219 36 181 36 z "},"r":{"ha":421,"x_min":79,"x_max":479,"o":"m 117 -10 q 88 13 97 -10 q 79 104 79 36 q 103 345 79 172 q 131 563 128 518 q 200 588 175 588 q 218 561 218 588 q 190 401 218 539 q 158 157 163 264 l 163 157 q 211 353 181 260 q 400 590 286 590 q 457 568 435 590 q 479 513 479 546 q 418 449 479 460 q 364 503 410 503 q 239 336 294 503 q 168 7 188 188 q 117 -10 138 -10 z "},"s":{"ha":465,"x_min":94,"x_max":471,"o":"m 94 69 q 110 113 94 94 q 160 131 126 131 q 157 104 157 117 q 178 48 157 69 q 239 26 200 26 q 317 52 283 26 q 350 118 350 78 q 326 180 350 151 q 242 256 301 208 q 215 277 233 263 q 189 297 196 292 q 168 315 182 303 q 149 333 154 326 q 134 352 143 340 q 122 374 125 364 q 115 395 118 383 q 113 421 113 407 q 184 544 113 497 q 335 590 256 590 q 433 560 394 590 q 471 482 471 531 q 404 415 471 419 q 299 550 404 550 q 216 524 251 550 q 181 460 181 499 q 207 400 181 431 q 301 315 233 369 q 328 293 307 310 q 356 272 350 276 q 376 253 361 267 q 397 233 392 240 q 409 213 401 225 q 419 188 417 200 q 421 161 421 175 q 354 38 421 88 q 214 -12 288 -12 q 131 8 167 -12 q 94 69 94 29 z "},"t":{"ha":376,"x_min":63,"x_max":522,"o":"m 185 247 q 213 85 185 140 q 285 31 242 31 q 400 126 342 31 q 494 431 458 221 l 522 426 q 477 233 504 315 q 424 105 450 150 q 366 32 397 60 q 311 -4 335 4 q 263 -12 288 -12 q 147 47 197 -12 q 97 233 97 106 q 138 547 97 325 l 67 543 q 63 567 63 549 q 65 586 63 578 l 146 589 q 166 710 151 626 q 186 825 181 793 q 260 850 228 850 q 278 832 278 850 q 231 594 278 828 l 410 607 q 414 585 414 599 q 407 560 414 571 l 222 551 q 185 247 185 346 z "},"u":{"ha":628,"x_min":76,"x_max":774,"o":"m 76 164 q 98 317 76 207 q 119 490 119 428 q 110 557 119 535 q 174 588 150 588 q 208 510 208 588 q 185 347 208 468 q 161 169 161 226 q 181 72 161 108 q 235 36 200 36 q 389 260 317 36 q 458 563 435 399 q 525 588 499 588 q 544 561 544 588 q 524 428 544 540 q 493 188 493 275 q 512 75 493 118 q 565 32 531 32 q 746 431 672 32 l 774 426 q 724 212 751 300 q 667 76 697 124 q 606 9 636 29 q 540 -11 576 -11 q 451 37 486 -11 q 417 181 417 85 q 421 254 417 222 l 418 256 q 208 -12 338 -12 q 111 38 146 -12 q 76 164 76 89 z "},"v":{"ha":611,"x_min":85,"x_max":757,"o":"m 308 421 q 344 552 308 500 q 435 604 379 604 q 523 546 490 604 q 556 396 556 488 q 522 222 556 311 q 542 221 529 221 q 663 271 610 221 q 729 431 715 321 l 757 426 q 675 237 739 293 q 529 181 611 181 q 506 182 513 181 q 405 40 465 94 q 268 -14 344 -14 q 130 63 175 -14 q 85 246 85 140 q 90 335 85 286 q 110 465 96 383 q 126 560 125 546 q 194 588 168 588 q 214 569 214 588 q 200 482 214 556 q 171 253 171 321 q 180 158 171 204 q 219 72 189 113 q 297 32 249 32 q 393 77 353 32 q 458 192 433 122 q 348 279 388 215 q 308 421 308 343 m 349 444 q 381 319 349 378 q 471 236 414 260 q 488 357 488 301 q 465 492 488 435 q 406 549 442 549 q 363 519 378 549 q 349 444 349 489 z "},"w":{"ha":918,"x_min":85,"x_max":1064,"o":"m 581 -14 q 422 81 485 -14 q 258 -12 349 -12 q 128 63 171 -12 q 85 249 85 139 q 124 560 85 324 q 192 588 165 588 q 210 567 210 588 q 197 482 210 550 q 171 253 171 329 q 199 97 171 161 q 286 32 228 32 q 406 108 349 32 q 350 343 350 208 q 379 499 350 435 q 457 564 408 564 q 516 525 493 564 q 539 418 539 486 q 467 150 539 283 q 611 32 524 32 q 765 192 714 32 q 656 278 696 214 q 615 422 615 343 q 651 552 615 500 q 740 604 688 604 q 829 546 796 604 q 863 403 863 488 q 829 222 863 319 q 851 221 836 221 q 969 271 915 221 q 1036 431 1022 321 l 1064 426 q 983 238 1047 296 q 838 181 919 181 q 814 182 822 181 q 716 40 775 94 q 581 -14 657 -14 m 656 444 q 688 319 656 378 q 778 236 721 260 q 794 364 794 303 q 772 492 794 436 q 711 549 749 549 q 670 518 685 549 q 656 444 656 488 m 411 390 q 449 189 411 283 l 451 189 q 493 381 493 275 q 446 522 493 500 q 411 390 411 508 z "},"x":{"ha":631,"x_min":88,"x_max":776,"o":"m 88 58 q 124 115 88 99 q 189 63 149 63 q 259 111 228 63 q 338 279 290 160 q 307 379 324 324 q 283 454 290 435 q 215 524 258 524 q 146 426 163 524 l 118 431 q 158 554 135 521 q 250 588 199 588 q 357 504 321 588 q 394 388 372 469 l 397 388 q 431 460 417 432 q 467 522 444 489 q 518 572 490 556 q 579 588 546 588 q 646 563 621 588 q 671 501 671 538 q 610 429 671 443 q 550 528 610 528 q 479 479 510 528 q 411 328 449 431 q 481 121 447 190 q 569 31 521 31 q 750 431 676 31 l 776 426 q 672 76 732 171 q 542 -18 613 -18 q 477 1 506 -18 q 426 60 449 21 q 388 135 403 100 q 354 229 374 171 l 351 229 q 264 49 293 89 q 165 -14 219 -14 q 109 7 131 -14 q 88 58 88 28 z "},"y":{"ha":563,"x_min":4,"x_max":539,"o":"m 76 164 q 98 317 76 207 q 119 490 119 428 q 110 557 119 535 q 174 588 150 588 q 208 510 208 588 q 185 347 208 468 q 161 169 161 226 q 181 72 161 108 q 233 36 200 36 q 383 260 311 36 q 453 563 431 413 q 519 588 493 588 q 539 561 539 588 q 519 428 539 551 q 472 74 496 274 q 367 -315 440 -207 q 176 -429 289 -429 q 53 -377 103 -429 q 4 -257 4 -325 q 72 -121 4 -172 l 85 -135 q 60 -217 60 -171 q 99 -333 60 -286 q 199 -381 139 -381 q 329 -286 285 -381 q 386 -22 361 -218 q 413 242 400 82 l 408 242 q 206 -12 331 -12 q 110 38 144 -12 q 76 164 76 89 z "},"z":{"ha":522,"x_min":-8,"x_max":504,"o":"m 44 -85 l 64 -97 q 44 -178 44 -132 q 100 -317 44 -260 q 238 -375 156 -375 q 380 -312 322 -375 q 438 -160 438 -249 q 394 -30 438 -86 q 288 55 350 26 q 147 97 225 83 q 144 124 144 111 q 156 182 144 160 q 366 270 283 210 q 449 403 449 331 q 306 496 449 496 q 151 460 217 496 q 133 365 143 403 l 107 371 q 128 543 125 456 q 318 583 211 583 q 457 564 394 583 q 490 497 475 539 q 504 421 504 454 q 437 288 504 351 q 258 185 369 225 q 235 171 235 176 q 254 160 235 165 q 435 56 367 125 q 503 -117 503 -14 q 413 -330 503 -240 q 204 -419 324 -419 q 52 -363 113 -419 q -8 -225 -8 -307 q 44 -85 -8 -149 z "},"{":{"ha":583,"x_min":163,"x_max":713,"o":"m 254 -151 q 293 32 254 -99 q 332 222 332 163 q 290 327 332 300 q 163 356 247 354 l 164 386 q 317 428 276 386 q 372 550 357 469 q 391 709 381 596 q 410 860 401 822 q 477 987 426 940 q 606 1033 528 1033 q 713 1017 656 1033 l 706 986 q 626 999 664 999 q 490 849 521 999 q 471 699 482 807 q 449 542 460 590 q 394 428 432 469 q 286 374 357 386 l 286 371 q 408 214 408 350 q 372 22 408 151 q 336 -154 336 -107 q 361 -233 336 -204 q 433 -261 386 -261 q 515 -247 472 -261 l 524 -274 q 407 -296 465 -296 q 298 -259 342 -296 q 254 -151 254 -222 z "},"|":{"ha":400,"x_min":103,"x_max":422,"o":"m 422 1082 q 149 -447 288 375 q 103 -439 115 -447 q 367 1089 218 193 q 422 1082 404 1093 z "},"}":{"ha":583,"x_min":6,"x_max":557,"o":"m 228 -111 q 247 37 235 -72 q 269 197 258 146 q 323 310 285 268 q 432 365 361 353 l 432 368 q 308 525 308 389 q 344 716 308 586 q 381 893 381 846 q 356 972 381 943 q 285 1000 332 1000 q 203 985 244 1000 l 193 1013 q 310 1033 250 1033 q 419 997 376 1033 q 463 890 463 961 q 424 707 463 838 q 385 517 385 576 q 427 410 385 438 q 557 383 469 383 l 554 353 q 454 340 494 353 q 393 302 414 328 q 363 252 372 276 q 346 188 353 228 q 326 27 336 140 q 308 -122 315 -86 q 240 -249 292 -201 q 113 -296 189 -296 q 6 -278 57 -296 l 13 -249 q 90 -261 58 -261 q 228 -111 200 -261 z "},"~":{"ha":822,"x_min":208,"x_max":757,"o":"m 208 346 q 364 493 260 493 q 499 435 413 493 q 628 375 588 375 q 693 405 667 375 q 731 481 719 435 l 757 474 q 708 363 746 410 q 610 315 671 315 q 471 376 560 315 q 344 436 385 436 q 229 335 274 436 l 208 346 z "},"¡":{"ha":411,"x_min":68,"x_max":368,"o":"m 235 267 l 267 264 q 168 -456 206 -153 q 89 -483 118 -483 q 68 -468 68 -483 q 93 -326 68 -436 q 235 267 169 14 m 348 578 q 358 567 348 578 q 368 528 368 557 q 348 478 368 499 q 299 457 328 457 q 249 478 269 457 q 228 528 228 499 q 249 578 228 557 q 299 599 269 599 q 348 578 328 599 z "},"¢":{"ha":640,"x_min":165,"x_max":608,"o":"m 292 -11 l 326 172 q 210 263 254 197 q 165 419 165 328 q 240 647 165 540 q 431 781 315 754 l 457 940 q 494 935 475 940 l 468 785 l 476 785 q 574 754 539 785 q 608 676 608 724 q 588 621 608 642 q 532 597 567 600 q 536 635 536 617 q 460 738 536 726 l 369 215 q 425 206 399 206 q 585 290 511 206 l 604 272 q 399 161 524 161 q 360 164 385 161 l 331 -17 q 292 -11 314 -17 m 336 233 q 424 738 407 632 q 344 699 379 731 q 288 623 308 667 q 258 532 268 579 q 247 442 247 485 q 336 233 247 297 z "},"£":{"ha":790,"x_min":39,"x_max":824,"o":"m 39 72 q 85 153 39 117 q 197 190 131 190 q 332 171 242 190 q 378 424 360 250 l 224 414 q 219 433 219 419 q 222 450 219 444 l 382 460 q 410 654 400 610 q 503 856 438 774 q 658 939 569 939 q 776 886 729 939 q 824 764 824 833 q 790 653 824 706 q 708 575 757 601 l 696 590 q 761 733 761 649 q 727 847 761 797 q 635 896 693 896 q 541 836 575 896 q 488 651 507 776 q 468 465 475 571 l 639 478 q 643 457 643 471 q 639 438 643 444 l 464 429 q 388 156 442 260 q 689 33 508 119 q 772 154 736 89 l 797 139 q 654 -51 738 32 q 344 89 474 39 q 163 -18 265 -18 q 74 8 110 -18 q 39 72 39 33 m 79 88 q 108 37 79 60 q 175 14 136 14 q 301 106 246 14 q 150 144 190 144 q 99 128 118 144 q 79 88 79 111 z "},"¤":{"ha":728,"x_min":165,"x_max":719,"o":"m 165 118 l 271 249 q 215 410 215 313 q 240 533 215 469 q 310 644 265 597 l 218 775 q 257 804 232 793 l 339 671 q 481 725 404 725 q 589 689 539 725 l 681 821 q 719 792 699 813 l 615 664 q 674 500 674 599 q 649 377 674 440 q 579 267 624 314 l 683 119 q 644 89 669 101 l 551 240 q 408 188 488 188 q 299 224 346 188 l 203 89 q 165 118 182 100 m 444 243 q 569 314 524 243 q 615 468 615 385 q 572 612 615 549 q 453 675 528 675 q 326 606 374 675 q 279 453 279 536 q 324 308 279 372 q 444 243 368 243 z "},"¥":{"ha":676,"x_min":138,"x_max":993,"o":"m 304 14 q 356 324 307 65 l 142 310 q 138 329 138 317 q 140 344 138 336 l 353 358 q 339 494 340 482 l 168 485 q 163 504 163 496 q 165 519 163 514 l 336 528 q 279 901 313 732 q 353 942 319 942 q 375 913 369 942 q 433 406 397 797 l 436 406 q 606 788 521 651 q 869 985 731 985 q 960 951 928 985 q 993 869 993 917 q 990 843 993 851 l 969 840 q 938 897 965 875 q 867 918 911 918 q 604 699 728 918 q 529 543 569 639 l 694 554 q 699 535 699 546 q 693 515 699 526 l 514 507 q 460 365 485 435 l 671 379 q 674 361 674 374 q 669 340 674 349 l 446 329 q 401 13 404 103 q 325 -17 356 -17 q 304 14 304 -17 z "},"¦":{"ha":446,"x_min":103,"x_max":422,"o":"m 268 518 q 319 813 286 615 q 367 1089 353 1010 q 422 1082 393 1092 q 315 510 379 869 l 268 518 m 200 135 q 249 126 232 132 q 149 -447 165 -347 q 103 -439 115 -447 q 200 135 175 -21 z "},"§":{"ha":696,"x_min":82,"x_max":714,"o":"m 169 -40 l 178 -53 q 140 -140 140 -83 q 185 -247 140 -201 q 301 -293 231 -293 q 426 -247 372 -293 q 479 -133 479 -201 q 467 -74 479 -101 q 427 -18 454 -46 q 378 28 400 10 q 317 75 357 46 q 231 138 257 117 q 176 203 204 160 q 149 294 149 246 q 228 454 149 390 q 406 518 308 518 l 407 521 q 297 622 333 576 q 261 731 261 668 q 346 897 261 829 q 533 964 431 964 q 662 922 610 964 q 714 815 714 879 q 693 747 714 778 q 640 703 672 717 l 631 714 q 651 778 651 739 q 610 878 651 836 q 501 921 568 921 q 383 878 433 921 q 332 771 332 835 q 372 672 332 717 q 492 569 411 628 q 555 522 536 538 q 603 478 574 507 q 646 418 633 449 q 658 351 658 388 q 575 192 658 256 q 396 129 492 129 l 394 126 q 472 65 446 88 q 525 -1 499 42 q 551 -90 551 -44 q 465 -265 551 -192 q 272 -337 378 -337 q 138 -292 193 -337 q 82 -176 82 -246 q 106 -92 82 -131 q 169 -40 129 -54 m 221 338 q 281 216 221 269 q 414 163 342 163 q 534 204 482 163 q 586 307 586 246 q 524 430 586 375 q 392 485 461 485 q 273 442 325 485 q 221 338 221 400 z "},"¨":{"ha":578,"x_min":188,"x_max":521,"o":"m 503 759 q 495 750 503 759 q 463 742 486 742 q 423 759 439 742 q 407 800 407 776 q 423 841 407 824 q 463 858 439 858 q 503 841 486 858 q 521 800 521 824 q 503 759 521 776 m 244 742 q 203 758 219 742 q 188 800 188 775 q 203 842 188 825 q 244 858 219 858 q 285 841 268 858 q 301 800 301 824 q 285 759 301 776 q 244 742 268 742 z "},"©":{"ha":1060,"x_min":171,"x_max":1049,"o":"m 171 404 q 260 674 171 561 l 279 661 q 225 426 225 550 q 329 136 225 260 q 588 13 433 13 q 903 204 778 13 q 993 507 993 343 q 893 804 993 682 q 638 926 793 926 q 450 864 529 926 q 335 696 371 801 l 311 701 q 430 892 335 819 q 654 964 525 964 q 938 835 828 964 q 1049 521 1049 706 q 935 176 1049 329 q 772 28 868 85 q 567 -28 675 -28 q 285 100 399 -28 q 171 404 171 228 m 404 400 q 481 638 404 528 q 567 728 517 692 q 674 764 618 764 q 767 726 731 764 q 804 632 804 689 q 769 533 804 575 q 685 490 735 490 q 628 510 651 490 q 604 560 604 531 q 633 610 604 596 l 643 601 q 633 572 633 589 q 647 533 633 550 q 685 515 661 515 q 738 545 718 515 q 758 618 758 575 q 732 699 758 667 q 660 731 706 731 q 511 614 572 731 q 464 424 464 524 q 500 274 464 339 q 601 210 536 210 q 687 248 650 210 q 732 351 724 286 l 749 353 q 753 326 753 340 q 698 216 753 257 q 576 175 643 175 q 450 241 496 175 q 404 400 404 307 z "},"ª":{"ha":572,"x_min":204,"x_max":704,"o":"m 321 494 q 238 542 272 494 q 204 668 204 589 q 278 872 204 790 q 449 950 347 950 q 571 915 511 950 q 540 665 540 753 q 599 532 540 532 q 679 619 642 532 l 704 608 q 582 494 656 494 q 475 681 478 494 l 472 681 q 321 494 414 494 m 340 536 q 438 665 393 536 q 499 886 463 736 q 421 908 458 908 q 322 871 361 908 q 275 681 275 797 q 294 578 275 619 q 340 536 313 536 z "},"«":{"ha":589,"x_min":158,"x_max":579,"o":"m 194 207 q 158 306 158 264 q 246 449 158 371 q 368 544 289 488 q 396 508 388 533 q 272 415 307 444 q 199 303 199 351 q 224 228 199 269 q 304 113 258 169 l 282 94 q 194 207 222 161 m 378 207 q 342 306 342 264 q 429 449 342 371 q 551 544 472 488 q 579 508 571 533 q 456 415 490 444 q 382 303 382 351 q 407 228 382 269 q 488 113 442 169 l 465 94 q 378 207 406 161 z "},"¬":{"ha":775,"x_min":167,"x_max":724,"o":"m 171 340 q 169 374 167 354 l 724 394 l 703 44 q 669 44 685 42 l 682 353 l 171 340 z "},"­":{"ha":426,"x_min":154,"x_max":447,"o":"m 156 313 q 154 350 154 324 q 442 383 297 363 q 447 351 447 369 q 444 328 447 339 q 156 313 318 315 z "},"®":{"ha":722,"x_min":203,"x_max":785,"o":"m 453 439 q 273 516 343 439 q 203 704 203 593 q 301 955 203 840 q 538 1069 399 1069 q 717 993 649 1069 q 785 806 785 917 q 688 553 785 668 q 453 439 590 439 m 471 474 q 663 573 586 474 q 740 790 740 672 q 681 964 740 890 q 522 1038 622 1038 q 326 938 404 1038 q 247 718 247 838 q 312 543 247 613 q 471 474 376 474 m 378 572 q 368 585 368 572 q 375 640 368 594 q 391 747 382 685 q 404 849 400 810 q 439 861 429 861 q 450 849 450 861 q 431 719 450 817 q 536 755 492 719 q 581 843 581 790 q 553 909 581 885 q 486 933 526 933 q 371 885 422 933 l 360 899 q 510 961 426 961 q 592 933 558 961 q 626 856 626 904 q 595 774 626 810 q 515 718 564 738 q 606 619 572 661 l 646 656 l 658 640 l 578 572 q 468 704 507 665 q 426 700 450 700 q 410 585 413 626 q 378 572 394 572 z "},"¯":{"ha":578,"x_min":196,"x_max":507,"o":"m 200 754 q 196 772 196 761 q 199 788 196 782 l 503 810 q 507 790 507 801 q 501 771 507 781 l 200 754 z "},"°":{"ha":401,"x_min":165,"x_max":494,"o":"m 308 554 q 205 603 244 554 q 165 721 165 653 q 219 872 165 804 q 350 940 272 940 q 454 892 414 940 q 494 775 494 843 q 440 624 494 693 q 308 554 386 554 m 328 594 q 419 644 383 594 q 456 756 456 694 q 422 858 456 814 q 333 901 388 901 q 241 854 276 901 q 206 747 206 807 q 240 641 206 688 q 328 594 274 594 z "},"±":{"ha":775,"x_min":135,"x_max":746,"o":"m 138 0 q 138 33 135 18 l 694 53 q 694 11 697 31 l 138 0 m 186 424 q 186 457 183 442 l 444 467 l 447 728 q 488 728 471 731 l 483 467 l 743 476 q 743 435 746 454 l 482 429 l 475 163 q 442 163 458 160 l 444 429 l 186 424 z "},"²":{"ha":460,"x_min":113,"x_max":514,"o":"m 113 374 q 142 418 113 399 q 217 440 172 438 q 381 612 321 533 q 442 764 442 690 q 415 844 442 811 q 340 876 388 876 q 268 852 299 876 q 238 786 238 828 q 278 717 238 738 l 269 697 q 211 726 235 703 q 188 785 188 750 q 247 883 188 840 q 357 918 297 918 q 469 876 425 918 q 514 768 514 833 q 272 443 514 628 l 274 440 q 457 393 371 428 q 484 379 478 385 q 490 365 490 374 q 450 301 490 347 q 333 351 407 325 q 203 385 258 376 q 139 336 157 347 q 113 374 113 347 z "},"³":{"ha":460,"x_min":125,"x_max":508,"o":"m 286 315 q 171 353 217 315 q 125 450 125 390 q 174 550 125 510 l 192 536 q 172 474 172 508 q 209 390 172 424 q 306 356 246 356 q 406 388 364 356 q 447 471 447 421 q 289 582 447 568 q 286 608 286 588 q 292 647 286 625 q 439 783 439 700 q 413 850 439 824 q 346 876 386 876 q 284 854 308 876 q 260 800 260 832 q 276 747 260 771 l 268 732 q 228 758 244 739 q 211 800 211 776 q 267 886 211 847 q 365 918 311 918 q 465 885 421 918 q 508 796 508 851 q 363 642 508 701 l 363 640 q 463 596 419 629 q 506 500 506 563 q 438 369 506 422 q 286 315 371 315 z "},"´":{"ha":578,"x_min":267,"x_max":526,"o":"m 285 715 l 267 740 q 496 935 369 818 q 526 893 519 915 q 285 715 403 796 z "},"µ":{"ha":636,"x_min":-1,"x_max":782,"o":"m 51 -146 q 113 463 113 232 q 107 561 113 521 q 175 588 144 588 q 193 578 188 588 q 200 555 199 568 q 201 514 201 542 q 186 267 201 410 q 175 144 175 169 q 194 67 175 99 q 246 36 214 36 q 390 253 325 36 q 457 563 432 392 q 525 588 497 588 q 544 561 544 588 q 519 376 544 543 q 503 199 503 264 q 522 81 503 131 q 576 32 540 32 q 669 126 622 32 q 756 431 717 219 l 782 426 q 553 -11 706 -11 q 459 46 493 -11 q 425 194 425 103 q 431 274 425 226 l 428 274 q 218 -12 354 -12 q 156 8 183 -12 q 86 -418 125 -197 q 14 -451 49 -451 q -1 -433 -1 -451 q 6 -389 -1 -426 q 26 -280 13 -351 q 51 -146 40 -208 z "},"¶":{"ha":722,"x_min":217,"x_max":743,"o":"m 351 -161 q 481 511 436 250 q 293 577 369 518 q 217 743 217 636 q 322 972 217 875 q 563 1068 428 1068 q 622 1061 601 1068 q 508 453 556 703 q 456 170 496 385 q 393 -167 415 -44 q 351 -161 371 -167 m 472 -164 q 590 449 521 64 q 694 1067 654 813 q 743 1060 725 1067 q 626 450 653 594 q 517 -169 576 179 q 472 -164 489 -169 z "},"·":{"ha":411,"x_min":199,"x_max":335,"o":"m 218 295 q 208 305 218 295 q 199 344 199 315 q 218 394 199 374 q 267 414 238 414 q 315 394 294 414 q 335 344 335 374 q 315 296 335 317 q 267 275 294 275 q 218 295 238 275 z "},"¸":{"ha":578,"x_min":147,"x_max":304,"o":"m 147 -117 q 213 21 181 -51 l 242 8 l 206 -69 q 304 -175 304 -108 q 176 -340 304 -247 l 160 -321 q 243 -204 243 -257 q 147 -117 243 -147 z "},"¹":{"ha":460,"x_min":210,"x_max":453,"o":"m 296 342 q 338 653 296 403 l 369 839 q 364 846 369 846 q 349 835 360 846 q 232 708 300 786 l 210 726 q 389 918 299 836 q 453 893 428 917 q 402 599 428 774 q 372 336 376 424 q 315 315 338 315 q 296 342 296 315 z "},"º":{"ha":572,"x_min":203,"x_max":722,"o":"m 375 514 q 251 573 300 514 q 203 717 203 632 q 247 863 203 796 q 382 940 290 929 q 451 974 411 974 q 540 926 500 974 q 579 796 579 878 q 563 688 579 742 q 697 818 667 688 l 722 814 q 547 650 692 650 q 375 514 489 514 m 386 850 q 424 752 386 796 q 517 693 463 708 q 522 757 522 738 q 494 876 522 824 q 433 928 467 928 q 399 904 411 928 q 386 850 386 881 m 396 553 q 507 657 471 553 q 398 726 442 672 q 354 847 354 779 q 368 913 354 888 l 367 915 q 268 744 268 883 q 303 610 268 667 q 396 553 339 553 z "},"»":{"ha":589,"x_min":131,"x_max":544,"o":"m 131 117 q 254 217 199 165 q 319 325 319 278 q 293 403 319 360 q 204 517 271 439 q 240 546 215 536 q 328 432 308 467 q 361 338 361 379 q 281 197 361 271 q 149 93 229 150 l 131 117 m 314 117 q 438 217 382 165 q 503 325 503 278 q 476 403 503 360 q 388 517 454 439 q 424 546 399 536 q 511 432 492 467 q 544 338 544 379 q 464 197 544 271 q 332 93 413 150 l 314 117 z "},"¼":{"ha":957,"x_min":238,"x_max":990,"o":"m 324 499 q 365 810 324 560 l 397 996 q 392 1003 397 1003 q 376 992 388 1003 q 260 865 328 943 l 238 883 q 417 1075 326 993 q 481 1050 456 1074 q 430 756 456 931 q 400 493 404 581 q 343 472 365 472 q 324 499 324 472 m 314 151 l 289 176 q 800 772 585 511 l 831 744 q 314 151 644 533 m 575 65 q 542 129 550 88 q 680 330 596 224 q 835 490 764 436 q 900 464 874 488 q 843 139 867 319 q 990 114 926 132 l 988 88 q 836 85 889 88 q 822 -87 822 -35 q 765 -110 792 -110 q 747 -81 747 -110 q 763 82 747 -54 q 575 65 671 78 m 592 138 q 733 143 646 143 l 772 143 q 813 367 785 235 q 821 411 821 406 q 815 418 821 418 q 801 411 810 418 q 697 293 764 381 q 590 139 629 206 l 592 138 z "},"½":{"ha":957,"x_min":238,"x_max":936,"o":"m 324 499 q 365 810 324 560 l 397 996 q 392 1003 397 1003 q 376 992 388 1003 q 260 865 328 943 l 238 883 q 417 1075 326 993 q 481 1050 456 1074 q 430 756 456 931 q 400 493 404 581 q 343 472 365 472 q 324 499 324 472 m 314 151 l 289 176 q 800 772 585 511 l 831 744 q 314 151 644 533 m 535 -54 q 565 -10 535 -29 q 639 13 594 10 q 803 184 743 106 q 864 336 864 263 q 837 416 864 383 q 763 449 810 449 q 690 424 721 449 q 660 358 660 400 q 700 289 660 310 l 692 269 q 633 299 657 275 q 610 357 610 322 q 669 456 610 413 q 779 490 719 490 q 892 448 847 490 q 936 340 936 406 q 694 15 936 200 l 696 13 q 879 -35 793 0 q 906 -49 900 -43 q 913 -62 913 -54 q 872 -126 913 -81 q 755 -77 829 -103 q 625 -43 681 -51 q 561 -92 579 -81 q 535 -54 535 -81 z "},"¾":{"ha":957,"x_min":153,"x_max":990,"o":"m 314 472 q 199 510 244 472 q 153 607 153 547 q 201 707 153 667 l 219 693 q 200 631 200 665 q 237 547 200 581 q 333 513 274 513 q 433 545 392 513 q 475 628 475 578 q 317 739 475 725 q 314 765 314 744 q 319 804 314 782 q 467 940 467 857 q 440 1007 467 981 q 374 1033 414 1033 q 312 1011 336 1033 q 288 957 288 989 q 304 904 288 928 l 296 889 q 256 915 272 896 q 239 957 239 933 q 294 1043 239 1004 q 393 1075 339 1075 q 492 1042 449 1075 q 536 953 536 1008 q 390 799 536 858 l 390 797 q 490 753 447 786 q 533 657 533 719 q 466 526 533 579 q 314 472 399 472 m 314 151 l 289 176 q 800 772 585 511 l 831 744 q 314 151 644 533 m 575 65 q 542 129 550 88 q 680 330 596 224 q 835 490 764 436 q 900 464 874 488 q 843 139 867 319 q 990 114 926 132 l 988 88 q 836 85 889 88 q 822 -87 822 -35 q 765 -110 792 -110 q 747 -81 747 -110 q 763 82 747 -54 q 575 65 671 78 m 592 138 q 733 143 646 143 l 772 143 q 813 367 785 235 q 821 411 821 406 q 815 418 821 418 q 801 411 810 418 q 697 293 764 381 q 590 139 629 206 l 592 138 z "},"¿":{"ha":592,"x_min":24,"x_max":501,"o":"m 466 478 q 456 467 466 478 q 417 457 446 457 q 367 478 388 457 q 347 528 347 499 q 367 578 347 557 q 417 599 388 599 q 466 578 446 599 q 486 528 486 557 q 466 478 486 499 m 24 -211 q 72 -90 24 -139 q 226 28 119 -40 q 329 106 299 75 q 360 179 360 138 q 293 271 360 240 l 300 289 q 397 260 361 286 q 433 189 433 235 q 410 122 433 154 q 360 72 386 90 q 285 24 335 54 q 148 -83 190 -35 q 106 -196 106 -131 q 153 -315 106 -268 q 274 -362 200 -362 q 387 -326 340 -362 q 433 -228 433 -289 q 343 -112 433 -143 l 347 -93 q 459 -134 417 -99 q 501 -222 501 -169 q 419 -354 501 -299 q 254 -403 346 -403 q 90 -350 157 -403 q 24 -211 24 -297 z "},"À":{"ha":1074,"x_min":40,"x_max":1219,"o":"m 40 132 q 96 272 40 201 q 235 385 151 342 q 503 447 344 442 q 558 599 506 456 q 689 917 644 839 q 847 1051 761 1039 q 963 997 919 1042 q 904 383 904 654 q 919 171 904 254 q 1008 25 946 25 q 1068 61 1038 25 q 1133 192 1099 97 q 1192 431 1167 288 l 1219 426 q 1113 78 1176 183 q 981 -28 1050 -28 q 835 138 878 -28 q 810 386 810 232 q 582 400 682 400 q 542 399 556 400 q 451 189 501 278 q 331 40 399 97 q 194 -18 264 -18 q 85 25 131 -18 q 40 132 40 68 m 558 449 q 810 422 664 449 q 838 776 813 588 q 858 944 858 929 q 822 988 858 988 q 763 954 792 988 q 660 758 711 896 q 558 449 640 708 m 86 144 q 115 75 86 103 q 185 47 143 47 q 397 224 289 47 q 482 396 440 293 q 257 340 350 382 q 134 252 182 306 q 86 144 86 199 m 944 1119 q 688 1257 836 1169 q 701 1283 690 1265 q 718 1306 711 1300 q 960 1147 839 1217 l 944 1119 z "},"Á":{"ha":1074,"x_min":40,"x_max":1219,"o":"m 40 132 q 96 272 40 201 q 235 385 151 342 q 503 447 344 442 q 558 599 506 456 q 689 917 644 839 q 847 1051 761 1039 q 963 997 919 1042 q 904 383 904 654 q 919 171 904 254 q 1008 25 946 25 q 1068 61 1038 25 q 1133 192 1099 97 q 1192 431 1167 288 l 1219 426 q 1113 78 1176 183 q 981 -28 1050 -28 q 835 138 878 -28 q 810 386 810 232 q 582 400 682 400 q 542 399 556 400 q 451 189 501 278 q 331 40 399 97 q 194 -18 264 -18 q 85 25 131 -18 q 40 132 40 68 m 558 449 q 810 422 664 449 q 838 776 813 588 q 858 944 858 929 q 822 988 858 988 q 763 954 792 988 q 660 758 711 896 q 558 449 640 708 m 86 144 q 115 75 86 103 q 185 47 143 47 q 397 224 289 47 q 482 396 440 293 q 257 340 350 382 q 134 252 182 306 q 86 144 86 199 m 796 1146 l 785 1175 q 1061 1294 908 1224 q 1079 1246 1079 1274 q 796 1146 946 1194 z "},"Â":{"ha":1074,"x_min":40,"x_max":1219,"o":"m 40 132 q 96 272 40 201 q 235 385 151 342 q 503 447 344 442 q 558 599 506 456 q 689 917 644 839 q 847 1051 761 1039 q 963 997 919 1042 q 904 383 904 654 q 919 171 904 254 q 1008 25 946 25 q 1068 61 1038 25 q 1133 192 1099 97 q 1192 431 1167 288 l 1219 426 q 1113 78 1176 183 q 981 -28 1050 -28 q 835 138 878 -28 q 810 386 810 232 q 582 400 682 400 q 542 399 556 400 q 451 189 501 278 q 331 40 399 97 q 194 -18 264 -18 q 85 25 131 -18 q 40 132 40 68 m 558 449 q 810 422 664 449 q 838 776 813 588 q 858 944 858 929 q 822 988 858 988 q 763 954 792 988 q 660 758 711 896 q 558 449 640 708 m 86 144 q 115 75 86 103 q 185 47 143 47 q 397 224 289 47 q 482 396 440 293 q 257 340 350 382 q 134 252 182 306 q 86 144 86 199 m 700 1114 l 683 1138 q 888 1308 786 1217 q 906 1317 897 1317 q 925 1307 917 1317 q 1068 1135 990 1217 l 1047 1113 q 899 1261 958 1193 q 700 1114 807 1188 z "},"Ã":{"ha":1074,"x_min":40,"x_max":1219,"o":"m 40 132 q 96 272 40 201 q 235 385 151 342 q 503 447 344 442 q 558 599 506 456 q 689 917 644 839 q 847 1051 761 1039 q 963 997 919 1042 q 904 383 904 654 q 919 171 904 254 q 1008 25 946 25 q 1068 61 1038 25 q 1133 192 1099 97 q 1192 431 1167 288 l 1219 426 q 1113 78 1176 183 q 981 -28 1050 -28 q 835 138 878 -28 q 810 386 810 232 q 582 400 682 400 q 542 399 556 400 q 451 189 501 278 q 331 40 399 97 q 194 -18 264 -18 q 85 25 131 -18 q 40 132 40 68 m 558 449 q 810 422 664 449 q 838 776 813 588 q 858 944 858 929 q 822 988 858 988 q 763 954 792 988 q 660 758 711 896 q 558 449 640 708 m 86 144 q 115 75 86 103 q 185 47 143 47 q 397 224 289 47 q 482 396 440 293 q 257 340 350 382 q 134 252 182 306 q 86 144 86 199 m 715 1131 l 697 1136 q 731 1222 703 1185 q 806 1260 760 1260 q 893 1225 840 1260 q 972 1193 940 1193 q 1046 1263 1025 1193 l 1065 1257 q 1031 1172 1060 1208 q 956 1135 1003 1135 q 868 1168 924 1135 q 789 1200 819 1200 q 715 1131 739 1200 z "},"Ä":{"ha":1074,"x_min":40,"x_max":1219,"o":"m 40 132 q 96 272 40 201 q 235 385 151 342 q 503 447 344 442 q 558 599 506 456 q 689 917 644 839 q 847 1051 761 1039 q 963 997 919 1042 q 904 383 904 654 q 919 171 904 254 q 1008 25 946 25 q 1068 61 1038 25 q 1133 192 1099 97 q 1192 431 1167 288 l 1219 426 q 1113 78 1176 183 q 981 -28 1050 -28 q 835 138 878 -28 q 810 386 810 232 q 582 400 682 400 q 542 399 556 400 q 451 189 501 278 q 331 40 399 97 q 194 -18 264 -18 q 85 25 131 -18 q 40 132 40 68 m 558 449 q 810 422 664 449 q 838 776 813 588 q 858 944 858 929 q 822 988 858 988 q 763 954 792 988 q 660 758 711 896 q 558 449 640 708 m 86 144 q 115 75 86 103 q 185 47 143 47 q 397 224 289 47 q 482 396 440 293 q 257 340 350 382 q 134 252 182 306 q 86 144 86 199 m 1028 1152 q 1020 1143 1028 1152 q 988 1135 1011 1135 q 948 1152 964 1135 q 932 1193 932 1169 q 948 1234 932 1217 q 988 1251 964 1251 q 1028 1234 1011 1251 q 1046 1193 1046 1217 q 1028 1152 1046 1169 m 769 1135 q 728 1151 744 1135 q 713 1193 713 1168 q 728 1235 713 1218 q 769 1251 744 1251 q 810 1234 793 1251 q 826 1193 826 1217 q 810 1152 826 1169 q 769 1135 793 1135 z "},"Å":{"ha":1074,"x_min":40,"x_max":1219,"o":"m 40 132 q 96 272 40 201 q 235 385 151 342 q 503 447 344 442 q 558 599 506 456 q 689 917 644 839 q 847 1051 761 1039 q 963 997 919 1042 q 904 383 904 654 q 919 171 904 254 q 1008 25 946 25 q 1068 61 1038 25 q 1133 192 1099 97 q 1192 431 1167 288 l 1219 426 q 1113 78 1176 183 q 981 -28 1050 -28 q 835 138 878 -28 q 810 386 810 232 q 582 400 682 400 q 542 399 556 400 q 451 189 501 278 q 331 40 399 97 q 194 -18 264 -18 q 85 25 131 -18 q 40 132 40 68 m 558 449 q 810 422 664 449 q 838 776 813 588 q 858 944 858 929 q 822 988 858 988 q 763 954 792 988 q 660 758 711 896 q 558 449 640 708 m 86 144 q 115 75 86 103 q 185 47 143 47 q 397 224 289 47 q 482 396 440 293 q 257 340 350 382 q 134 252 182 306 q 86 144 86 199 m 872 1108 q 799 1137 828 1108 q 771 1210 771 1165 q 808 1303 771 1263 q 899 1344 846 1344 q 969 1316 942 1344 q 997 1243 997 1288 q 962 1149 997 1190 q 872 1108 926 1108 m 885 1142 q 940 1167 919 1142 q 961 1226 961 1192 q 940 1286 961 1260 q 885 1313 919 1313 q 831 1288 851 1313 q 810 1229 810 1263 q 831 1168 810 1194 q 885 1142 851 1142 z "},"Æ":{"ha":1425,"x_min":40,"x_max":1408,"o":"m 40 132 q 96 272 40 201 q 235 385 151 342 q 503 447 344 442 l 558 599 q 689 917 644 839 q 847 1051 761 1039 q 942 1015 900 1044 q 1114 1064 1025 1064 q 1262 1019 1199 1064 q 1325 900 1325 974 q 1301 820 1325 856 q 1240 765 1276 785 l 1226 779 q 1261 861 1261 808 q 1211 973 1261 928 q 1085 1018 1161 1018 q 944 968 1004 1018 q 883 839 883 918 q 946 697 883 761 q 1117 592 1008 633 q 1114 565 1117 582 q 886 470 968 546 q 804 285 804 394 q 881 103 804 175 q 1068 31 958 31 q 1285 126 1193 31 q 1364 322 1364 213 q 1356 382 1364 351 l 1376 389 q 1408 292 1408 347 q 1314 94 1408 185 q 1032 -18 1197 -18 q 803 54 904 -18 q 703 251 703 126 q 742 393 703 326 q 582 400 647 400 q 542 399 556 400 q 451 189 501 278 q 331 40 399 97 q 194 -18 264 -18 q 85 25 131 -18 q 40 132 40 68 m 558 449 q 768 429 644 449 q 969 563 839 517 l 969 565 q 804 796 804 653 q 858 944 804 879 q 822 988 858 988 q 763 954 792 988 q 660 758 711 896 q 558 449 640 708 m 86 144 q 115 75 86 103 q 185 47 143 47 q 397 224 289 47 q 482 396 440 293 q 257 340 350 382 q 134 252 182 306 q 86 144 86 199 z "},"Ç":{"ha":761,"x_min":96,"x_max":831,"o":"m 353 -117 q 401 -18 374 -78 q 178 112 261 -8 q 96 407 96 232 q 231 833 96 635 q 393 1001 301 938 q 583 1065 485 1065 q 760 992 689 1065 q 831 810 831 919 q 767 625 831 704 q 613 546 704 546 q 503 585 549 546 q 458 682 458 624 q 510 775 458 740 l 522 768 q 511 697 511 728 q 542 613 511 643 q 617 582 572 582 q 723 644 681 582 q 765 793 765 706 q 712 956 765 889 q 565 1022 658 1022 q 399 957 474 1022 q 276 792 325 892 q 193 438 193 622 q 266 149 193 267 q 460 31 339 31 q 626 108 557 31 q 711 303 694 185 l 733 301 q 736 264 736 279 q 647 69 736 150 q 436 -18 557 -12 l 411 -69 q 511 -175 511 -108 q 383 -340 511 -246 l 367 -321 q 450 -206 450 -256 q 353 -117 450 -147 z "},"È":{"ha":785,"x_min":63,"x_max":768,"o":"m 63 251 q 136 439 63 356 q 329 563 210 522 l 329 565 q 163 796 163 653 q 260 987 163 910 q 474 1064 357 1064 q 622 1019 558 1064 q 685 900 685 974 q 660 820 685 856 q 600 765 636 785 l 586 779 q 621 861 621 808 q 571 973 621 928 q 444 1018 521 1018 q 303 968 364 1018 q 243 839 243 918 q 306 697 243 761 q 476 592 368 633 q 474 565 476 582 q 245 470 328 546 q 163 285 163 394 q 240 103 163 175 q 428 31 318 31 q 643 126 554 31 q 724 322 724 211 q 715 382 724 351 l 736 389 q 768 292 768 347 q 674 94 768 185 q 392 -18 557 -18 q 163 54 264 -18 q 63 251 63 126 m 558 1119 q 301 1257 450 1169 q 315 1283 304 1265 q 332 1306 325 1300 q 574 1147 453 1217 l 558 1119 z "},"É":{"ha":785,"x_min":63,"x_max":768,"o":"m 63 251 q 136 439 63 356 q 329 563 210 522 l 329 565 q 163 796 163 653 q 260 987 163 910 q 474 1064 357 1064 q 622 1019 558 1064 q 685 900 685 974 q 660 820 685 856 q 600 765 636 785 l 586 779 q 621 861 621 808 q 571 973 621 928 q 444 1018 521 1018 q 303 968 364 1018 q 243 839 243 918 q 306 697 243 761 q 476 592 368 633 q 474 565 476 582 q 245 470 328 546 q 163 285 163 394 q 240 103 163 175 q 428 31 318 31 q 643 126 554 31 q 724 322 724 211 q 715 382 724 351 l 736 389 q 768 292 768 347 q 674 94 768 185 q 392 -18 557 -18 q 163 54 264 -18 q 63 251 63 126 m 410 1146 l 399 1175 q 675 1294 522 1224 q 693 1246 693 1274 q 410 1146 560 1194 z "},"Ê":{"ha":785,"x_min":63,"x_max":768,"o":"m 63 251 q 136 439 63 356 q 329 563 210 522 l 329 565 q 163 796 163 653 q 260 987 163 910 q 474 1064 357 1064 q 622 1019 558 1064 q 685 900 685 974 q 660 820 685 856 q 600 765 636 785 l 586 779 q 621 861 621 808 q 571 973 621 928 q 444 1018 521 1018 q 303 968 364 1018 q 243 839 243 918 q 306 697 243 761 q 476 592 368 633 q 474 565 476 582 q 245 470 328 546 q 163 285 163 394 q 240 103 163 175 q 428 31 318 31 q 643 126 554 31 q 724 322 724 211 q 715 382 724 351 l 736 389 q 768 292 768 347 q 674 94 768 185 q 392 -18 557 -18 q 163 54 264 -18 q 63 251 63 126 m 314 1114 l 297 1138 q 501 1308 400 1217 q 519 1317 511 1317 q 539 1307 531 1317 q 682 1135 604 1217 l 661 1113 q 513 1261 572 1193 q 314 1114 421 1188 z "},"Ë":{"ha":785,"x_min":63,"x_max":768,"o":"m 63 251 q 136 439 63 356 q 329 563 210 522 l 329 565 q 163 796 163 653 q 260 987 163 910 q 474 1064 357 1064 q 622 1019 558 1064 q 685 900 685 974 q 660 820 685 856 q 600 765 636 785 l 586 779 q 621 861 621 808 q 571 973 621 928 q 444 1018 521 1018 q 303 968 364 1018 q 243 839 243 918 q 306 697 243 761 q 476 592 368 633 q 474 565 476 582 q 245 470 328 546 q 163 285 163 394 q 240 103 163 175 q 428 31 318 31 q 643 126 554 31 q 724 322 724 211 q 715 382 724 351 l 736 389 q 768 292 768 347 q 674 94 768 185 q 392 -18 557 -18 q 163 54 264 -18 q 63 251 63 126 m 642 1152 q 634 1143 642 1152 q 601 1135 625 1135 q 562 1152 578 1135 q 546 1193 546 1169 q 562 1234 546 1217 q 601 1251 578 1251 q 642 1234 625 1251 q 660 1193 660 1217 q 642 1152 660 1169 m 383 1135 q 342 1151 358 1135 q 326 1193 326 1168 q 342 1235 326 1218 q 383 1251 358 1251 q 424 1234 407 1251 q 440 1193 440 1217 q 424 1152 440 1169 q 383 1135 407 1135 z "},"Ì":{"ha":725,"x_min":132,"x_max":801,"o":"m 139 118 q 240 278 139 217 l 253 258 q 194 149 194 218 q 238 47 194 89 q 346 6 281 6 q 506 104 442 6 q 544 197 529 142 q 566 293 560 251 q 585 443 572 335 q 672 1014 618 719 q 608 1019 646 1019 q 336 926 447 1019 q 242 805 276 876 q 207 658 207 733 q 249 514 207 575 q 374 451 292 453 l 374 431 q 328 426 351 426 q 186 488 240 426 q 132 642 132 549 q 181 813 132 729 q 311 958 229 897 q 638 1065 454 1065 q 779 1046 717 1065 q 711 681 751 919 q 663 403 671 442 q 539 76 619 179 q 317 -47 442 -47 q 190 0 242 -47 q 139 118 139 47 m 786 1119 q 529 1257 678 1169 q 542 1283 532 1265 q 560 1306 553 1300 q 801 1147 681 1217 l 786 1119 z "},"Í":{"ha":725,"x_min":132,"x_max":921,"o":"m 139 118 q 240 278 139 217 l 253 258 q 194 149 194 218 q 238 47 194 89 q 346 6 281 6 q 506 104 442 6 q 544 197 529 142 q 566 293 560 251 q 585 443 572 335 q 672 1014 618 719 q 608 1019 646 1019 q 336 926 447 1019 q 242 805 276 876 q 207 658 207 733 q 249 514 207 575 q 374 451 292 453 l 374 431 q 328 426 351 426 q 186 488 240 426 q 132 642 132 549 q 181 813 132 729 q 311 958 229 897 q 638 1065 454 1065 q 779 1046 717 1065 q 711 681 751 919 q 663 403 671 442 q 539 76 619 179 q 317 -47 442 -47 q 190 0 242 -47 q 139 118 139 47 m 638 1146 l 626 1175 q 903 1294 750 1224 q 921 1246 921 1274 q 638 1146 788 1194 z "},"Î":{"ha":725,"x_min":132,"x_max":910,"o":"m 139 118 q 240 278 139 217 l 253 258 q 194 149 194 218 q 238 47 194 89 q 346 6 281 6 q 506 104 442 6 q 544 197 529 142 q 566 293 560 251 q 585 443 572 335 q 672 1014 618 719 q 608 1019 646 1019 q 336 926 447 1019 q 242 805 276 876 q 207 658 207 733 q 249 514 207 575 q 374 451 292 453 l 374 431 q 328 426 351 426 q 186 488 240 426 q 132 642 132 549 q 181 813 132 729 q 311 958 229 897 q 638 1065 454 1065 q 779 1046 717 1065 q 711 681 751 919 q 663 403 671 442 q 539 76 619 179 q 317 -47 442 -47 q 190 0 242 -47 q 139 118 139 47 m 542 1114 l 525 1138 q 729 1308 628 1217 q 747 1317 739 1317 q 767 1307 758 1317 q 910 1135 832 1217 l 889 1113 q 740 1261 800 1193 q 542 1114 649 1188 z "},"Ï":{"ha":725,"x_min":132,"x_max":888,"o":"m 139 118 q 240 278 139 217 l 253 258 q 194 149 194 218 q 238 47 194 89 q 346 6 281 6 q 506 104 442 6 q 544 197 529 142 q 566 293 560 251 q 585 443 572 335 q 672 1014 618 719 q 608 1019 646 1019 q 336 926 447 1019 q 242 805 276 876 q 207 658 207 733 q 249 514 207 575 q 374 451 292 453 l 374 431 q 328 426 351 426 q 186 488 240 426 q 132 642 132 549 q 181 813 132 729 q 311 958 229 897 q 638 1065 454 1065 q 779 1046 717 1065 q 711 681 751 919 q 663 403 671 442 q 539 76 619 179 q 317 -47 442 -47 q 190 0 242 -47 q 139 118 139 47 m 870 1152 q 861 1143 870 1152 q 829 1135 853 1135 q 790 1152 806 1135 q 774 1193 774 1169 q 790 1234 774 1217 q 829 1251 806 1251 q 870 1234 853 1251 q 888 1193 888 1217 q 870 1152 888 1169 m 611 1135 q 570 1151 586 1135 q 554 1193 554 1168 q 570 1235 554 1218 q 611 1251 586 1251 q 651 1234 635 1251 q 668 1193 668 1217 q 651 1152 668 1169 q 611 1135 635 1135 z "},"Ð":{"ha":1143,"x_min":128,"x_max":1128,"o":"m 415 99 q 461 479 415 222 l 338 472 q 332 494 332 481 q 335 511 332 506 l 468 517 q 518 829 500 690 q 592 858 564 858 q 611 839 611 858 q 569 604 611 833 q 554 522 560 554 l 763 535 q 765 514 765 526 q 761 492 765 500 l 547 483 q 506 153 506 249 q 531 65 506 94 q 633 36 556 36 q 935 226 826 36 q 1008 410 982 308 q 1033 604 1033 513 q 1012 760 1033 688 q 947 892 990 832 q 829 986 904 951 q 657 1021 754 1021 q 340 911 469 1021 q 207 633 207 797 q 241 485 207 550 q 347 396 275 421 l 343 375 q 188 443 249 375 q 128 615 128 511 q 178 795 128 707 q 314 947 229 883 q 679 1065 471 1065 q 1015 939 901 1065 q 1128 621 1128 813 q 1090 394 1128 508 q 986 193 1051 281 q 607 -6 836 -6 q 497 15 531 -6 q 456 3 472 3 q 415 99 415 3 z "},"Ñ":{"ha":1068,"x_min":38,"x_max":1418,"o":"m 38 131 l 58 139 q 176 57 90 57 q 419 281 317 57 q 558 1014 553 576 q 636 1061 608 1061 q 658 1036 653 1061 q 768 590 738 700 q 913 151 833 353 l 915 151 q 946 480 918 282 q 1015 818 974 678 q 1293 1149 1114 1149 q 1385 1114 1353 1149 q 1418 1025 1417 1079 l 1397 1015 q 1300 1082 1374 1082 q 1058 792 1151 1082 q 984 468 1015 657 q 953 128 953 279 q 957 26 953 75 q 879 -15 910 -15 q 858 1 865 -15 q 711 456 825 72 q 594 885 650 660 l 592 885 q 476 274 575 529 q 192 -18 364 -18 q 83 26 122 -18 q 38 131 44 71 m 732 1131 l 714 1136 q 748 1222 719 1185 q 822 1260 776 1260 q 910 1225 857 1260 q 989 1193 957 1193 q 1063 1263 1042 1193 l 1082 1257 q 1048 1172 1076 1208 q 972 1135 1019 1135 q 885 1168 940 1135 q 806 1200 836 1200 q 732 1131 756 1200 z "},"Ò":{"ha":875,"x_min":89,"x_max":899,"o":"m 89 382 q 135 610 89 494 q 272 806 181 726 q 382 991 297 917 q 582 1065 467 1065 q 758 1002 685 1065 q 865 844 832 939 q 899 638 899 750 q 786 236 899 431 q 421 -18 638 -18 q 180 99 271 -18 q 89 382 89 217 m 460 33 q 732 265 629 33 q 803 607 803 426 q 790 742 803 675 q 749 874 776 810 q 672 977 722 938 q 554 1017 621 1017 q 392 940 457 1017 q 328 760 328 864 q 386 579 328 658 q 536 500 444 500 q 644 545 601 500 q 694 675 686 590 l 722 674 q 656 506 717 567 q 507 444 594 444 q 333 529 401 444 q 264 732 264 614 l 261 732 q 183 442 183 625 q 258 158 183 282 q 460 33 333 33 m 685 1119 q 428 1257 576 1169 q 441 1283 431 1265 q 458 1306 451 1300 q 700 1147 579 1217 l 685 1119 z "},"Ó":{"ha":875,"x_min":89,"x_max":899,"o":"m 89 382 q 135 610 89 494 q 272 806 181 726 q 382 991 297 917 q 582 1065 467 1065 q 758 1002 685 1065 q 865 844 832 939 q 899 638 899 750 q 786 236 899 431 q 421 -18 638 -18 q 180 99 271 -18 q 89 382 89 217 m 460 33 q 732 265 629 33 q 803 607 803 426 q 790 742 803 675 q 749 874 776 810 q 672 977 722 938 q 554 1017 621 1017 q 392 940 457 1017 q 328 760 328 864 q 386 579 328 658 q 536 500 444 500 q 644 545 601 500 q 694 675 686 590 l 722 674 q 656 506 717 567 q 507 444 594 444 q 333 529 401 444 q 264 732 264 614 l 261 732 q 183 442 183 625 q 258 158 183 282 q 460 33 333 33 m 536 1146 l 525 1175 q 801 1294 649 1224 q 819 1246 819 1274 q 536 1146 686 1194 z "},"Ô":{"ha":875,"x_min":89,"x_max":899,"o":"m 89 382 q 135 610 89 494 q 272 806 181 726 q 382 991 297 917 q 582 1065 467 1065 q 758 1002 685 1065 q 865 844 832 939 q 899 638 899 750 q 786 236 899 431 q 421 -18 638 -18 q 180 99 271 -18 q 89 382 89 217 m 460 33 q 732 265 629 33 q 803 607 803 426 q 790 742 803 675 q 749 874 776 810 q 672 977 722 938 q 554 1017 621 1017 q 392 940 457 1017 q 328 760 328 864 q 386 579 328 658 q 536 500 444 500 q 644 545 601 500 q 694 675 686 590 l 722 674 q 656 506 717 567 q 507 444 594 444 q 333 529 401 444 q 264 732 264 614 l 261 732 q 183 442 183 625 q 258 158 183 282 q 460 33 333 33 m 440 1114 l 424 1138 q 628 1308 525 1217 q 646 1317 639 1317 q 665 1307 657 1317 q 808 1135 731 1217 l 788 1113 q 639 1261 699 1193 q 440 1114 547 1188 z "},"Õ":{"ha":875,"x_min":89,"x_max":899,"o":"m 89 382 q 135 610 89 494 q 272 806 181 726 q 382 991 297 917 q 582 1065 467 1065 q 758 1002 685 1065 q 865 844 832 939 q 899 638 899 750 q 786 236 899 431 q 421 -18 638 -18 q 180 99 271 -18 q 89 382 89 217 m 460 33 q 732 265 629 33 q 803 607 803 426 q 790 742 803 675 q 749 874 776 810 q 672 977 722 938 q 554 1017 621 1017 q 392 940 457 1017 q 328 760 328 864 q 386 579 328 658 q 536 500 444 500 q 644 545 601 500 q 694 675 686 590 l 722 674 q 656 506 717 567 q 507 444 594 444 q 333 529 401 444 q 264 732 264 614 l 261 732 q 183 442 183 625 q 258 158 183 282 q 460 33 333 33 m 456 1131 l 438 1136 q 472 1222 443 1185 q 546 1260 500 1260 q 633 1225 581 1260 q 713 1193 681 1193 q 786 1263 765 1193 l 806 1257 q 772 1172 800 1208 q 696 1135 743 1135 q 608 1168 664 1135 q 529 1200 561 1200 q 456 1131 479 1200 z "},"Ö":{"ha":875,"x_min":89,"x_max":899,"o":"m 89 382 q 135 610 89 494 q 272 806 181 726 q 382 991 297 917 q 582 1065 467 1065 q 758 1002 685 1065 q 865 844 832 939 q 899 638 899 750 q 786 236 899 431 q 421 -18 638 -18 q 180 99 271 -18 q 89 382 89 217 m 460 33 q 732 265 629 33 q 803 607 803 426 q 790 742 803 675 q 749 874 776 810 q 672 977 722 938 q 554 1017 621 1017 q 392 940 457 1017 q 328 760 328 864 q 386 579 328 658 q 536 500 444 500 q 644 545 601 500 q 694 675 686 590 l 722 674 q 656 506 717 567 q 507 444 594 444 q 333 529 401 444 q 264 732 264 614 l 261 732 q 183 442 183 625 q 258 158 183 282 q 460 33 333 33 m 769 1152 q 760 1143 769 1152 q 728 1135 751 1135 q 688 1152 704 1135 q 672 1193 672 1169 q 688 1234 672 1217 q 728 1251 704 1251 q 769 1234 751 1251 q 786 1193 786 1217 q 769 1152 786 1169 m 510 1135 q 469 1151 485 1135 q 453 1193 453 1168 q 469 1235 453 1218 q 510 1251 485 1251 q 550 1234 533 1251 q 567 1193 567 1217 q 550 1152 567 1169 q 510 1135 533 1135 z "},"×":{"ha":775,"x_min":215,"x_max":685,"o":"m 215 153 l 421 360 l 242 564 q 257 580 246 569 q 271 593 268 590 l 450 386 l 658 596 q 685 567 669 588 l 472 358 l 657 146 q 631 122 646 132 l 446 332 l 239 129 q 215 153 228 135 z "},"Ø":{"ha":875,"x_min":89,"x_max":899,"o":"m 89 382 q 150 645 89 510 q 342 853 211 781 q 423 1003 356 940 q 582 1065 490 1065 q 761 1001 689 1065 l 836 1126 q 879 1100 869 1115 l 796 965 q 899 638 899 844 q 786 236 899 431 q 421 -18 638 -18 q 250 33 328 -18 l 183 -85 q 153 -67 164 -82 l 221 56 q 124 198 158 111 q 89 382 89 285 m 518 686 q 576 708 551 686 q 639 792 601 731 q 718 928 681 858 q 557 1017 654 1017 q 435 967 481 1017 q 389 847 389 918 q 426 735 389 783 q 518 686 464 686 m 294 110 q 460 33 364 33 q 732 265 629 33 q 803 607 803 426 q 746 882 803 764 q 294 110 561 576 m 183 442 q 268 142 183 263 q 557 651 494 543 l 556 653 q 492 636 526 636 q 384 687 428 636 q 339 813 340 738 l 336 814 q 238 692 275 769 q 192 557 201 615 q 183 442 183 499 z "},"Ù":{"ha":1207,"x_min":131,"x_max":1353,"o":"m 342 396 q 192 465 254 396 q 131 633 131 535 q 183 808 131 721 q 313 957 235 896 q 594 1064 442 1057 q 699 1000 654 1053 q 614 696 649 840 q 564 346 564 486 q 569 254 564 300 q 590 156 575 208 q 635 72 604 104 q 710 40 665 40 q 1001 515 868 40 q 1114 1013 1061 725 q 1199 1047 1169 1047 q 1217 1029 1217 1047 q 1193 914 1217 1025 q 1106 504 1124 608 q 1074 204 1074 310 q 1140 25 1074 25 q 1237 122 1188 25 q 1325 431 1286 219 l 1353 426 q 1246 76 1310 182 q 1110 -31 1182 -31 q 1013 41 1043 -31 q 982 207 982 113 q 997 375 982 275 l 994 376 q 675 -18 875 -18 q 575 15 618 -18 q 509 103 532 49 q 476 217 486 158 q 465 336 465 275 q 535 765 465 485 q 560 863 544 806 q 583 947 576 919 q 589 986 589 974 q 550 1017 589 1017 q 451 992 511 1017 q 339 922 392 967 q 240 797 275 868 q 204 647 204 725 q 247 499 204 563 q 367 419 289 436 l 365 397 q 342 396 357 396 m 1003 1119 q 746 1257 894 1169 q 759 1283 749 1265 q 776 1306 769 1300 q 1018 1147 897 1217 l 1003 1119 z "},"Ú":{"ha":1207,"x_min":131,"x_max":1353,"o":"m 342 396 q 192 465 254 396 q 131 633 131 535 q 183 808 131 721 q 313 957 235 896 q 594 1064 442 1057 q 699 1000 654 1053 q 614 696 649 840 q 564 346 564 486 q 569 254 564 300 q 590 156 575 208 q 635 72 604 104 q 710 40 665 40 q 1001 515 868 40 q 1114 1013 1061 725 q 1199 1047 1169 1047 q 1217 1029 1217 1047 q 1193 914 1217 1025 q 1106 504 1124 608 q 1074 204 1074 310 q 1140 25 1074 25 q 1237 122 1188 25 q 1325 431 1286 219 l 1353 426 q 1246 76 1310 182 q 1110 -31 1182 -31 q 1013 41 1043 -31 q 982 207 982 113 q 997 375 982 275 l 994 376 q 675 -18 875 -18 q 575 15 618 -18 q 509 103 532 49 q 476 217 486 158 q 465 336 465 275 q 535 765 465 485 q 560 863 544 806 q 583 947 576 919 q 589 986 589 974 q 550 1017 589 1017 q 451 992 511 1017 q 339 922 392 967 q 240 797 275 868 q 204 647 204 725 q 247 499 204 563 q 367 419 289 436 l 365 397 q 342 396 357 396 m 854 1146 l 843 1175 q 1119 1294 967 1224 q 1138 1246 1138 1274 q 854 1146 1004 1194 z "},"Û":{"ha":1207,"x_min":131,"x_max":1353,"o":"m 342 396 q 192 465 254 396 q 131 633 131 535 q 183 808 131 721 q 313 957 235 896 q 594 1064 442 1057 q 699 1000 654 1053 q 614 696 649 840 q 564 346 564 486 q 569 254 564 300 q 590 156 575 208 q 635 72 604 104 q 710 40 665 40 q 1001 515 868 40 q 1114 1013 1061 725 q 1199 1047 1169 1047 q 1217 1029 1217 1047 q 1193 914 1217 1025 q 1106 504 1124 608 q 1074 204 1074 310 q 1140 25 1074 25 q 1237 122 1188 25 q 1325 431 1286 219 l 1353 426 q 1246 76 1310 182 q 1110 -31 1182 -31 q 1013 41 1043 -31 q 982 207 982 113 q 997 375 982 275 l 994 376 q 675 -18 875 -18 q 575 15 618 -18 q 509 103 532 49 q 476 217 486 158 q 465 336 465 275 q 535 765 465 485 q 560 863 544 806 q 583 947 576 919 q 589 986 589 974 q 550 1017 589 1017 q 451 992 511 1017 q 339 922 392 967 q 240 797 275 868 q 204 647 204 725 q 247 499 204 563 q 367 419 289 436 l 365 397 q 342 396 357 396 m 758 1114 l 742 1138 q 946 1308 844 1217 q 964 1317 956 1317 q 983 1307 975 1317 q 1126 1135 1049 1217 l 1106 1113 q 957 1261 1017 1193 q 758 1114 865 1188 z "},"Ü":{"ha":1207,"x_min":131,"x_max":1353,"o":"m 342 396 q 192 465 254 396 q 131 633 131 535 q 183 808 131 721 q 313 957 235 896 q 594 1064 442 1057 q 699 1000 654 1053 q 614 696 649 840 q 564 346 564 486 q 569 254 564 300 q 590 156 575 208 q 635 72 604 104 q 710 40 665 40 q 1001 515 868 40 q 1114 1013 1061 725 q 1199 1047 1169 1047 q 1217 1029 1217 1047 q 1193 914 1217 1025 q 1106 504 1124 608 q 1074 204 1074 310 q 1140 25 1074 25 q 1237 122 1188 25 q 1325 431 1286 219 l 1353 426 q 1246 76 1310 182 q 1110 -31 1182 -31 q 1013 41 1043 -31 q 982 207 982 113 q 997 375 982 275 l 994 376 q 675 -18 875 -18 q 575 15 618 -18 q 509 103 532 49 q 476 217 486 158 q 465 336 465 275 q 535 765 465 485 q 560 863 544 806 q 583 947 576 919 q 589 986 589 974 q 550 1017 589 1017 q 451 992 511 1017 q 339 922 392 967 q 240 797 275 868 q 204 647 204 725 q 247 499 204 563 q 367 419 289 436 l 365 397 q 342 396 357 396 m 1087 1152 q 1078 1143 1087 1152 q 1046 1135 1069 1135 q 1006 1152 1022 1135 q 990 1193 990 1169 q 1006 1234 990 1217 q 1046 1251 1022 1251 q 1087 1234 1069 1251 q 1104 1193 1104 1217 q 1087 1152 1104 1169 m 828 1135 q 787 1151 803 1135 q 771 1193 771 1168 q 787 1235 771 1218 q 828 1251 803 1251 q 868 1234 851 1251 q 885 1193 885 1217 q 868 1152 885 1169 q 828 1135 851 1135 z "},"Ý":{"ha":1133,"x_min":131,"x_max":1169,"o":"m 436 -215 q 532 -26 436 -106 l 549 -46 q 499 -171 499 -90 q 555 -310 499 -254 q 690 -365 611 -365 q 872 -244 804 -365 q 947 43 922 -157 q 969 277 958 133 q 988 492 981 421 l 986 492 q 690 103 883 103 q 572 153 619 103 q 506 269 524 203 q 488 407 488 335 q 544 785 488 549 q 590 992 590 972 q 550 1019 590 1019 q 452 995 513 1019 q 338 925 392 971 q 204 657 204 814 q 249 499 204 568 q 372 415 293 431 l 369 394 q 347 393 363 393 q 194 464 257 393 q 131 635 131 535 q 181 810 131 721 q 310 960 231 899 q 600 1067 440 1060 q 694 1008 653 1056 q 629 750 635 779 q 583 424 583 550 q 594 310 583 365 q 638 206 604 254 q 722 158 671 158 q 972 568 869 158 q 1067 1026 1014 732 q 1149 1057 1121 1057 q 1169 1033 1169 1057 q 1146 917 1169 1026 q 1088 572 1117 776 q 1060 328 1074 469 q 1033 99 1047 186 q 986 -120 1013 -33 q 914 -272 960 -207 q 797 -383 865 -342 q 654 -425 728 -425 q 500 -365 564 -425 q 436 -215 436 -304 m 801 1146 l 790 1175 q 1067 1294 914 1224 q 1085 1246 1085 1274 q 801 1146 951 1194 z "},"Þ":{"ha":908,"x_min":64,"x_max":938,"o":"m 269 219 q 124 285 183 219 q 64 450 64 351 q 112 626 64 540 q 244 775 160 713 q 478 879 350 856 l 499 1018 q 571 1046 536 1046 q 588 1029 588 1046 q 565 888 586 1011 q 742 860 660 888 q 881 766 824 832 q 938 606 938 700 q 885 438 938 514 q 750 310 833 361 q 472 232 628 233 q 460 10 460 92 q 386 -19 408 -19 q 365 14 365 -19 q 418 483 365 136 q 472 839 456 721 q 268 744 358 819 q 169 617 204 690 q 133 467 133 544 q 174 319 133 383 q 293 240 215 254 l 290 221 q 269 219 283 219 m 474 269 q 725 346 629 275 q 815 451 781 386 q 849 589 849 515 q 805 731 849 671 q 697 817 761 790 q 558 846 633 843 q 474 269 499 497 z "},"ß":{"ha":658,"x_min":-256,"x_max":643,"o":"m -82 -381 q 28 -300 -11 -381 q 63 -181 50 -257 q 78 -51 75 -106 q 88 143 82 4 q 126 613 101 450 q 218 874 150 775 q 426 1000 306 1000 q 567 942 510 1000 q 625 806 625 885 q 589 699 625 743 q 486 611 553 656 q 397 543 413 563 q 382 494 382 522 q 408 431 382 460 q 501 349 433 401 q 561 303 544 317 q 602 265 578 289 q 635 219 626 242 q 643 169 643 197 q 571 38 643 89 q 417 -12 499 -12 q 310 21 353 -12 q 267 104 267 54 q 286 156 267 139 q 335 172 306 172 q 329 143 329 160 q 363 63 329 97 q 451 28 397 28 q 538 57 501 28 q 575 129 575 86 q 544 200 575 164 q 436 293 513 236 q 333 381 353 356 q 306 458 306 415 q 308 483 306 471 q 314 506 311 496 q 325 526 317 515 q 338 544 333 538 q 354 562 342 551 q 372 577 367 572 q 392 592 376 582 q 412 606 407 603 q 434 619 417 608 q 456 633 451 631 q 535 698 508 667 q 561 776 561 729 q 511 899 561 844 q 394 954 461 954 q 253 849 306 954 q 222 763 235 811 q 201 642 210 715 q 189 512 193 569 q 177 340 185 454 q 164 153 169 225 q 126 -145 149 -33 q 53 -331 104 -257 q -117 -429 -15 -429 q -216 -392 -176 -429 q -256 -306 -256 -356 q -208 -222 -256 -250 l -197 -231 q -201 -260 -201 -244 q -166 -344 -201 -307 q -82 -381 -131 -381 z "},"à":{"ha":600,"x_min":42,"x_max":746,"o":"m 185 -12 q 83 45 124 -12 q 42 203 42 103 q 70 362 42 285 q 144 490 99 439 q 360 589 231 589 q 513 544 440 589 q 469 210 469 346 q 488 80 469 129 q 540 31 506 31 q 634 126 588 31 q 718 431 681 222 l 746 426 q 518 -14 669 -14 q 422 48 454 -14 q 389 196 389 110 q 393 260 389 225 l 390 260 q 185 -12 308 -12 m 213 36 q 340 210 279 36 q 422 511 382 325 q 321 540 378 540 q 200 492 250 540 q 150 370 169 446 q 131 219 131 294 q 153 87 131 138 q 213 36 175 36 m 410 706 q 192 899 300 792 q 210 922 196 907 q 231 940 224 936 q 432 726 319 836 l 410 706 z "},"á":{"ha":600,"x_min":42,"x_max":746,"o":"m 185 -12 q 83 45 124 -12 q 42 203 42 103 q 70 362 42 285 q 144 490 99 439 q 360 589 231 589 q 513 544 440 589 q 469 210 469 346 q 488 80 469 129 q 540 31 506 31 q 634 126 588 31 q 718 431 681 222 l 746 426 q 518 -14 669 -14 q 422 48 454 -14 q 389 196 389 110 q 393 260 389 225 l 390 260 q 185 -12 308 -12 m 213 36 q 340 210 279 36 q 422 511 382 325 q 321 540 378 540 q 200 492 250 540 q 150 370 169 446 q 131 219 131 294 q 153 87 131 138 q 213 36 175 36 m 296 715 l 278 740 q 507 935 381 818 q 538 893 531 915 q 296 715 414 796 z "},"â":{"ha":600,"x_min":42,"x_max":746,"o":"m 185 -12 q 83 45 124 -12 q 42 203 42 103 q 70 362 42 285 q 144 490 99 439 q 360 589 231 589 q 513 544 440 589 q 469 210 469 346 q 488 80 469 129 q 540 31 506 31 q 634 126 588 31 q 718 431 681 222 l 746 426 q 518 -14 669 -14 q 422 48 454 -14 q 389 196 389 110 q 393 260 389 225 l 390 260 q 185 -12 308 -12 m 213 36 q 340 210 279 36 q 422 511 382 325 q 321 540 378 540 q 200 492 250 540 q 150 370 169 446 q 131 219 131 294 q 153 87 131 138 q 213 36 175 36 m 211 708 l 190 728 q 375 932 283 824 q 396 944 386 944 q 411 931 406 944 q 517 726 457 824 l 493 710 q 383 876 438 783 q 211 708 301 788 z "},"ã":{"ha":600,"x_min":42,"x_max":746,"o":"m 185 -12 q 83 45 124 -12 q 42 203 42 103 q 70 362 42 285 q 144 490 99 439 q 360 589 231 589 q 513 544 440 589 q 469 210 469 346 q 488 80 469 129 q 540 31 506 31 q 634 126 588 31 q 718 431 681 222 l 746 426 q 518 -14 669 -14 q 422 48 454 -14 q 389 196 389 110 q 393 260 389 225 l 390 260 q 185 -12 308 -12 m 213 36 q 340 210 279 36 q 422 511 382 325 q 321 540 378 540 q 200 492 250 540 q 150 370 169 446 q 131 219 131 294 q 153 87 131 138 q 213 36 175 36 m 201 738 l 183 743 q 217 829 189 792 q 292 867 246 867 q 379 832 326 867 q 458 800 428 800 q 532 869 511 800 l 551 864 q 517 778 546 815 q 442 742 489 742 q 354 775 410 742 q 275 807 306 807 q 201 738 225 807 z "},"ä":{"ha":600,"x_min":42,"x_max":746,"o":"m 185 -12 q 83 45 124 -12 q 42 203 42 103 q 70 362 42 285 q 144 490 99 439 q 360 589 231 589 q 513 544 440 589 q 469 210 469 346 q 488 80 469 129 q 540 31 506 31 q 634 126 588 31 q 718 431 681 222 l 746 426 q 518 -14 669 -14 q 422 48 454 -14 q 389 196 389 110 q 393 260 389 225 l 390 260 q 185 -12 308 -12 m 213 36 q 340 210 279 36 q 422 511 382 325 q 321 540 378 540 q 200 492 250 540 q 150 370 169 446 q 131 219 131 294 q 153 87 131 138 q 213 36 175 36 m 515 759 q 506 750 515 759 q 474 742 497 742 q 434 759 450 742 q 418 800 418 776 q 434 841 418 824 q 474 858 450 858 q 515 841 497 858 q 532 800 532 824 q 515 759 532 776 m 256 742 q 215 758 231 742 q 199 800 199 775 q 215 842 199 825 q 256 858 231 858 q 296 841 279 858 q 313 800 313 824 q 296 759 313 776 q 256 742 279 742 z "},"å":{"ha":600,"x_min":42,"x_max":746,"o":"m 185 -12 q 83 45 124 -12 q 42 203 42 103 q 70 362 42 285 q 144 490 99 439 q 360 589 231 589 q 513 544 440 589 q 469 210 469 346 q 488 80 469 129 q 540 31 506 31 q 634 126 588 31 q 718 431 681 222 l 746 426 q 518 -14 669 -14 q 422 48 454 -14 q 389 196 389 110 q 393 260 389 225 l 390 260 q 185 -12 308 -12 m 213 36 q 340 210 279 36 q 422 511 382 325 q 321 540 378 540 q 200 492 250 540 q 150 370 169 446 q 131 219 131 294 q 153 87 131 138 q 213 36 175 36 m 358 715 q 285 744 314 715 q 257 817 257 772 q 294 910 257 869 q 385 951 332 951 q 456 923 428 951 q 483 850 483 894 q 448 756 483 797 q 358 715 413 715 m 371 749 q 426 774 406 749 q 447 833 447 799 q 426 893 447 867 q 371 919 406 919 q 317 894 338 919 q 296 836 296 869 q 317 775 296 801 q 371 749 338 749 z "},"æ":{"ha":760,"x_min":42,"x_max":906,"o":"m 189 -12 q 84 49 126 -12 q 42 214 42 110 q 136 486 42 374 q 354 589 226 589 q 506 547 433 589 l 497 521 l 500 519 q 647 590 574 590 q 719 563 692 590 q 746 490 746 536 q 667 347 746 413 q 454 250 579 276 q 503 94 457 154 q 615 33 550 33 q 772 136 699 33 q 879 431 846 239 l 906 426 q 781 98 871 208 q 585 -12 690 -12 q 444 50 503 -12 q 376 206 385 113 l 374 206 q 189 -12 300 -12 m 456 283 q 524 302 489 289 q 595 338 560 315 q 653 395 631 360 q 676 471 676 431 q 617 543 676 543 q 506 461 554 543 q 456 283 460 385 m 218 36 q 280 76 251 36 q 340 208 308 117 q 421 511 385 338 q 318 542 374 542 q 193 488 243 542 q 131 232 131 388 q 154 92 131 147 q 218 36 178 36 z "},"ç":{"ha":451,"x_min":46,"x_max":597,"o":"m 147 -117 q 203 -3 192 -28 q 90 82 133 18 q 46 239 46 146 q 157 510 46 399 q 329 594 242 594 q 415 563 383 594 q 447 490 447 531 q 427 440 447 458 q 375 421 407 421 q 376 442 376 429 q 356 519 376 492 q 301 547 336 547 q 190 468 239 547 q 136 258 136 383 q 181 97 136 160 q 293 33 225 33 q 456 132 376 33 q 569 431 535 231 l 597 426 q 465 95 558 203 q 264 -12 372 -12 q 233 -10 256 -12 l 207 -69 q 308 -175 308 -108 q 176 -340 308 -249 l 160 -321 q 246 -204 246 -257 q 147 -117 246 -147 z "},"è":{"ha":454,"x_min":44,"x_max":600,"o":"m 44 240 q 75 388 44 315 q 163 514 106 461 q 326 590 242 590 q 398 563 371 590 q 425 490 425 536 q 338 339 425 407 q 135 249 251 272 q 184 94 136 154 q 301 33 232 33 q 463 135 386 33 q 572 431 539 236 l 600 426 q 470 99 563 210 q 272 -12 378 -12 q 112 58 179 -12 q 44 240 44 128 m 135 283 q 203 302 168 289 q 274 338 239 315 q 333 395 310 360 q 356 471 356 431 q 296 543 356 543 q 186 460 233 543 q 135 283 139 381 m 404 706 q 186 899 294 792 q 204 922 190 907 q 225 940 218 936 q 426 726 314 836 l 404 706 z "},"é":{"ha":454,"x_min":44,"x_max":600,"o":"m 44 240 q 75 388 44 315 q 163 514 106 461 q 326 590 242 590 q 398 563 371 590 q 425 490 425 536 q 338 339 425 407 q 135 249 251 272 q 184 94 136 154 q 301 33 232 33 q 463 135 386 33 q 572 431 539 236 l 600 426 q 470 99 563 210 q 272 -12 378 -12 q 112 58 179 -12 q 44 240 44 128 m 135 283 q 203 302 168 289 q 274 338 239 315 q 333 395 310 360 q 356 471 356 431 q 296 543 356 543 q 186 460 233 543 q 135 283 139 381 m 290 715 l 272 740 q 501 935 375 818 q 532 893 525 915 q 290 715 408 796 z "},"ê":{"ha":454,"x_min":44,"x_max":600,"o":"m 44 240 q 75 388 44 315 q 163 514 106 461 q 326 590 242 590 q 398 563 371 590 q 425 490 425 536 q 338 339 425 407 q 135 249 251 272 q 184 94 136 154 q 301 33 232 33 q 463 135 386 33 q 572 431 539 236 l 600 426 q 470 99 563 210 q 272 -12 378 -12 q 112 58 179 -12 q 44 240 44 128 m 135 283 q 203 302 168 289 q 274 338 239 315 q 333 395 310 360 q 356 471 356 431 q 296 543 356 543 q 186 460 233 543 q 135 283 139 381 m 206 708 l 185 728 q 369 932 278 824 q 390 944 381 944 q 406 931 400 944 q 511 726 451 824 l 488 710 q 378 876 432 783 q 206 708 296 788 z "},"ë":{"ha":454,"x_min":44,"x_max":600,"o":"m 44 240 q 75 388 44 315 q 163 514 106 461 q 326 590 242 590 q 398 563 371 590 q 425 490 425 536 q 338 339 425 407 q 135 249 251 272 q 184 94 136 154 q 301 33 232 33 q 463 135 386 33 q 572 431 539 236 l 600 426 q 470 99 563 210 q 272 -12 378 -12 q 112 58 179 -12 q 44 240 44 128 m 135 283 q 203 302 168 289 q 274 338 239 315 q 333 395 310 360 q 356 471 356 431 q 296 543 356 543 q 186 460 233 543 q 135 283 139 381 m 509 759 q 500 750 509 759 q 468 742 492 742 q 428 759 444 742 q 413 800 413 776 q 428 841 413 824 q 468 858 444 858 q 509 841 492 858 q 526 800 526 824 q 509 759 526 776 m 250 742 q 209 758 225 742 q 193 800 193 775 q 209 842 193 825 q 250 858 225 858 q 290 841 274 858 q 307 800 307 824 q 290 759 307 776 q 250 742 274 742 z "},"ì":{"ha":304,"x_min":36,"x_max":450,"o":"m 214 -11 q 120 38 157 -11 q 83 179 83 86 q 108 382 83 246 q 138 561 132 518 q 206 588 181 588 q 225 563 225 588 q 206 453 225 543 q 168 178 168 268 q 187 72 168 111 q 240 32 206 32 q 422 431 350 32 l 450 426 q 349 85 407 182 q 214 -11 292 -11 m 254 706 q 36 899 144 792 q 54 922 40 907 q 75 940 68 936 q 276 726 164 836 l 254 706 z "},"í":{"ha":304,"x_min":83,"x_max":450,"o":"m 214 -11 q 120 38 157 -11 q 83 179 83 86 q 108 382 83 246 q 138 561 132 518 q 206 588 181 588 q 225 563 225 588 q 206 453 225 543 q 168 178 168 268 q 187 72 168 111 q 240 32 206 32 q 422 431 350 32 l 450 426 q 349 85 407 182 q 214 -11 292 -11 m 140 715 l 122 740 q 351 935 225 818 q 382 893 375 915 q 140 715 258 796 z "},"î":{"ha":304,"x_min":47,"x_max":450,"o":"m 214 -11 q 120 38 157 -11 q 83 179 83 86 q 108 382 83 246 q 138 561 132 518 q 206 588 181 588 q 225 563 225 588 q 206 453 225 543 q 168 178 168 268 q 187 72 168 111 q 240 32 206 32 q 422 431 350 32 l 450 426 q 349 85 407 182 q 214 -11 292 -11 m 68 708 l 47 728 q 232 932 140 824 q 253 944 242 944 q 268 931 263 944 q 374 726 314 824 l 350 710 q 240 876 294 783 q 68 708 158 788 z "},"ï":{"ha":304,"x_min":43,"x_max":450,"o":"m 214 -11 q 120 38 157 -11 q 83 179 83 86 q 108 382 83 246 q 138 561 132 518 q 206 588 181 588 q 225 563 225 588 q 206 453 225 543 q 168 178 168 268 q 187 72 168 111 q 240 32 206 32 q 422 431 350 32 l 450 426 q 349 85 407 182 q 214 -11 292 -11 m 359 759 q 350 750 359 759 q 318 742 342 742 q 278 759 294 742 q 263 800 263 776 q 278 841 263 824 q 318 858 294 858 q 359 841 342 858 q 376 800 376 824 q 359 759 376 776 m 100 742 q 59 758 75 742 q 43 800 43 775 q 59 842 43 825 q 100 858 75 858 q 140 841 124 858 q 157 800 157 824 q 140 759 157 776 q 100 742 124 742 z "},"ð":{"ha":550,"x_min":54,"x_max":525,"o":"m 54 218 q 144 481 54 372 q 339 579 226 579 q 438 554 390 579 q 364 794 419 704 l 218 729 q 203 764 203 749 l 340 829 q 157 922 267 922 q 108 918 129 922 l 104 947 q 182 956 151 956 q 399 857 310 956 l 486 897 q 503 858 503 881 l 425 824 q 525 475 525 683 q 422 113 525 260 q 225 -14 331 -14 q 102 50 150 -14 q 54 218 54 114 m 257 36 q 385 143 332 36 q 444 438 444 260 q 443 486 444 469 q 321 529 383 529 q 199 478 249 529 q 143 243 143 388 q 174 92 143 149 q 257 36 204 36 z "},"ñ":{"ha":651,"x_min":79,"x_max":797,"o":"m 129 -10 q 79 132 79 -10 q 106 370 79 210 q 136 561 132 531 q 207 588 182 588 q 225 564 225 588 q 192 390 225 553 q 158 133 158 226 q 161 85 158 99 l 165 85 q 231 340 182 218 q 454 592 322 575 q 571 517 529 579 q 549 423 565 492 q 523 300 532 354 q 514 196 514 246 q 534 76 514 121 q 589 32 554 32 q 685 126 638 32 q 769 431 733 219 l 797 426 q 696 85 756 182 q 564 -11 636 -11 q 467 41 506 -11 q 429 197 429 93 q 450 365 429 265 q 471 483 471 465 q 428 532 471 532 q 339 471 385 532 q 258 322 293 410 q 185 8 207 193 q 129 -10 150 -10 m 242 738 l 224 743 q 258 829 229 792 q 332 867 286 867 q 419 832 367 867 q 499 800 467 800 q 572 869 551 800 l 592 864 q 558 778 586 815 q 482 742 529 742 q 394 775 450 742 q 315 807 346 807 q 242 738 265 807 z "},"ò":{"ha":583,"x_min":47,"x_max":729,"o":"m 47 233 q 89 406 47 326 q 201 524 131 485 l 214 506 q 156 408 178 476 q 133 269 133 340 q 176 101 133 169 q 288 33 219 33 q 378 74 340 33 q 436 175 417 115 q 290 263 349 193 q 232 425 232 333 q 271 547 232 500 q 367 594 310 594 q 478 533 432 594 q 525 360 525 472 q 501 213 525 286 q 701 431 668 218 l 729 426 q 642 229 711 289 q 485 169 572 169 q 392 40 454 93 q 251 -14 329 -14 q 106 53 165 -14 q 47 233 47 119 m 447 218 q 457 306 457 258 q 419 470 457 400 q 335 540 382 540 q 285 508 303 540 q 268 433 268 476 q 319 297 268 358 q 447 218 369 235 m 439 706 q 221 899 329 792 q 260 940 233 922 q 461 726 349 836 l 439 706 z "},"ó":{"ha":583,"x_min":47,"x_max":729,"o":"m 47 233 q 89 406 47 326 q 201 524 131 485 l 214 506 q 156 408 178 476 q 133 269 133 340 q 176 101 133 169 q 288 33 219 33 q 378 74 340 33 q 436 175 417 115 q 290 263 349 193 q 232 425 232 333 q 271 547 232 500 q 367 594 310 594 q 478 533 432 594 q 525 360 525 472 q 501 213 525 286 q 701 431 668 218 l 729 426 q 642 229 711 289 q 485 169 572 169 q 392 40 454 93 q 251 -14 329 -14 q 106 53 165 -14 q 47 233 47 119 m 447 218 q 457 306 457 258 q 419 470 457 400 q 335 540 382 540 q 285 508 303 540 q 268 433 268 476 q 319 297 268 358 q 447 218 369 235 m 325 715 l 307 740 q 536 935 410 818 q 567 893 560 915 q 325 715 443 796 z "},"ô":{"ha":583,"x_min":47,"x_max":729,"o":"m 47 233 q 89 406 47 326 q 201 524 131 485 l 214 506 q 156 408 178 476 q 133 269 133 340 q 176 101 133 169 q 288 33 219 33 q 378 74 340 33 q 436 175 417 115 q 290 263 349 193 q 232 425 232 333 q 271 547 232 500 q 367 594 310 594 q 478 533 432 594 q 525 360 525 472 q 501 213 525 286 q 701 431 668 218 l 729 426 q 642 229 711 289 q 485 169 572 169 q 392 40 454 93 q 251 -14 329 -14 q 106 53 165 -14 q 47 233 47 119 m 447 218 q 457 306 457 258 q 419 470 457 400 q 335 540 382 540 q 285 508 303 540 q 268 433 268 476 q 319 297 268 358 q 447 218 369 235 m 240 708 l 219 728 q 404 932 313 824 q 425 944 414 944 q 440 931 435 944 q 546 726 486 824 l 522 710 q 413 876 467 783 q 240 708 331 788 z "},"õ":{"ha":583,"x_min":47,"x_max":729,"o":"m 47 233 q 89 406 47 326 q 201 524 131 485 l 214 506 q 156 408 178 476 q 133 269 133 340 q 176 101 133 169 q 288 33 219 33 q 378 74 340 33 q 436 175 417 115 q 290 263 349 193 q 232 425 232 333 q 271 547 232 500 q 367 594 310 594 q 478 533 432 594 q 525 360 525 472 q 501 213 525 286 q 701 431 668 218 l 729 426 q 642 229 711 289 q 485 169 572 169 q 392 40 454 93 q 251 -14 329 -14 q 106 53 165 -14 q 47 233 47 119 m 447 218 q 457 306 457 258 q 419 470 457 400 q 335 540 382 540 q 285 508 303 540 q 268 433 268 476 q 319 297 268 358 q 447 218 369 235 m 231 738 l 213 743 q 247 829 218 792 q 321 867 275 867 q 408 832 356 867 q 488 800 456 800 q 561 869 540 800 l 581 864 q 547 778 575 815 q 471 742 518 742 q 383 775 439 742 q 304 807 336 807 q 231 738 254 807 z "},"ö":{"ha":583,"x_min":47,"x_max":729,"o":"m 47 233 q 89 406 47 326 q 201 524 131 485 l 214 506 q 156 408 178 476 q 133 269 133 340 q 176 101 133 169 q 288 33 219 33 q 378 74 340 33 q 436 175 417 115 q 290 263 349 193 q 232 425 232 333 q 271 547 232 500 q 367 594 310 594 q 478 533 432 594 q 525 360 525 472 q 501 213 525 286 q 701 431 668 218 l 729 426 q 642 229 711 289 q 485 169 572 169 q 392 40 454 93 q 251 -14 329 -14 q 106 53 165 -14 q 47 233 47 119 m 447 218 q 457 306 457 258 q 419 470 457 400 q 335 540 382 540 q 285 508 303 540 q 268 433 268 476 q 319 297 268 358 q 447 218 369 235 m 544 759 q 535 750 544 759 q 503 742 526 742 q 463 759 479 742 q 447 800 447 776 q 463 841 447 824 q 503 858 479 858 q 544 841 526 858 q 561 800 561 824 q 544 759 561 776 m 285 742 q 244 758 260 742 q 228 800 228 775 q 244 842 228 825 q 285 858 260 858 q 325 841 308 858 q 342 800 342 824 q 325 759 342 776 q 285 742 308 742 z "},"÷":{"ha":775,"x_min":168,"x_max":731,"o":"m 463 540 q 420 558 438 540 q 403 600 403 575 q 420 642 403 625 q 463 660 438 660 q 503 642 486 660 q 521 600 521 625 q 503 558 521 575 q 463 540 486 540 m 171 326 q 168 343 168 335 q 171 360 168 354 l 728 379 q 731 358 731 371 q 728 338 731 349 l 171 326 m 393 59 q 385 68 393 59 q 376 101 376 76 q 393 144 376 126 q 435 161 410 161 q 476 144 460 161 q 493 101 493 126 q 476 59 493 76 q 435 42 460 42 q 393 59 410 42 z "},"ø":{"ha":551,"x_min":40,"x_max":585,"o":"m 43 229 q 76 372 43 306 q 171 476 108 438 q 239 561 193 528 q 344 594 285 594 q 476 533 428 594 q 554 626 518 586 q 585 596 572 617 l 499 499 q 528 358 528 440 q 460 115 528 224 q 256 -14 379 -14 q 139 24 189 -14 q 71 -81 92 -46 q 40 -58 51 -74 q 72 -10 47 -49 q 111 47 97 28 q 43 229 43 115 m 288 350 q 343 372 319 350 q 421 464 367 393 q 307 540 376 540 q 231 510 258 540 q 204 438 204 479 q 228 374 204 397 q 288 350 251 350 m 163 122 q 300 310 249 243 l 299 313 q 256 306 281 306 q 183 335 210 306 q 157 406 157 364 l 154 407 q 129 278 129 361 q 163 122 129 189 m 183 89 q 290 33 228 33 q 422 133 375 33 q 460 303 460 211 q 438 426 460 368 q 183 89 319 283 z "},"ù":{"ha":628,"x_min":76,"x_max":774,"o":"m 76 164 q 98 317 76 207 q 119 490 119 428 q 110 557 119 535 q 174 588 150 588 q 208 510 208 588 q 185 347 208 468 q 161 169 161 226 q 181 72 161 108 q 235 36 200 36 q 389 260 317 36 q 458 563 435 399 q 525 588 499 588 q 544 561 544 588 q 524 428 544 540 q 493 188 493 275 q 512 75 493 118 q 565 32 531 32 q 746 431 672 32 l 774 426 q 724 212 751 300 q 667 76 697 124 q 606 9 636 29 q 540 -11 576 -11 q 451 37 486 -11 q 417 181 417 85 q 421 254 417 222 l 418 256 q 208 -12 338 -12 q 111 38 146 -12 q 76 164 76 89 m 432 706 q 214 899 322 792 q 232 922 218 907 q 253 940 246 936 q 454 726 342 836 l 432 706 z "},"ú":{"ha":628,"x_min":76,"x_max":774,"o":"m 76 164 q 98 317 76 207 q 119 490 119 428 q 110 557 119 535 q 174 588 150 588 q 208 510 208 588 q 185 347 208 468 q 161 169 161 226 q 181 72 161 108 q 235 36 200 36 q 389 260 317 36 q 458 563 435 399 q 525 588 499 588 q 544 561 544 588 q 524 428 544 540 q 493 188 493 275 q 512 75 493 118 q 565 32 531 32 q 746 431 672 32 l 774 426 q 724 212 751 300 q 667 76 697 124 q 606 9 636 29 q 540 -11 576 -11 q 451 37 486 -11 q 417 181 417 85 q 421 254 417 222 l 418 256 q 208 -12 338 -12 q 111 38 146 -12 q 76 164 76 89 m 318 715 l 300 740 q 529 935 403 818 q 560 893 553 915 q 318 715 436 796 z "},"û":{"ha":628,"x_min":76,"x_max":774,"o":"m 76 164 q 98 317 76 207 q 119 490 119 428 q 110 557 119 535 q 174 588 150 588 q 208 510 208 588 q 185 347 208 468 q 161 169 161 226 q 181 72 161 108 q 235 36 200 36 q 389 260 317 36 q 458 563 435 399 q 525 588 499 588 q 544 561 544 588 q 524 428 544 540 q 493 188 493 275 q 512 75 493 118 q 565 32 531 32 q 746 431 672 32 l 774 426 q 724 212 751 300 q 667 76 697 124 q 606 9 636 29 q 540 -11 576 -11 q 451 37 486 -11 q 417 181 417 85 q 421 254 417 222 l 418 256 q 208 -12 338 -12 q 111 38 146 -12 q 76 164 76 89 m 233 708 l 213 728 q 397 932 306 824 q 418 944 408 944 q 433 931 428 944 q 539 726 479 824 l 515 710 q 406 876 460 783 q 233 708 324 788 z "},"ü":{"ha":628,"x_min":76,"x_max":774,"o":"m 76 164 q 98 317 76 207 q 119 490 119 428 q 110 557 119 535 q 174 588 150 588 q 208 510 208 588 q 185 347 208 468 q 161 169 161 226 q 181 72 161 108 q 235 36 200 36 q 389 260 317 36 q 458 563 435 399 q 525 588 499 588 q 544 561 544 588 q 524 428 544 540 q 493 188 493 275 q 512 75 493 118 q 565 32 531 32 q 746 431 672 32 l 774 426 q 724 212 751 300 q 667 76 697 124 q 606 9 636 29 q 540 -11 576 -11 q 451 37 486 -11 q 417 181 417 85 q 421 254 417 222 l 418 256 q 208 -12 338 -12 q 111 38 146 -12 q 76 164 76 89 m 537 759 q 528 750 537 759 q 496 742 519 742 q 456 759 472 742 q 440 800 440 776 q 456 841 440 824 q 496 858 472 858 q 537 841 519 858 q 554 800 554 824 q 537 759 554 776 m 278 742 q 237 758 253 742 q 221 800 221 775 q 237 842 221 825 q 278 858 253 858 q 318 841 301 858 q 335 800 335 824 q 318 759 335 776 q 278 742 301 742 z "},"ý":{"ha":563,"x_min":4,"x_max":539,"o":"m 76 164 q 98 317 76 207 q 119 490 119 428 q 110 557 119 535 q 174 588 150 588 q 208 510 208 588 q 185 347 208 468 q 161 169 161 226 q 181 72 161 108 q 233 36 200 36 q 383 260 311 36 q 453 563 431 413 q 519 588 493 588 q 539 561 539 588 q 519 428 539 551 q 472 74 496 274 q 367 -315 440 -207 q 176 -429 289 -429 q 53 -377 103 -429 q 4 -257 4 -325 q 72 -121 4 -172 l 85 -135 q 60 -217 60 -171 q 99 -333 60 -286 q 199 -381 139 -381 q 329 -286 285 -381 q 386 -22 361 -218 q 413 242 400 82 l 408 242 q 206 -12 331 -12 q 110 38 144 -12 q 76 164 76 89 m 289 715 l 271 740 q 500 935 374 818 q 531 893 524 915 q 289 715 407 796 z "},"þ":{"ha":557,"x_min":-31,"x_max":532,"o":"m 25 -128 q 147 638 86 206 q 194 1033 164 760 q 271 1065 240 1065 q 288 1043 288 1065 q 242 747 288 1004 q 219 609 231 685 q 191 438 207 533 q 165 281 175 342 l 168 281 q 246 476 203 399 q 393 589 310 589 q 497 531 461 589 q 532 390 532 472 q 436 106 532 228 q 214 -14 343 -14 q 132 10 168 -14 q 58 -419 104 -162 q -14 -453 18 -453 q -31 -440 -31 -453 q -21 -378 -31 -433 q 3 -245 -11 -324 q 25 -128 18 -167 m 142 68 q 256 26 181 26 q 390 119 339 26 q 444 364 444 222 q 427 481 444 426 q 365 536 410 536 q 229 367 297 536 q 142 68 181 244 z "},"ÿ":{"ha":563,"x_min":4,"x_max":539,"o":"m 76 164 q 98 317 76 207 q 119 490 119 428 q 110 557 119 535 q 174 588 150 588 q 208 510 208 588 q 185 347 208 468 q 161 169 161 226 q 181 72 161 108 q 233 36 200 36 q 383 260 311 36 q 453 563 431 413 q 519 588 493 588 q 539 561 539 588 q 519 428 539 551 q 472 74 496 274 q 367 -315 440 -207 q 176 -429 289 -429 q 53 -377 103 -429 q 4 -257 4 -325 q 72 -121 4 -172 l 85 -135 q 60 -217 60 -171 q 99 -333 60 -286 q 199 -381 139 -381 q 329 -286 285 -381 q 386 -22 361 -218 q 413 242 400 82 l 408 242 q 206 -12 331 -12 q 110 38 144 -12 q 76 164 76 89 m 508 759 q 499 750 508 759 q 467 742 490 742 q 427 759 443 742 q 411 800 411 776 q 427 841 411 824 q 467 858 443 858 q 508 841 490 858 q 525 800 525 824 q 508 759 525 776 m 249 742 q 208 758 224 742 q 192 800 192 775 q 208 842 192 825 q 249 858 224 858 q 289 841 272 858 q 306 800 306 824 q 289 759 306 776 q 249 742 272 742 z "},"Ā":{"ha":1074,"x_min":40,"x_max":1219,"o":"m 40 132 q 96 272 40 201 q 235 385 151 342 q 503 447 344 442 q 558 599 506 456 q 689 917 644 839 q 847 1051 761 1039 q 963 997 919 1042 q 904 383 904 654 q 919 171 904 254 q 1008 25 946 25 q 1068 61 1038 25 q 1133 192 1099 97 q 1192 431 1167 288 l 1219 426 q 1113 78 1176 183 q 981 -28 1050 -28 q 835 138 878 -28 q 810 386 810 232 q 582 400 682 400 q 542 399 556 400 q 451 189 501 278 q 331 40 399 97 q 194 -18 264 -18 q 85 25 131 -18 q 40 132 40 68 m 558 449 q 810 422 664 449 q 838 776 813 588 q 858 944 858 929 q 822 988 858 988 q 763 954 792 988 q 660 758 711 896 q 558 449 640 708 m 86 144 q 115 75 86 103 q 185 47 143 47 q 397 224 289 47 q 482 396 440 293 q 257 340 350 382 q 134 252 182 306 q 86 144 86 199 m 725 1147 q 721 1165 721 1153 q 724 1181 721 1175 l 1028 1203 q 1032 1183 1032 1194 q 1026 1164 1032 1174 l 725 1147 z "},"ā":{"ha":600,"x_min":42,"x_max":746,"o":"m 185 -12 q 83 45 124 -12 q 42 203 42 103 q 70 362 42 285 q 144 490 99 439 q 360 589 231 589 q 513 544 440 589 q 469 210 469 346 q 488 80 469 129 q 540 31 506 31 q 634 126 588 31 q 718 431 681 222 l 746 426 q 518 -14 669 -14 q 422 48 454 -14 q 389 196 389 110 q 393 260 389 225 l 390 260 q 185 -12 308 -12 m 213 36 q 340 210 279 36 q 422 511 382 325 q 321 540 378 540 q 200 492 250 540 q 150 370 169 446 q 131 219 131 294 q 153 87 131 138 q 213 36 175 36 m 211 754 q 207 772 207 761 q 210 788 207 782 l 514 810 q 518 790 518 801 q 513 771 518 781 l 211 754 z "},"Ă":{"ha":1074,"x_min":40,"x_max":1219,"o":"m 40 132 q 96 272 40 201 q 235 385 151 342 q 503 447 344 442 q 558 599 506 456 q 689 917 644 839 q 847 1051 761 1039 q 963 997 919 1042 q 904 383 904 654 q 919 171 904 254 q 1008 25 946 25 q 1068 61 1038 25 q 1133 192 1099 97 q 1192 431 1167 288 l 1219 426 q 1113 78 1176 183 q 981 -28 1050 -28 q 835 138 878 -28 q 810 386 810 232 q 582 400 682 400 q 542 399 556 400 q 451 189 501 278 q 331 40 399 97 q 194 -18 264 -18 q 85 25 131 -18 q 40 132 40 68 m 558 449 q 810 422 664 449 q 838 776 813 588 q 858 944 858 929 q 822 988 858 988 q 763 954 792 988 q 660 758 711 896 q 558 449 640 708 m 86 144 q 115 75 86 103 q 185 47 143 47 q 397 224 289 47 q 482 396 440 293 q 257 340 350 382 q 134 252 182 306 q 86 144 86 199 m 861 1111 q 765 1149 808 1111 q 707 1250 722 1188 q 771 1286 729 1279 q 813 1190 782 1229 q 883 1151 844 1151 q 953 1187 924 1151 q 996 1285 983 1222 l 1026 1278 q 966 1155 1011 1199 q 861 1111 921 1111 z "},"ă":{"ha":600,"x_min":42,"x_max":746,"o":"m 185 -12 q 83 45 124 -12 q 42 203 42 103 q 70 362 42 285 q 144 490 99 439 q 360 589 231 589 q 513 544 440 589 q 469 210 469 346 q 488 80 469 129 q 540 31 506 31 q 634 126 588 31 q 718 431 681 222 l 746 426 q 518 -14 669 -14 q 422 48 454 -14 q 389 196 389 110 q 393 260 389 225 l 390 260 q 185 -12 308 -12 m 213 36 q 340 210 279 36 q 422 511 382 325 q 321 540 378 540 q 200 492 250 540 q 150 370 169 446 q 131 219 131 294 q 153 87 131 138 q 213 36 175 36 m 347 718 q 251 756 294 718 q 193 857 208 794 q 257 893 215 886 q 299 797 268 836 q 369 758 331 758 q 440 794 410 758 q 482 892 469 829 l 513 885 q 452 762 497 806 q 347 718 407 718 z "},"Ą":{"ha":1074,"x_min":40,"x_max":1219,"o":"m 40 132 q 96 272 40 201 q 235 385 151 342 q 503 447 344 442 l 558 599 q 689 917 644 839 q 847 1051 761 1039 q 963 997 919 1042 q 904 383 904 654 q 919 171 904 254 q 1008 25 946 25 q 1068 61 1038 25 q 1133 192 1099 97 q 1192 431 1167 288 l 1219 426 q 1025 -17 1153 44 q 906 -196 906 -74 q 931 -282 906 -247 q 999 -317 956 -317 q 1086 -232 1058 -317 q 1110 -250 1110 -232 q 1072 -315 1110 -281 q 978 -350 1035 -350 q 876 -311 915 -350 q 838 -210 838 -272 q 950 -25 838 -94 l 949 -22 q 835 138 869 -1 q 810 386 810 232 q 582 400 682 400 q 542 399 556 400 q 451 189 501 278 q 331 40 399 97 q 194 -18 264 -18 q 85 25 131 -18 q 40 132 40 68 m 558 449 q 810 422 664 449 q 838 776 813 588 q 858 944 858 929 q 822 988 858 988 q 763 954 792 988 q 660 758 711 896 q 558 449 640 708 m 86 144 q 115 75 86 103 q 185 47 143 47 q 397 224 289 47 q 482 396 440 293 q 257 340 350 382 q 134 252 182 306 q 86 144 86 199 z "},"ą":{"ha":600,"x_min":42,"x_max":746,"o":"m 513 544 q 469 210 469 346 q 488 79 469 128 q 542 31 507 31 q 635 126 588 31 q 718 431 682 222 l 746 426 q 551 -8 678 35 q 449 -84 488 -29 q 410 -196 410 -139 q 435 -282 410 -247 q 501 -317 460 -317 q 590 -232 560 -317 q 614 -250 614 -232 q 576 -315 614 -281 q 482 -350 539 -350 q 381 -311 419 -350 q 342 -210 342 -272 q 380 -99 342 -153 q 483 -10 418 -46 l 483 -7 q 415 64 440 10 q 389 196 389 118 q 393 260 389 225 l 390 260 q 185 -12 308 -12 q 83 45 124 -12 q 42 203 42 103 q 70 362 42 285 q 144 490 99 439 q 360 589 231 589 q 513 544 440 589 m 213 36 q 340 210 279 36 q 422 511 382 325 q 321 540 378 540 q 200 492 250 540 q 150 370 169 446 q 131 219 131 294 q 153 87 131 138 q 213 36 175 36 z "},"Ć":{"ha":761,"x_min":96,"x_max":831,"o":"m 422 -18 q 185 103 274 -18 q 96 407 96 225 q 231 833 96 635 q 393 1001 301 938 q 583 1065 485 1065 q 760 992 689 1065 q 831 810 831 919 q 767 625 831 704 q 613 546 704 546 q 503 585 549 546 q 458 682 458 624 q 510 775 458 740 l 522 768 q 511 697 511 728 q 542 613 511 643 q 617 582 572 582 q 723 644 681 582 q 765 793 765 706 q 712 956 765 889 q 565 1022 658 1022 q 399 957 474 1022 q 276 792 325 892 q 193 438 193 622 q 266 149 193 267 q 460 31 339 31 q 626 108 557 31 q 711 303 694 185 l 733 301 q 736 264 736 279 q 642 64 736 146 q 422 -18 547 -18 m 488 1146 l 476 1175 q 753 1294 600 1224 q 771 1246 771 1274 q 488 1146 638 1194 z "},"ć":{"ha":451,"x_min":46,"x_max":597,"o":"m 46 239 q 157 510 46 399 q 329 594 242 594 q 415 563 383 594 q 447 490 447 531 q 427 440 447 458 q 375 421 407 421 q 376 442 376 429 q 356 519 376 492 q 301 547 336 547 q 190 468 239 547 q 136 258 136 383 q 181 97 136 160 q 293 33 225 33 q 456 132 376 33 q 569 431 535 231 l 597 426 q 465 95 558 203 q 264 -12 372 -12 q 110 57 174 -12 q 46 239 46 126 m 275 715 l 257 740 q 486 935 360 818 q 517 893 510 915 q 275 715 393 796 z "},"Ĉ":{"ha":761,"x_min":96,"x_max":831,"o":"m 422 -18 q 185 103 274 -18 q 96 407 96 225 q 231 833 96 635 q 393 1001 301 938 q 583 1065 485 1065 q 760 992 689 1065 q 831 810 831 919 q 767 625 831 704 q 613 546 704 546 q 503 585 549 546 q 458 682 458 624 q 510 775 458 740 l 522 768 q 511 697 511 728 q 542 613 511 643 q 617 582 572 582 q 723 644 681 582 q 765 793 765 706 q 712 956 765 889 q 565 1022 658 1022 q 399 957 474 1022 q 276 792 325 892 q 193 438 193 622 q 266 149 193 267 q 460 31 339 31 q 626 108 557 31 q 711 303 694 185 l 733 301 q 736 264 736 279 q 642 64 736 146 q 422 -18 547 -18 m 422 1114 l 406 1138 q 610 1308 508 1217 q 628 1317 621 1317 q 647 1307 639 1317 q 790 1135 713 1217 l 769 1113 q 621 1261 681 1193 q 422 1114 529 1188 z "},"ĉ":{"ha":451,"x_min":46,"x_max":597,"o":"m 46 239 q 157 510 46 399 q 329 594 242 594 q 415 563 383 594 q 447 490 447 531 q 427 440 447 458 q 375 421 407 421 q 376 442 376 429 q 356 519 376 492 q 301 547 336 547 q 190 468 239 547 q 136 258 136 383 q 181 97 136 160 q 293 33 225 33 q 456 132 376 33 q 569 431 535 231 l 597 426 q 465 95 558 203 q 264 -12 372 -12 q 110 57 174 -12 q 46 239 46 126 m 211 708 l 190 728 q 375 932 283 824 q 396 944 386 944 q 411 931 406 944 q 517 726 457 824 l 493 710 q 383 876 438 783 q 211 708 301 788 z "},"Ċ":{"ha":761,"x_min":96,"x_max":831,"o":"m 422 -18 q 185 103 274 -18 q 96 407 96 225 q 231 833 96 635 q 393 1001 301 938 q 583 1065 485 1065 q 760 992 689 1065 q 831 810 831 919 q 767 625 831 704 q 613 546 704 546 q 503 585 549 546 q 458 682 458 624 q 510 775 458 740 l 522 768 q 511 697 511 728 q 542 613 511 643 q 617 582 572 582 q 723 644 681 582 q 765 793 765 706 q 712 956 765 889 q 565 1022 658 1022 q 399 957 474 1022 q 276 792 325 892 q 193 438 193 622 q 266 149 193 267 q 460 31 339 31 q 626 108 557 31 q 711 303 694 185 l 733 301 q 736 264 736 279 q 642 64 736 146 q 422 -18 547 -18 m 601 1133 q 559 1151 576 1133 q 542 1192 542 1168 q 559 1235 542 1217 q 601 1253 576 1253 q 642 1235 625 1253 q 660 1192 660 1217 q 642 1151 660 1168 q 601 1133 625 1133 z "},"ċ":{"ha":451,"x_min":46,"x_max":597,"o":"m 46 239 q 157 510 46 399 q 329 594 242 594 q 415 563 383 594 q 447 490 447 531 q 427 440 447 458 q 375 421 407 421 q 376 442 376 429 q 356 519 376 492 q 301 547 336 547 q 190 468 239 547 q 136 258 136 383 q 181 97 136 160 q 293 33 225 33 q 456 132 376 33 q 569 431 535 231 l 597 426 q 465 95 558 203 q 264 -12 372 -12 q 110 57 174 -12 q 46 239 46 126 m 365 740 q 323 758 340 740 q 306 799 306 775 q 323 842 306 824 q 365 860 340 860 q 406 842 389 860 q 424 799 424 824 q 406 758 424 775 q 365 740 389 740 z "},"Č":{"ha":761,"x_min":96,"x_max":831,"o":"m 422 -18 q 185 103 274 -18 q 96 407 96 225 q 231 833 96 635 q 393 1001 301 938 q 583 1065 485 1065 q 760 992 689 1065 q 831 810 831 919 q 767 625 831 704 q 613 546 704 546 q 503 585 549 546 q 458 682 458 624 q 510 775 458 740 l 522 768 q 511 697 511 728 q 542 613 511 643 q 617 582 572 582 q 723 644 681 582 q 765 793 765 706 q 712 956 765 889 q 565 1022 658 1022 q 399 957 474 1022 q 276 792 325 892 q 193 438 193 622 q 266 149 193 267 q 460 31 339 31 q 626 108 557 31 q 711 303 694 185 l 733 301 q 736 264 736 279 q 642 64 736 146 q 422 -18 547 -18 m 599 1138 q 579 1149 586 1138 q 438 1321 514 1236 l 457 1342 q 606 1194 525 1283 q 804 1340 726 1290 l 821 1318 q 617 1147 732 1250 q 599 1138 607 1138 z "},"č":{"ha":451,"x_min":46,"x_max":597,"o":"m 46 239 q 157 510 46 399 q 329 594 242 594 q 415 563 383 594 q 447 490 447 531 q 427 440 447 458 q 375 421 407 421 q 376 442 376 429 q 356 519 376 492 q 301 547 336 547 q 190 468 239 547 q 136 258 136 383 q 181 97 136 160 q 293 33 225 33 q 456 132 376 33 q 569 431 535 231 l 597 426 q 465 95 558 203 q 264 -12 372 -12 q 110 57 174 -12 q 46 239 46 126 m 354 714 q 339 728 344 714 q 232 932 283 850 l 256 949 q 365 782 319 863 q 539 950 463 885 l 558 931 q 372 726 456 822 q 354 714 361 714 z "},"Ď":{"ha":1143,"x_min":128,"x_max":1128,"o":"m 415 99 q 463 485 415 226 q 518 829 499 676 q 592 858 564 858 q 611 839 611 858 q 569 604 611 833 q 506 153 506 269 q 531 65 506 94 q 633 36 556 36 q 935 226 826 36 q 1008 410 982 308 q 1033 604 1033 513 q 1012 760 1033 688 q 947 892 990 832 q 829 986 904 951 q 657 1021 754 1021 q 340 911 469 1021 q 207 633 207 797 q 241 485 207 550 q 347 396 275 421 l 343 375 q 188 443 249 375 q 128 615 128 511 q 178 795 128 707 q 314 947 229 883 q 679 1065 471 1065 q 1015 939 901 1065 q 1128 621 1128 813 q 1090 394 1128 508 q 986 193 1051 281 q 607 -6 836 -6 q 497 15 531 -6 q 456 3 472 3 q 415 99 415 3 m 763 1107 q 747 1121 753 1107 q 640 1325 692 1243 l 664 1342 q 774 1175 728 1256 q 947 1343 871 1278 l 967 1324 q 781 1119 864 1215 q 763 1107 769 1107 z "},"ď":{"ha":611,"x_min":42,"x_max":776,"o":"m 646 994 q 700 1043 667 1026 q 776 914 776 982 q 685 726 776 835 l 665 739 q 715 875 715 813 q 646 994 715 943 m 186 -12 q 83 47 125 -12 q 42 207 42 106 q 140 483 42 374 q 361 589 235 589 q 429 575 399 589 q 494 1036 483 899 q 572 1067 543 1067 q 592 1042 592 1067 q 538 713 592 1007 q 478 218 478 381 q 551 32 478 32 q 644 126 597 32 q 729 431 692 221 l 757 426 q 528 -11 679 -11 q 433 50 468 -11 q 397 211 397 111 q 400 274 397 256 l 397 275 q 186 -12 314 -12 m 215 36 q 343 211 281 36 q 419 511 392 344 q 324 540 381 540 q 204 490 253 540 q 131 225 131 388 q 154 88 131 140 q 215 36 178 36 z "},"Đ":{"ha":1143,"x_min":128,"x_max":1128,"o":"m 415 99 q 461 479 415 222 l 338 472 q 332 494 332 481 q 335 511 332 506 l 468 517 q 518 829 500 690 q 592 858 564 858 q 611 839 611 858 q 569 604 611 833 q 554 522 560 554 l 763 535 q 765 514 765 526 q 761 492 765 500 l 547 483 q 506 153 506 249 q 531 65 506 94 q 633 36 556 36 q 935 226 826 36 q 1008 410 982 308 q 1033 604 1033 513 q 1012 760 1033 688 q 947 892 990 832 q 829 986 904 951 q 657 1021 754 1021 q 340 911 469 1021 q 207 633 207 797 q 241 485 207 550 q 347 396 275 421 l 343 375 q 188 443 249 375 q 128 615 128 511 q 178 795 128 707 q 314 947 229 883 q 679 1065 471 1065 q 1015 939 901 1065 q 1128 621 1128 813 q 1090 394 1128 508 q 986 193 1051 281 q 607 -6 836 -6 q 497 15 531 -6 q 456 3 472 3 q 415 99 415 3 z "},"đ":{"ha":611,"x_min":42,"x_max":757,"o":"m 186 -12 q 83 47 125 -12 q 42 207 42 106 q 140 483 42 374 q 360 589 235 589 q 429 575 399 589 q 461 774 453 715 l 311 765 q 307 789 307 771 q 310 807 307 801 l 468 815 q 494 1036 478 886 q 572 1067 543 1067 q 592 1042 592 1067 q 556 821 592 1007 l 653 828 q 657 807 657 819 q 650 782 657 793 l 550 778 q 478 218 478 394 q 551 32 478 32 q 644 126 597 32 q 729 431 692 221 l 757 426 q 528 -11 679 -11 q 433 50 468 -11 q 397 211 397 111 q 400 274 397 256 l 397 275 q 186 -12 313 -12 m 215 36 q 342 211 279 36 q 419 511 393 351 q 322 540 381 540 q 203 490 250 540 q 131 225 131 390 q 154 88 131 140 q 215 36 178 36 z "},"Ē":{"ha":785,"x_min":63,"x_max":768,"o":"m 63 251 q 136 439 63 356 q 329 563 210 522 l 329 565 q 163 796 163 653 q 260 987 163 910 q 474 1064 357 1064 q 622 1019 558 1064 q 685 900 685 974 q 660 820 685 856 q 600 765 636 785 l 586 779 q 621 861 621 808 q 571 973 621 928 q 444 1018 521 1018 q 303 968 364 1018 q 243 839 243 918 q 306 697 243 761 q 476 592 368 633 q 474 565 476 582 q 245 470 328 546 q 163 285 163 394 q 240 103 163 175 q 428 31 318 31 q 643 126 554 31 q 724 322 724 211 q 715 382 724 351 l 736 389 q 768 292 768 347 q 674 94 768 185 q 392 -18 557 -18 q 163 54 264 -18 q 63 251 63 126 m 339 1147 q 335 1165 335 1153 q 338 1181 335 1175 l 642 1203 q 646 1183 646 1194 q 640 1164 646 1174 l 339 1147 z "},"ē":{"ha":454,"x_min":44,"x_max":600,"o":"m 44 240 q 75 388 44 315 q 163 514 106 461 q 326 590 242 590 q 398 563 371 590 q 425 490 425 536 q 338 339 425 407 q 135 249 251 272 q 184 94 136 154 q 301 33 232 33 q 463 135 386 33 q 572 431 539 236 l 600 426 q 470 99 563 210 q 272 -12 378 -12 q 112 58 179 -12 q 44 240 44 128 m 135 283 q 203 302 168 289 q 274 338 239 315 q 333 395 310 360 q 356 471 356 431 q 296 543 356 543 q 186 460 233 543 q 135 283 139 381 m 206 754 q 201 772 201 761 q 204 788 201 782 l 508 810 q 513 790 513 801 q 507 771 513 781 l 206 754 z "},"Ĕ":{"ha":785,"x_min":63,"x_max":768,"o":"m 63 251 q 136 439 63 356 q 329 563 210 522 l 329 565 q 163 796 163 653 q 260 987 163 910 q 474 1064 357 1064 q 622 1019 558 1064 q 685 900 685 974 q 660 820 685 856 q 600 765 636 785 l 586 779 q 621 861 621 808 q 571 973 621 928 q 444 1018 521 1018 q 303 968 364 1018 q 243 839 243 918 q 306 697 243 761 q 476 592 368 633 q 474 565 476 582 q 245 470 328 546 q 163 285 163 394 q 240 103 163 175 q 428 31 318 31 q 643 126 554 31 q 724 322 724 211 q 715 382 724 351 l 736 389 q 768 292 768 347 q 674 94 768 185 q 392 -18 557 -18 q 163 54 264 -18 q 63 251 63 126 m 475 1111 q 379 1149 422 1111 q 321 1250 336 1188 q 385 1286 343 1279 q 427 1190 396 1229 q 497 1151 458 1151 q 567 1187 538 1151 q 610 1285 597 1222 l 640 1278 q 580 1155 625 1199 q 475 1111 535 1111 z "},"ĕ":{"ha":454,"x_min":44,"x_max":600,"o":"m 44 240 q 75 388 44 315 q 163 514 106 461 q 326 590 242 590 q 398 563 371 590 q 425 490 425 536 q 338 339 425 407 q 135 249 251 272 q 184 94 136 154 q 301 33 232 33 q 463 135 386 33 q 572 431 539 236 l 600 426 q 470 99 563 210 q 272 -12 378 -12 q 112 58 179 -12 q 44 240 44 128 m 135 283 q 203 302 168 289 q 274 338 239 315 q 333 395 310 360 q 356 471 356 431 q 296 543 356 543 q 186 460 233 543 q 135 283 139 381 m 342 718 q 246 756 289 718 q 188 857 203 794 q 251 893 210 886 q 294 797 263 836 q 364 758 325 758 q 434 794 404 758 q 476 892 464 829 l 507 885 q 447 762 492 806 q 342 718 401 718 z "},"Ė":{"ha":785,"x_min":63,"x_max":768,"o":"m 63 251 q 136 439 63 356 q 329 563 210 522 l 329 565 q 163 796 163 653 q 260 987 163 910 q 474 1064 357 1064 q 622 1019 558 1064 q 685 900 685 974 q 660 820 685 856 q 600 765 636 785 l 586 779 q 621 861 621 808 q 571 973 621 928 q 444 1018 521 1018 q 303 968 364 1018 q 243 839 243 918 q 306 697 243 761 q 476 592 368 633 q 474 565 476 582 q 245 470 328 546 q 163 285 163 394 q 240 103 163 175 q 428 31 318 31 q 643 126 554 31 q 724 322 724 211 q 715 382 724 351 l 736 389 q 768 292 768 347 q 674 94 768 185 q 392 -18 557 -18 q 163 54 264 -18 q 63 251 63 126 m 493 1133 q 451 1151 468 1133 q 433 1192 433 1168 q 451 1235 433 1217 q 493 1253 468 1253 q 534 1235 517 1253 q 551 1192 551 1217 q 534 1151 551 1168 q 493 1133 517 1133 z "},"ė":{"ha":454,"x_min":44,"x_max":600,"o":"m 44 240 q 75 388 44 315 q 163 514 106 461 q 326 590 242 590 q 398 563 371 590 q 425 490 425 536 q 338 339 425 407 q 135 249 251 272 q 184 94 136 154 q 301 33 232 33 q 463 135 386 33 q 572 431 539 236 l 600 426 q 470 99 563 210 q 272 -12 378 -12 q 112 58 179 -12 q 44 240 44 128 m 135 283 q 203 302 168 289 q 274 338 239 315 q 333 395 310 360 q 356 471 356 431 q 296 543 356 543 q 186 460 233 543 q 135 283 139 381 m 360 740 q 317 758 335 740 q 300 799 300 775 q 317 842 300 824 q 360 860 335 860 q 401 842 383 860 q 418 799 418 824 q 401 758 418 775 q 360 740 383 740 z "},"Ę":{"ha":785,"x_min":63,"x_max":768,"o":"m 63 251 q 136 439 63 356 q 329 563 210 522 l 329 565 q 163 796 163 653 q 260 987 163 910 q 474 1064 357 1064 q 622 1019 558 1064 q 685 900 685 974 q 660 820 685 856 q 600 765 636 785 l 586 779 q 621 861 621 808 q 571 973 621 928 q 444 1018 521 1018 q 303 968 364 1018 q 243 839 243 918 q 306 697 243 761 q 476 592 368 633 q 474 565 476 582 q 245 470 328 546 q 163 285 163 394 q 240 103 163 175 q 428 31 318 31 q 643 126 554 31 q 724 322 724 211 q 715 382 724 351 l 736 389 q 768 292 768 347 q 674 94 768 185 q 599 38 650 72 q 531 -11 547 3 q 435 -186 435 -86 q 460 -277 435 -237 q 528 -317 486 -317 q 617 -232 586 -317 q 639 -250 639 -232 q 601 -315 639 -281 q 507 -350 564 -350 q 406 -306 446 -350 q 367 -199 367 -262 q 472 -12 367 -93 l 472 -10 q 392 -18 435 -18 q 163 54 264 -18 q 63 251 63 126 z "},"ę":{"ha":454,"x_min":44,"x_max":600,"o":"m 44 240 q 75 388 44 315 q 163 514 106 461 q 326 590 242 590 q 398 563 371 590 q 425 490 425 536 q 338 339 425 407 q 135 249 251 272 q 184 94 136 154 q 301 33 232 33 q 463 135 386 33 q 572 431 539 236 l 600 426 q 502 142 569 249 q 349 1 435 36 q 210 -186 210 -53 q 236 -277 210 -237 q 306 -317 263 -317 q 396 -232 365 -317 q 419 -250 419 -232 q 381 -315 419 -281 q 283 -350 342 -350 q 181 -307 221 -350 q 140 -200 140 -264 q 172 -97 140 -147 q 257 -14 204 -47 l 257 -11 q 106 64 167 -4 q 44 240 44 132 m 135 283 q 203 302 168 289 q 274 338 239 315 q 333 395 310 360 q 356 471 356 431 q 296 543 356 543 q 186 460 233 543 q 135 283 139 381 z "},"Ě":{"ha":785,"x_min":63,"x_max":768,"o":"m 63 251 q 136 439 63 356 q 329 563 210 522 l 329 565 q 163 796 163 653 q 260 987 163 910 q 474 1064 357 1064 q 622 1019 558 1064 q 685 900 685 974 q 660 820 685 856 q 600 765 636 785 l 586 779 q 621 861 621 808 q 571 973 621 928 q 444 1018 521 1018 q 303 968 364 1018 q 243 839 243 918 q 306 697 243 761 q 476 592 368 633 q 474 565 476 582 q 245 470 328 546 q 163 285 163 394 q 240 103 163 175 q 428 31 318 31 q 643 126 554 31 q 724 322 724 211 q 715 382 724 351 l 736 389 q 768 292 768 347 q 674 94 768 185 q 392 -18 557 -18 q 163 54 264 -18 q 63 251 63 126 m 490 1138 q 471 1149 478 1138 q 329 1321 406 1236 l 349 1342 q 497 1194 417 1283 q 696 1340 618 1290 l 713 1318 q 508 1147 624 1250 q 490 1138 499 1138 z "},"ě":{"ha":454,"x_min":44,"x_max":600,"o":"m 44 240 q 75 388 44 315 q 163 514 106 461 q 326 590 242 590 q 398 563 371 590 q 425 490 425 536 q 338 339 425 407 q 135 249 251 272 q 184 94 136 154 q 301 33 232 33 q 463 135 386 33 q 572 431 539 236 l 600 426 q 470 99 563 210 q 272 -12 378 -12 q 112 58 179 -12 q 44 240 44 128 m 135 283 q 203 302 168 289 q 274 338 239 315 q 333 395 310 360 q 356 471 356 431 q 296 543 356 543 q 186 460 233 543 q 135 283 139 381 m 349 714 q 333 728 339 714 q 226 932 278 850 l 250 949 q 360 782 314 863 q 533 950 457 885 l 553 931 q 367 726 450 822 q 349 714 356 714 z "},"Ĝ":{"ha":797,"x_min":103,"x_max":796,"o":"m 211 -33 l 229 -51 q 176 -175 176 -101 q 231 -311 176 -254 q 361 -368 286 -368 q 528 -246 468 -368 q 601 85 575 -147 q 629 389 625 297 l 626 389 q 506 177 581 250 q 344 104 432 104 q 170 201 238 104 q 103 451 103 299 q 235 857 103 674 q 390 1008 301 950 q 574 1065 478 1065 q 730 1015 664 1065 q 796 882 796 965 q 711 736 796 785 l 697 750 q 725 850 725 792 q 676 969 725 922 q 550 1017 628 1017 q 407 969 475 1017 q 289 838 339 921 q 197 488 197 683 q 251 245 197 332 q 382 158 306 158 q 574 344 493 158 q 644 599 617 449 q 722 628 689 628 q 744 601 744 628 q 733 493 744 585 q 682 93 713 290 q 634 -133 660 -47 q 567 -279 608 -219 q 458 -383 522 -342 q 324 -424 394 -424 q 176 -365 236 -424 q 115 -224 115 -306 q 142 -120 115 -171 q 211 -33 168 -69 m 407 1114 l 390 1138 q 594 1308 492 1217 q 613 1317 606 1317 q 632 1307 624 1317 q 775 1135 697 1217 l 754 1113 q 606 1261 665 1193 q 407 1114 514 1188 z "},"ĝ":{"ha":533,"x_min":-24,"x_max":519,"o":"m 43 -129 l 57 -142 q 33 -219 33 -174 q 74 -332 33 -283 q 172 -381 115 -381 q 256 -347 221 -381 q 310 -261 292 -312 q 378 213 354 -136 l 375 213 q 182 -8 303 -8 q 83 50 124 -8 q 43 207 43 108 q 140 485 43 374 q 361 589 229 589 q 515 542 446 589 q 450 107 481 378 q 410 -132 432 -42 q 350 -289 389 -222 q 263 -388 315 -347 q 147 -429 210 -429 q 26 -378 76 -429 q -24 -260 -24 -326 q 43 -129 -24 -179 m 214 39 q 344 218 279 39 q 421 511 390 339 q 324 542 381 542 q 204 493 253 542 q 151 374 171 449 q 132 226 132 300 q 156 92 132 144 q 214 39 179 39 m 214 708 l 193 728 q 378 932 286 824 q 399 944 389 944 q 414 931 408 944 q 519 726 460 824 l 496 710 q 386 876 440 783 q 214 708 304 788 z "},"Ğ":{"ha":797,"x_min":103,"x_max":796,"o":"m 211 -33 l 229 -51 q 176 -175 176 -101 q 231 -311 176 -254 q 361 -368 286 -368 q 528 -246 468 -368 q 601 85 575 -147 q 629 389 625 297 l 626 389 q 506 177 581 250 q 344 104 432 104 q 170 201 238 104 q 103 451 103 299 q 235 857 103 674 q 390 1008 301 950 q 574 1065 478 1065 q 730 1015 664 1065 q 796 882 796 965 q 711 736 796 785 l 697 750 q 725 850 725 792 q 676 969 725 922 q 550 1017 628 1017 q 407 969 475 1017 q 289 838 339 921 q 197 488 197 683 q 251 245 197 332 q 382 158 306 158 q 574 344 493 158 q 644 599 617 449 q 722 628 689 628 q 744 601 744 628 q 733 493 744 585 q 682 93 713 290 q 634 -133 660 -47 q 567 -279 608 -219 q 458 -383 522 -342 q 324 -424 394 -424 q 176 -365 236 -424 q 115 -224 115 -306 q 142 -120 115 -171 q 211 -33 168 -69 m 568 1111 q 472 1149 515 1111 q 414 1250 429 1188 q 478 1286 436 1279 q 520 1190 489 1229 q 590 1151 551 1151 q 660 1187 631 1151 q 703 1285 690 1222 l 733 1278 q 673 1155 718 1199 q 568 1111 628 1111 z "},"ğ":{"ha":533,"x_min":-24,"x_max":515,"o":"m 43 -129 l 57 -142 q 33 -219 33 -174 q 74 -332 33 -283 q 172 -381 115 -381 q 256 -347 221 -381 q 310 -261 292 -312 q 378 213 354 -136 l 375 213 q 182 -8 303 -8 q 83 50 124 -8 q 43 207 43 108 q 140 485 43 374 q 361 589 229 589 q 515 542 446 589 q 450 107 481 378 q 410 -132 432 -42 q 350 -289 389 -222 q 263 -388 315 -347 q 147 -429 210 -429 q 26 -378 76 -429 q -24 -260 -24 -326 q 43 -129 -24 -179 m 214 39 q 344 218 279 39 q 421 511 390 339 q 324 542 381 542 q 204 493 253 542 q 151 374 171 449 q 132 226 132 300 q 156 92 132 144 q 214 39 179 39 m 350 718 q 254 756 297 718 q 196 857 211 794 q 260 893 218 886 q 302 797 271 836 q 372 758 333 758 q 442 794 413 758 q 485 892 472 829 l 515 885 q 455 762 500 806 q 350 718 410 718 z "},"Ġ":{"ha":797,"x_min":103,"x_max":796,"o":"m 211 -33 l 229 -51 q 176 -175 176 -101 q 231 -311 176 -254 q 361 -368 286 -368 q 528 -246 468 -368 q 601 85 575 -147 q 629 389 625 297 l 626 389 q 506 177 581 250 q 344 104 432 104 q 170 201 238 104 q 103 451 103 299 q 235 857 103 674 q 390 1008 301 950 q 574 1065 478 1065 q 730 1015 664 1065 q 796 882 796 965 q 711 736 796 785 l 697 750 q 725 850 725 792 q 676 969 725 922 q 550 1017 628 1017 q 407 969 475 1017 q 289 838 339 921 q 197 488 197 683 q 251 245 197 332 q 382 158 306 158 q 574 344 493 158 q 644 599 617 449 q 722 628 689 628 q 744 601 744 628 q 733 493 744 585 q 682 93 713 290 q 634 -133 660 -47 q 567 -279 608 -219 q 458 -383 522 -342 q 324 -424 394 -424 q 176 -365 236 -424 q 115 -224 115 -306 q 142 -120 115 -171 q 211 -33 168 -69 m 586 1133 q 544 1151 561 1133 q 526 1192 526 1168 q 544 1235 526 1217 q 586 1253 561 1253 q 627 1235 610 1253 q 644 1192 644 1217 q 627 1151 644 1168 q 586 1133 610 1133 z "},"ġ":{"ha":533,"x_min":-24,"x_max":515,"o":"m 43 -129 l 57 -142 q 33 -219 33 -174 q 74 -332 33 -283 q 172 -381 115 -381 q 256 -347 221 -381 q 310 -261 292 -312 q 378 213 354 -136 l 375 213 q 182 -8 303 -8 q 83 50 124 -8 q 43 207 43 108 q 140 485 43 374 q 361 589 229 589 q 515 542 446 589 q 450 107 481 378 q 410 -132 432 -42 q 350 -289 389 -222 q 263 -388 315 -347 q 147 -429 210 -429 q 26 -378 76 -429 q -24 -260 -24 -326 q 43 -129 -24 -179 m 214 39 q 344 218 279 39 q 421 511 390 339 q 324 542 381 542 q 204 493 253 542 q 151 374 171 449 q 132 226 132 300 q 156 92 132 144 q 214 39 179 39 m 368 740 q 326 758 343 740 q 308 799 308 775 q 326 842 308 824 q 368 860 343 860 q 409 842 392 860 q 426 799 426 824 q 409 758 426 775 q 368 740 392 740 z "},"Ģ":{"ha":797,"x_min":103,"x_max":796,"o":"m 211 -33 l 229 -51 q 176 -175 176 -101 q 231 -311 176 -254 q 361 -368 286 -368 q 528 -246 468 -368 q 601 85 575 -147 q 629 389 625 297 l 626 389 q 506 177 581 250 q 344 104 432 104 q 170 201 238 104 q 103 451 103 299 q 235 857 103 674 q 390 1008 301 950 q 574 1065 478 1065 q 730 1015 664 1065 q 796 882 796 965 q 711 736 796 785 l 697 750 q 725 850 725 792 q 676 969 725 922 q 550 1017 628 1017 q 407 969 475 1017 q 289 838 339 921 q 197 488 197 683 q 251 245 197 332 q 382 158 306 158 q 574 344 493 158 q 644 599 617 449 q 722 628 689 628 q 744 601 744 628 q 733 493 744 585 q 682 93 713 290 q 634 -133 660 -47 q 567 -279 608 -219 q 458 -383 522 -342 q 324 -424 394 -424 q 176 -365 236 -424 q 115 -224 115 -306 q 142 -120 115 -171 q 211 -33 168 -69 m 329 -4 q 383 44 350 28 q 460 -85 460 -17 q 368 -272 460 -164 l 349 -260 q 399 -124 399 -186 q 329 -4 399 -56 z "},"ģ":{"ha":533,"x_min":-24,"x_max":515,"o":"m 43 -129 l 57 -142 q 33 -219 33 -174 q 74 -332 33 -283 q 172 -381 115 -381 q 256 -347 221 -381 q 310 -261 292 -312 q 378 213 354 -136 l 375 213 q 182 -8 303 -8 q 83 50 124 -8 q 43 207 43 108 q 140 485 43 374 q 361 589 229 589 q 515 542 446 589 q 450 107 481 378 q 410 -132 432 -42 q 350 -289 389 -222 q 263 -388 315 -347 q 147 -429 210 -429 q 26 -378 76 -429 q -24 -260 -24 -326 q 43 -129 -24 -179 m 214 39 q 344 218 279 39 q 421 511 390 339 q 324 542 381 542 q 204 493 253 542 q 151 374 171 449 q 132 226 132 300 q 156 92 132 144 q 214 39 179 39 m 372 715 q 299 844 299 774 q 389 1031 299 926 l 408 1018 q 360 882 360 950 q 429 763 360 814 q 372 715 406 729 z "},"Ĥ":{"ha":1057,"x_min":46,"x_max":1203,"o":"m 46 158 q 96 308 46 235 q 228 431 146 382 q 515 504 342 500 q 556 864 556 704 q 543 1021 556 939 q 611 1053 590 1053 q 656 961 656 1053 q 583 503 656 801 q 838 469 694 499 q 929 1021 851 597 q 1010 1053 978 1053 q 1029 1035 1029 1053 q 1001 886 1029 1025 q 946 540 972 736 q 919 229 919 344 q 938 83 919 140 q 993 25 956 25 q 1052 61 1022 25 q 1116 192 1082 97 q 1175 431 1150 288 l 1203 426 q 960 -31 1124 -31 q 824 268 824 -31 q 832 429 824 344 q 568 449 688 449 q 508 275 533 329 q 215 -18 383 -18 q 96 31 146 -18 q 46 158 46 79 m 211 47 q 322 95 265 47 q 428 239 379 143 q 503 447 469 319 q 243 383 347 439 q 133 292 174 346 q 92 178 92 238 q 126 83 92 119 q 211 47 161 47 m 626 1114 l 610 1138 q 814 1308 711 1217 q 832 1317 825 1317 q 851 1307 843 1317 q 994 1135 917 1217 l 974 1113 q 825 1261 885 1193 q 626 1114 733 1188 z "},"ĥ":{"ha":651,"x_min":89,"x_max":797,"o":"m 147 -10 q 89 181 89 -10 q 176 769 89 454 q 264 1025 219 921 q 308 1056 282 1042 q 349 1069 335 1069 q 361 1065 353 1069 q 433 989 406 1043 q 460 868 460 935 q 386 650 460 754 q 206 521 313 546 q 171 174 171 307 q 176 89 171 122 l 179 89 q 229 328 193 218 q 320 494 264 429 q 444 567 376 560 q 561 490 519 558 q 543 405 557 469 q 523 295 529 340 q 517 206 517 250 q 538 80 517 128 q 592 32 558 32 q 685 126 638 32 q 769 431 732 221 l 797 426 q 568 -11 721 -11 q 472 44 511 -11 q 432 207 432 100 q 447 351 432 264 q 463 456 463 438 q 422 508 463 508 q 354 478 389 508 q 260 314 299 426 q 206 11 215 192 q 147 -10 169 -10 m 213 556 q 349 659 296 576 q 403 835 403 742 q 328 1010 403 956 q 213 556 242 763 m 199 1125 l 178 1144 q 363 1349 271 1240 q 383 1361 374 1361 q 399 1347 393 1361 q 504 1143 444 1240 l 481 1126 q 371 1293 425 1200 q 199 1125 289 1204 z "},"Ħ":{"ha":1057,"x_min":46,"x_max":1203,"o":"m 46 158 q 96 308 46 235 q 228 431 146 382 q 515 504 342 500 q 549 725 539 617 l 424 719 q 418 740 418 726 q 421 757 418 751 l 551 761 q 556 858 556 810 q 543 1021 556 938 q 611 1053 590 1053 q 656 961 656 1053 q 636 764 656 893 l 883 775 q 929 1021 890 814 q 1010 1053 978 1053 q 1029 1035 1029 1053 q 1001 886 1029 1025 q 982 779 996 858 l 1119 786 q 1124 767 1124 778 q 1118 744 1124 754 l 975 740 q 919 229 919 386 q 938 83 919 140 q 993 25 956 25 q 1052 61 1022 25 q 1116 192 1082 97 q 1175 431 1150 288 l 1203 426 q 960 -31 1124 -31 q 824 268 824 -31 q 832 429 824 344 q 568 449 688 449 q 508 275 533 329 q 215 -18 383 -18 q 96 31 146 -18 q 46 158 46 79 m 583 503 q 838 469 694 499 q 878 738 849 565 l 631 728 q 583 503 607 600 m 211 47 q 322 95 265 47 q 428 239 379 143 q 503 447 469 319 q 243 383 347 439 q 133 292 174 346 q 92 178 92 238 q 126 83 92 119 q 211 47 161 47 z "},"ħ":{"ha":651,"x_min":60,"x_max":797,"o":"m 213 556 q 349 659 296 576 q 403 835 403 742 q 328 1010 403 956 q 268 817 293 918 l 354 822 q 358 803 358 814 q 353 779 358 793 l 257 775 q 213 556 229 671 m 89 181 q 176 771 89 451 l 64 765 q 60 789 60 772 q 63 807 60 801 l 189 813 q 264 1025 228 943 q 308 1056 282 1042 q 349 1069 335 1069 q 361 1065 353 1069 q 433 989 406 1043 q 460 868 460 935 q 386 650 460 754 q 206 521 313 546 q 171 174 171 307 q 176 89 171 122 l 179 89 q 229 328 193 218 q 320 494 264 429 q 444 567 376 560 q 561 490 519 558 q 543 405 557 469 q 523 295 529 340 q 517 206 517 250 q 538 80 517 128 q 592 32 558 32 q 685 126 638 32 q 769 431 732 221 l 797 426 q 568 -11 721 -11 q 472 44 511 -11 q 432 207 432 100 q 447 351 432 264 q 463 456 463 438 q 422 508 463 508 q 354 478 389 508 q 260 314 299 426 q 206 11 215 192 q 147 -10 169 -10 q 89 181 89 -10 z "},"Ĩ":{"ha":725,"x_min":132,"x_max":907,"o":"m 139 118 q 240 278 139 217 l 253 258 q 194 149 194 218 q 238 47 194 89 q 346 6 281 6 q 506 104 442 6 q 544 197 529 142 q 566 293 560 251 q 585 443 572 335 q 672 1014 618 719 q 608 1019 646 1019 q 336 926 447 1019 q 242 805 276 876 q 207 658 207 733 q 249 514 207 575 q 374 451 292 453 l 374 431 q 328 426 351 426 q 186 488 240 426 q 132 642 132 549 q 181 813 132 729 q 311 958 229 897 q 638 1065 454 1065 q 779 1046 717 1065 q 711 681 751 919 q 663 403 671 442 q 539 76 619 179 q 317 -47 442 -47 q 190 0 242 -47 q 139 118 139 47 m 557 1131 l 539 1136 q 573 1222 544 1185 q 647 1260 601 1260 q 735 1225 682 1260 q 814 1193 782 1193 q 888 1263 867 1193 l 907 1257 q 873 1172 901 1208 q 797 1135 844 1135 q 710 1168 765 1135 q 631 1200 661 1200 q 557 1131 581 1200 z "},"ĩ":{"ha":304,"x_min":28,"x_max":450,"o":"m 214 -11 q 120 38 157 -11 q 83 179 83 86 q 108 382 83 246 q 138 561 132 518 q 206 588 181 588 q 225 563 225 588 q 206 453 225 543 q 168 178 168 268 q 187 72 168 111 q 240 32 206 32 q 422 431 350 32 l 450 426 q 349 85 407 182 q 214 -11 292 -11 m 46 738 l 28 743 q 62 829 33 792 q 136 867 90 867 q 224 832 171 867 q 303 800 272 800 q 376 869 356 800 l 396 864 q 362 778 390 815 q 286 742 333 742 q 199 775 254 742 q 119 807 151 807 q 46 738 69 807 z "},"Ī":{"ha":725,"x_min":132,"x_max":874,"o":"m 139 118 q 240 278 139 217 l 253 258 q 194 149 194 218 q 238 47 194 89 q 346 6 281 6 q 506 104 442 6 q 544 197 529 142 q 566 293 560 251 q 585 443 572 335 q 672 1014 618 719 q 608 1019 646 1019 q 336 926 447 1019 q 242 805 276 876 q 207 658 207 733 q 249 514 207 575 q 374 451 292 453 l 374 431 q 328 426 351 426 q 186 488 240 426 q 132 642 132 549 q 181 813 132 729 q 311 958 229 897 q 638 1065 454 1065 q 779 1046 717 1065 q 711 681 751 919 q 663 403 671 442 q 539 76 619 179 q 317 -47 442 -47 q 190 0 242 -47 q 139 118 139 47 m 567 1147 q 563 1165 563 1153 q 565 1181 563 1175 l 869 1203 q 874 1183 874 1194 q 868 1164 874 1174 l 567 1147 z "},"ī":{"ha":304,"x_min":51,"x_max":450,"o":"m 214 -11 q 120 38 157 -11 q 83 179 83 86 q 108 382 83 246 q 138 561 132 518 q 206 588 181 588 q 225 563 225 588 q 206 453 225 543 q 168 178 168 268 q 187 72 168 111 q 240 32 206 32 q 422 431 350 32 l 450 426 q 349 85 407 182 q 214 -11 292 -11 m 56 754 q 51 772 51 761 q 54 788 51 782 l 358 810 q 363 790 363 801 q 357 771 363 781 l 56 754 z "},"Ĭ":{"ha":725,"x_min":132,"x_max":868,"o":"m 139 118 q 240 278 139 217 l 253 258 q 194 149 194 218 q 238 47 194 89 q 346 6 281 6 q 506 104 442 6 q 544 197 529 142 q 566 293 560 251 q 585 443 572 335 q 672 1014 618 719 q 608 1019 646 1019 q 336 926 447 1019 q 242 805 276 876 q 207 658 207 733 q 249 514 207 575 q 374 451 292 453 l 374 431 q 328 426 351 426 q 186 488 240 426 q 132 642 132 549 q 181 813 132 729 q 311 958 229 897 q 638 1065 454 1065 q 779 1046 717 1065 q 711 681 751 919 q 663 403 671 442 q 539 76 619 179 q 317 -47 442 -47 q 190 0 242 -47 q 139 118 139 47 m 703 1111 q 607 1149 650 1111 q 549 1250 564 1188 q 613 1286 571 1279 q 655 1190 624 1229 q 725 1151 686 1151 q 795 1187 765 1151 q 838 1285 825 1222 l 868 1278 q 808 1155 853 1199 q 703 1111 763 1111 z "},"ĭ":{"ha":304,"x_min":38,"x_max":450,"o":"m 214 -11 q 120 38 157 -11 q 83 179 83 86 q 108 382 83 246 q 138 561 132 518 q 206 588 181 588 q 225 563 225 588 q 206 453 225 543 q 168 178 168 268 q 187 72 168 111 q 240 32 206 32 q 422 431 350 32 l 450 426 q 349 85 407 182 q 214 -11 292 -11 m 192 718 q 96 756 139 718 q 38 857 53 794 q 101 893 60 886 q 144 797 113 836 q 214 758 175 758 q 284 794 254 758 q 326 892 314 829 l 357 885 q 297 762 342 806 q 192 718 251 718 z "},"Į":{"ha":725,"x_min":132,"x_max":779,"o":"m 315 -47 q 190 0 242 -47 q 139 118 139 47 q 240 278 139 217 l 253 258 q 194 149 194 218 q 238 48 194 90 q 343 6 281 6 q 501 99 440 6 q 519 126 511 113 q 533 160 526 140 q 544 192 539 179 q 553 229 549 204 q 561 266 558 254 q 568 309 564 278 q 574 350 572 340 q 579 397 575 360 q 585 443 583 433 q 672 1014 624 750 q 608 1019 646 1019 q 336 926 447 1019 q 242 805 276 876 q 207 658 207 733 q 249 514 207 575 q 374 451 292 453 l 374 431 q 328 426 351 426 q 186 488 240 426 q 132 642 132 549 q 181 813 132 729 q 311 958 229 897 q 638 1065 454 1065 q 779 1046 717 1065 q 710 678 751 918 q 663 403 669 438 q 636 289 649 336 q 599 182 624 242 q 537 74 575 122 q 447 -8 499 26 q 346 -186 346 -78 q 372 -277 346 -237 q 439 -317 397 -317 q 528 -232 497 -317 q 550 -250 550 -232 q 513 -315 550 -281 q 418 -350 475 -350 q 317 -307 357 -350 q 278 -200 278 -264 q 346 -47 278 -115 l 344 -44 q 315 -47 331 -47 z "},"į":{"ha":304,"x_min":63,"x_max":450,"o":"m 284 753 q 275 744 284 753 q 239 735 265 735 q 194 753 213 735 q 176 799 176 772 q 194 844 176 825 q 239 863 213 863 q 284 844 265 863 q 303 799 303 825 q 284 753 303 772 m 63 -200 q 96 -93 63 -144 q 188 -11 129 -42 l 188 -8 q 83 179 83 21 q 108 382 83 246 q 138 561 132 518 q 206 588 181 588 q 225 563 225 588 q 206 453 225 543 q 168 178 168 268 q 187 72 168 111 q 240 32 206 32 q 422 431 350 32 l 450 426 q 367 124 413 218 q 263 -1 322 29 q 131 -186 131 -67 q 156 -278 131 -239 q 222 -317 181 -317 q 311 -232 281 -317 q 335 -250 335 -232 q 297 -315 335 -281 q 203 -350 260 -350 q 102 -307 142 -350 q 63 -200 63 -264 z "},"İ":{"ha":725,"x_min":132,"x_max":779,"o":"m 139 118 q 240 278 139 217 l 253 258 q 194 149 194 218 q 238 47 194 89 q 346 6 281 6 q 506 104 442 6 q 544 197 529 142 q 566 293 560 251 q 585 443 572 335 q 672 1014 618 719 q 608 1019 646 1019 q 336 926 447 1019 q 242 805 276 876 q 207 658 207 733 q 249 514 207 575 q 374 451 292 453 l 374 431 q 328 426 351 426 q 186 488 240 426 q 132 642 132 549 q 181 813 132 729 q 311 958 229 897 q 638 1065 454 1065 q 779 1046 717 1065 q 711 681 751 919 q 663 403 671 442 q 539 76 619 179 q 317 -47 442 -47 q 190 0 242 -47 q 139 118 139 47 m 721 1133 q 678 1151 696 1133 q 661 1192 661 1168 q 678 1235 661 1217 q 721 1253 696 1253 q 762 1235 744 1253 q 779 1192 779 1217 q 762 1151 779 1168 q 721 1133 744 1133 z "},"ı":{"ha":304,"x_min":83,"x_max":450,"o":"m 214 -11 q 120 38 157 -11 q 83 179 83 86 q 108 382 83 246 q 138 561 132 518 q 206 588 181 588 q 225 563 225 588 q 206 453 225 543 q 168 178 168 268 q 187 72 168 111 q 240 32 206 32 q 422 431 350 32 l 450 426 q 349 85 407 182 q 214 -11 292 -11 z "},"Ĳ":{"ha":1396,"x_min":132,"x_max":1442,"o":"m 139 118 q 240 278 139 217 l 253 258 q 194 149 194 218 q 238 47 194 89 q 346 6 281 6 q 506 104 442 6 q 544 197 529 142 q 566 293 560 251 q 585 443 572 335 q 672 1014 618 719 q 608 1019 646 1019 q 336 926 447 1019 q 242 805 276 876 q 207 658 207 733 q 249 514 207 575 q 374 451 292 453 l 374 431 q 328 426 351 426 q 186 488 240 426 q 132 642 132 549 q 181 813 132 729 q 311 958 229 897 q 638 1065 454 1065 q 779 1046 717 1065 q 711 681 751 919 q 663 403 671 442 q 539 76 619 179 q 317 -47 442 -47 q 190 0 242 -47 q 139 118 139 47 m 633 -124 q 703 -296 633 -224 q 872 -368 774 -368 q 1008 -325 944 -368 q 1114 -206 1071 -282 q 1213 182 1181 -86 q 1233 365 1214 196 q 1265 633 1251 535 q 1328 1010 1292 819 q 1251 1018 1294 1018 q 981 925 1092 1018 q 883 798 918 872 q 847 650 847 724 q 890 501 847 565 q 1015 435 933 436 l 1015 414 q 969 408 988 408 q 827 474 883 408 q 771 635 771 540 q 821 810 771 722 q 954 958 871 897 q 1288 1064 1097 1064 q 1442 1044 1375 1064 q 1367 635 1401 868 q 1301 194 1314 267 q 1156 -237 1250 -101 q 1014 -376 1096 -326 q 843 -425 932 -425 q 651 -351 731 -425 q 571 -164 571 -276 q 658 53 571 -43 q 864 149 744 149 q 1015 93 947 149 l 1006 74 q 867 103 933 103 q 699 38 765 103 q 633 -124 633 -28 z "},"ĳ":{"ha":600,"x_min":83,"x_max":660,"o":"m 193 561 q 261 588 236 588 q 281 563 281 588 q 261 453 281 543 q 224 182 224 268 q 296 32 224 32 q 435 246 375 32 q 493 561 472 382 q 563 588 543 588 q 581 567 581 588 q 551 372 581 528 q 514 115 529 246 q 488 -85 497 -25 q 459 -215 479 -144 q 410 -328 439 -286 q 243 -429 339 -429 q 130 -383 176 -429 q 83 -275 83 -336 q 168 -149 83 -192 l 178 -162 q 142 -243 142 -189 q 177 -339 142 -297 q 265 -381 213 -381 q 376 -300 340 -381 q 396 -245 388 -275 q 410 -162 404 -215 q 420 -80 417 -110 q 431 37 424 -50 q 442 161 439 124 l 439 161 q 363 28 404 67 q 269 -11 321 -11 q 176 38 213 -11 q 139 179 139 86 q 163 382 139 246 q 193 561 188 518 m 340 753 q 330 744 340 753 q 294 735 321 735 q 250 753 268 735 q 232 799 232 772 q 250 844 232 825 q 294 863 268 863 q 340 844 321 863 q 358 799 358 825 q 340 753 358 772 m 641 753 q 632 744 641 753 q 596 735 622 735 q 551 753 569 735 q 533 799 533 772 q 551 844 533 825 q 596 863 569 863 q 641 844 622 863 q 660 799 660 825 q 641 753 660 772 z "},"Ĵ":{"ha":846,"x_min":21,"x_max":1035,"o":"m 83 -124 q 153 -296 83 -224 q 322 -368 224 -368 q 458 -325 394 -368 q 564 -206 521 -282 q 663 182 631 -86 q 683 365 664 196 q 715 633 701 535 q 778 1010 742 819 q 701 1018 744 1018 q 431 925 542 1018 q 333 798 368 872 q 297 650 297 724 q 340 501 297 565 q 465 435 383 436 l 465 414 q 419 408 438 408 q 277 474 333 408 q 221 635 221 540 q 271 810 221 722 q 404 958 321 897 q 738 1064 547 1064 q 892 1044 825 1064 q 817 635 851 868 q 751 194 764 267 q 606 -237 700 -101 q 464 -376 546 -326 q 293 -425 382 -425 q 101 -351 181 -425 q 21 -164 21 -276 q 108 53 21 -43 q 314 149 194 149 q 465 93 397 149 l 456 74 q 317 103 383 103 q 149 38 215 103 q 83 -124 83 -28 m 667 1135 l 650 1158 q 854 1329 753 1238 q 872 1338 864 1338 q 892 1328 883 1338 q 1035 1156 957 1238 l 1014 1133 q 865 1282 925 1214 q 667 1135 774 1208 z "},"ĵ":{"ha":240,"x_min":-276,"x_max":350,"o":"m 81 140 q 112 403 92 261 q 133 561 132 544 q 203 588 183 588 q 221 567 221 588 q 192 372 221 528 q 154 115 169 246 q 128 -85 138 -25 q 99 -215 119 -144 q 50 -328 79 -286 q -117 -429 -21 -429 q -230 -383 -183 -429 q -276 -275 -276 -336 q -192 -149 -276 -192 l -182 -162 q -218 -243 -218 -189 q -183 -339 -218 -297 q -94 -381 -147 -381 q 17 -300 -19 -381 q 36 -244 28 -275 q 51 -165 44 -214 q 60 -84 57 -115 q 71 26 64 -53 q 81 140 78 104 m 44 708 l 24 728 q 208 932 117 824 q 229 944 219 944 q 244 931 239 944 q 350 726 290 824 l 326 710 q 217 876 271 783 q 44 708 135 788 z "},"Ķ":{"ha":713,"x_min":44,"x_max":910,"o":"m 44 3 q 97 324 44 17 q 193 1017 175 767 q 269 1046 242 1046 q 292 1014 292 1046 q 232 590 292 918 q 167 224 174 265 l 169 222 q 465 815 307 588 q 796 1075 649 1075 q 881 1040 851 1075 q 910 949 910 1006 q 908 922 910 932 l 886 918 q 789 999 871 999 q 567 864 688 999 q 378 597 482 769 q 663 53 525 339 q 760 189 715 90 q 831 431 806 288 l 858 426 q 747 97 822 210 q 585 -24 671 -15 q 326 499 447 268 q 133 8 207 274 q 64 -14 96 -14 q 44 3 44 -14 m 288 -111 q 342 -62 308 -79 q 418 -192 418 -124 q 326 -379 418 -271 l 307 -367 q 357 -231 357 -293 q 288 -111 357 -162 z "},"ķ":{"ha":624,"x_min":86,"x_max":769,"o":"m 143 -10 q 86 154 86 -10 q 90 238 86 193 q 101 340 93 283 q 115 431 110 396 q 133 535 121 467 q 147 622 144 603 q 207 1036 181 815 q 283 1067 250 1067 q 300 1047 300 1067 q 244 713 300 1008 q 228 629 242 700 q 212 540 215 558 q 199 463 208 521 q 185 378 189 404 q 176 308 182 351 q 169 232 171 264 q 167 169 167 200 q 174 88 167 119 l 176 88 q 278 440 199 299 q 468 590 364 590 q 542 562 514 590 q 571 485 571 533 q 499 344 571 404 q 385 283 453 304 q 576 57 501 164 q 742 431 688 129 l 769 426 q 666 110 733 208 q 507 -12 599 11 q 299 257 413 122 l 301 279 q 435 340 381 289 q 492 457 492 393 q 475 513 492 493 q 431 533 458 533 q 341 476 383 533 q 268 342 299 418 q 199 10 219 222 q 143 -10 163 -10 m 239 -111 q 293 -62 260 -79 q 369 -192 369 -124 q 278 -379 369 -271 l 258 -367 q 308 -231 308 -293 q 239 -111 308 -162 z "},"ĸ":{"ha":632,"x_min":93,"x_max":764,"o":"m 150 -10 q 93 167 93 -10 q 110 376 93 239 q 131 561 128 514 q 200 588 176 588 q 219 560 219 588 q 197 421 219 554 q 174 181 174 288 q 179 88 174 126 l 183 88 q 285 439 207 301 q 475 590 371 590 q 549 562 521 590 q 578 485 578 533 q 506 344 578 404 q 393 283 460 306 q 622 11 517 156 q 743 115 683 53 l 764 93 q 659 -3 717 39 q 554 -62 601 -44 q 306 258 444 96 l 308 279 q 442 340 388 289 q 499 457 499 393 q 482 513 499 493 q 438 533 465 533 q 348 476 390 533 q 275 342 306 418 q 207 10 224 210 q 150 -10 172 -10 z "},"Ĺ":{"ha":822,"x_min":29,"x_max":1065,"o":"m 29 86 q 84 180 29 139 q 207 221 139 221 q 368 154 267 221 q 446 442 422 274 q 458 540 450 474 q 474 652 467 607 q 494 743 482 697 q 601 977 533 890 q 757 1064 669 1064 q 880 999 835 1064 q 925 842 925 935 q 863 619 925 732 q 697 447 800 506 l 683 467 q 806 621 761 517 q 851 822 851 725 q 822 957 851 899 q 738 1015 793 1015 q 582 742 625 1015 q 565 614 581 732 q 535 436 549 496 q 411 125 493 251 q 599 -19 413 124 q 715 -106 674 -76 q 810 -161 757 -136 q 904 -186 864 -186 q 1046 -112 986 -186 l 1065 -129 q 853 -268 967 -268 q 719 -226 790 -268 q 544 -96 649 -183 q 360 57 418 11 q 183 -28 279 -28 q 74 6 118 -28 q 29 86 29 39 m 83 106 q 118 41 83 69 q 201 13 153 13 q 326 83 272 13 q 157 171 211 171 q 103 152 124 171 q 83 106 83 133 m 726 1146 l 715 1175 q 992 1294 839 1224 q 1010 1246 1010 1274 q 726 1146 876 1194 z "},"ĺ":{"ha":356,"x_min":90,"x_max":547,"o":"m 254 -12 q 140 51 189 -12 q 90 256 90 115 q 174 764 90 446 q 260 1025 217 924 q 305 1056 279 1042 q 342 1069 331 1069 q 358 1063 349 1069 q 420 974 397 1039 q 443 836 443 910 q 372 575 443 701 q 186 419 300 449 q 175 258 175 326 q 205 88 175 144 q 281 31 235 31 q 384 126 332 31 q 472 431 436 221 l 500 426 q 254 -12 425 -12 m 190 451 q 334 582 282 481 q 386 801 386 683 q 319 1001 386 936 q 251 771 283 896 q 190 451 213 615 m 264 1107 l 253 1136 q 529 1256 376 1185 q 547 1207 547 1235 q 264 1107 414 1156 z "},"Ļ":{"ha":822,"x_min":29,"x_max":1065,"o":"m 29 86 q 84 180 29 139 q 207 221 139 221 q 368 154 267 221 q 446 442 422 274 q 458 540 450 474 q 474 652 467 607 q 494 743 482 697 q 601 977 533 890 q 757 1064 669 1064 q 880 999 835 1064 q 925 842 925 935 q 863 619 925 732 q 697 447 800 506 l 683 467 q 806 621 761 517 q 851 822 851 725 q 822 957 851 899 q 738 1015 793 1015 q 582 742 625 1015 q 565 614 581 732 q 535 436 549 496 q 411 125 493 251 q 599 -19 413 124 q 715 -106 674 -76 q 810 -161 757 -136 q 904 -186 864 -186 q 1046 -112 986 -186 l 1065 -129 q 853 -268 967 -268 q 719 -226 790 -268 q 544 -96 649 -183 q 360 57 418 11 q 183 -28 279 -28 q 74 6 118 -28 q 29 86 29 39 m 83 106 q 118 41 83 69 q 201 13 153 13 q 326 83 272 13 q 157 171 211 171 q 103 152 124 171 q 83 106 83 133 m 357 -110 q 411 -61 378 -78 q 488 -190 488 -122 q 396 -378 488 -269 l 376 -365 q 426 -229 426 -292 q 357 -110 426 -161 z "},"ļ":{"ha":356,"x_min":90,"x_max":500,"o":"m 254 -12 q 140 51 189 -12 q 90 256 90 115 q 174 764 90 446 q 260 1025 217 924 q 305 1056 279 1042 q 342 1069 331 1069 q 358 1063 349 1069 q 420 974 397 1039 q 443 836 443 910 q 372 575 443 701 q 186 419 300 449 q 175 258 175 326 q 205 88 175 144 q 281 31 235 31 q 384 126 332 31 q 472 431 436 221 l 500 426 q 254 -12 425 -12 m 190 451 q 334 582 282 481 q 386 801 386 683 q 319 1001 386 936 q 251 771 283 896 q 190 451 213 615 m 132 -111 q 186 -62 153 -79 q 263 -192 263 -124 q 171 -379 263 -271 l 151 -367 q 201 -231 201 -293 q 132 -111 201 -162 z "},"Ľ":{"ha":822,"x_min":29,"x_max":1079,"o":"m 29 86 q 84 180 29 139 q 207 221 139 221 q 368 154 267 221 q 446 442 422 274 q 458 540 450 474 q 474 652 467 607 q 494 743 482 697 q 601 977 533 890 q 757 1064 669 1064 q 880 999 835 1064 q 925 842 925 935 q 863 619 925 732 q 697 447 800 506 l 683 467 q 806 621 761 517 q 851 822 851 725 q 822 957 851 899 q 738 1015 793 1015 q 582 742 625 1015 q 565 614 581 732 q 535 436 549 496 q 411 125 493 251 q 599 -19 413 124 q 715 -106 674 -76 q 810 -161 757 -136 q 904 -186 864 -186 q 1046 -112 986 -186 l 1065 -129 q 853 -268 967 -268 q 719 -226 790 -268 q 544 -96 649 -183 q 360 57 418 11 q 183 -28 279 -28 q 74 6 118 -28 q 29 86 29 39 m 83 106 q 118 41 83 69 q 201 13 153 13 q 326 83 272 13 q 157 171 211 171 q 103 152 124 171 q 83 106 83 133 m 949 1021 q 1003 1069 969 1053 q 1079 940 1079 1008 q 988 753 1079 861 l 968 765 q 1018 901 1018 839 q 949 1021 1018 969 z "},"ľ":{"ha":356,"x_min":90,"x_max":582,"o":"m 254 -12 q 140 51 189 -12 q 90 256 90 115 q 174 764 90 446 q 260 1025 217 924 q 305 1056 279 1042 q 342 1069 331 1069 q 358 1063 349 1069 q 420 974 397 1039 q 443 836 443 910 q 372 575 443 701 q 186 419 300 449 q 175 258 175 326 q 205 88 175 144 q 281 31 235 31 q 384 126 332 31 q 472 431 436 221 l 500 426 q 254 -12 425 -12 m 190 451 q 334 582 282 481 q 386 801 386 683 q 319 1001 386 936 q 251 771 283 896 q 190 451 213 615 m 451 1032 q 506 1081 472 1064 q 582 951 582 1019 q 490 764 582 872 l 471 776 q 521 913 521 850 q 451 1032 521 981 z "},"Ŀ":{"ha":822,"x_min":29,"x_max":1065,"o":"m 29 86 q 84 180 29 139 q 207 221 139 221 q 368 154 267 221 q 446 442 422 274 q 458 540 450 474 q 474 652 467 607 q 494 743 482 697 q 601 976 533 889 q 756 1064 669 1064 q 875 999 829 1064 q 921 844 921 933 q 811 588 921 711 l 793 599 q 851 824 851 707 q 824 958 851 901 q 738 1015 796 1015 q 582 742 625 1015 q 565 614 581 732 q 535 436 549 496 q 411 125 493 251 q 599 -19 413 124 q 715 -106 674 -76 q 810 -161 757 -136 q 904 -186 864 -186 q 1046 -112 986 -186 l 1065 -129 q 853 -268 967 -268 q 756 -242 810 -268 q 663 -187 701 -215 q 544 -96 625 -158 q 455 -22 519 -76 q 360 57 390 33 q 183 -28 279 -28 q 74 6 118 -28 q 29 86 29 39 m 83 106 q 118 41 83 69 q 201 13 153 13 q 326 83 272 13 q 157 171 211 171 q 103 152 124 171 q 83 106 83 133 m 729 379 q 687 397 704 379 q 669 438 669 414 q 687 481 669 463 q 729 499 704 499 q 770 481 753 499 q 788 438 788 463 q 770 397 788 414 q 729 379 753 379 z "},"ŀ":{"ha":406,"x_min":90,"x_max":551,"o":"m 90 256 q 174 764 90 456 q 260 1025 217 924 q 305 1056 279 1042 q 342 1069 331 1069 q 358 1063 349 1069 q 420 974 397 1039 q 443 836 443 910 q 372 575 443 701 q 186 419 300 449 q 175 261 175 328 q 208 86 175 142 q 289 31 240 31 q 423 131 356 31 q 524 431 490 232 l 551 428 q 450 114 524 240 q 271 -12 376 -12 q 144 51 199 -12 q 90 256 90 115 m 190 451 q 334 582 282 481 q 386 801 386 683 q 319 1001 386 936 q 251 771 283 896 q 190 451 213 615 m 393 357 q 351 374 368 357 q 333 415 333 392 q 351 458 333 440 q 393 476 368 476 q 434 458 417 476 q 451 415 451 440 q 434 374 451 392 q 393 357 417 357 z "},"Ł":{"ha":822,"x_min":29,"x_max":1065,"o":"m 29 86 q 84 180 29 139 q 207 221 139 221 q 368 154 267 221 q 447 447 421 271 l 304 406 q 294 442 294 422 l 451 486 q 494 743 478 678 q 600 976 532 889 q 756 1064 668 1064 q 875 999 829 1064 q 921 844 921 933 q 811 588 921 711 l 793 599 q 851 824 851 707 q 824 958 851 901 q 738 1015 796 1015 q 582 742 626 1015 q 569 642 579 722 q 550 515 558 561 l 669 551 q 678 524 678 540 q 676 511 678 515 l 543 475 q 411 125 499 256 q 599 -19 413 124 q 715 -106 674 -76 q 810 -161 757 -136 q 904 -186 864 -186 q 1046 -112 986 -186 l 1065 -129 q 853 -268 967 -268 q 757 -242 810 -268 q 663 -187 704 -217 q 544 -96 621 -157 q 468 -33 535 -89 q 360 57 401 24 q 183 -28 279 -28 q 74 6 118 -28 q 29 86 29 39 m 83 106 q 118 41 83 69 q 201 13 153 13 q 326 83 272 13 q 157 171 211 171 q 103 152 124 171 q 83 106 83 133 z "},"ł":{"ha":356,"x_min":-37,"x_max":746,"o":"m 256 -12 q 140 51 189 -12 q 90 254 90 114 q 169 725 90 431 q 251 972 213 878 q 336 1018 306 1018 q 353 1013 342 1018 q 419 928 396 989 q 442 800 442 868 q 369 560 442 675 q 186 418 297 446 q 175 258 175 326 q 205 88 175 144 q 279 31 235 31 q 385 127 333 31 q 474 431 438 224 l 500 426 q 256 -12 425 -12 m 192 454 q 331 568 278 476 q 385 767 385 660 q 314 954 385 893 q 244 724 282 872 q 192 454 210 588 m 21 831 q -37 940 -37 867 q 50 1110 -37 1035 q 261 1185 138 1185 q 463 1139 328 1185 q 638 1094 590 1094 q 732 1133 701 1094 l 746 1122 q 588 1033 690 1033 q 419 1075 532 1033 q 204 1128 272 1128 q 60 1078 114 1128 q 6 949 6 1028 q 33 843 6 878 l 21 831 z "},"Ń":{"ha":1068,"x_min":38,"x_max":1418,"o":"m 38 131 l 58 139 q 176 57 90 57 q 419 281 317 57 q 558 1014 553 576 q 636 1061 608 1061 q 658 1036 653 1061 q 768 590 738 700 q 913 151 833 353 l 915 151 q 946 480 918 282 q 1015 818 974 678 q 1293 1149 1114 1149 q 1385 1114 1353 1149 q 1418 1025 1417 1079 l 1397 1015 q 1300 1082 1374 1082 q 1058 792 1151 1082 q 984 468 1015 657 q 953 128 953 279 q 957 26 953 75 q 879 -15 910 -15 q 858 1 865 -15 q 711 456 825 72 q 594 885 650 660 l 592 885 q 476 274 575 529 q 192 -18 364 -18 q 83 26 122 -18 q 38 131 44 71 m 813 1146 l 801 1175 q 1078 1294 925 1224 q 1096 1246 1096 1274 q 813 1146 963 1194 z "},"ń":{"ha":651,"x_min":79,"x_max":797,"o":"m 129 -10 q 79 132 79 -10 q 106 370 79 210 q 136 561 132 531 q 207 588 182 588 q 225 564 225 588 q 192 390 225 553 q 158 133 158 226 q 161 85 158 99 l 165 85 q 231 340 182 218 q 454 592 322 575 q 571 517 529 579 q 549 423 565 492 q 523 300 532 354 q 514 196 514 246 q 534 76 514 121 q 589 32 554 32 q 685 126 638 32 q 769 431 733 219 l 797 426 q 696 85 756 182 q 564 -11 636 -11 q 467 41 506 -11 q 429 197 429 93 q 450 365 429 265 q 471 483 471 465 q 428 532 471 532 q 339 471 385 532 q 258 322 293 410 q 185 8 207 193 q 129 -10 150 -10 m 336 715 l 318 740 q 547 935 421 818 q 578 893 571 915 q 336 715 454 796 z "},"Ņ":{"ha":1068,"x_min":38,"x_max":1418,"o":"m 38 131 l 58 139 q 176 57 90 57 q 419 281 317 57 q 558 1014 553 576 q 636 1061 608 1061 q 658 1036 653 1061 q 768 590 738 700 q 913 151 833 353 l 915 151 q 946 480 918 282 q 1015 818 974 678 q 1293 1149 1114 1149 q 1385 1114 1353 1149 q 1418 1025 1417 1079 l 1397 1015 q 1300 1082 1374 1082 q 1058 792 1151 1082 q 984 468 1015 657 q 953 128 953 279 q 957 26 953 75 q 879 -15 910 -15 q 858 1 865 -15 q 711 456 825 72 q 594 885 650 660 l 592 885 q 476 274 575 529 q 192 -18 364 -18 q 83 26 122 -18 q 38 131 44 71 m 568 -111 q 622 -62 589 -79 q 699 -192 699 -124 q 607 -379 699 -271 l 588 -367 q 638 -231 638 -293 q 568 -111 638 -162 z "},"ņ":{"ha":651,"x_min":79,"x_max":797,"o":"m 129 -10 q 79 132 79 -10 q 106 370 79 210 q 136 561 132 531 q 207 588 182 588 q 225 564 225 588 q 192 390 225 553 q 158 133 158 226 q 161 85 158 99 l 165 85 q 231 340 182 218 q 454 592 322 575 q 571 517 529 579 q 549 423 565 492 q 523 300 532 354 q 514 196 514 246 q 534 76 514 121 q 589 32 554 32 q 685 126 638 32 q 769 431 733 219 l 797 426 q 696 85 756 182 q 564 -11 636 -11 q 467 41 506 -11 q 429 197 429 93 q 450 365 429 265 q 471 483 471 465 q 428 532 471 532 q 339 471 385 532 q 258 322 293 410 q 185 8 207 193 q 129 -10 150 -10 m 233 -111 q 288 -62 254 -79 q 364 -192 364 -124 q 272 -379 364 -271 l 253 -367 q 303 -231 303 -293 q 233 -111 303 -162 z "},"Ň":{"ha":1068,"x_min":38,"x_max":1418,"o":"m 38 131 l 58 139 q 176 57 90 57 q 419 281 317 57 q 558 1014 553 576 q 636 1061 608 1061 q 658 1036 653 1061 q 768 590 738 700 q 913 151 833 353 l 915 151 q 946 480 918 282 q 1015 818 974 678 q 1293 1149 1114 1149 q 1385 1114 1353 1149 q 1418 1025 1417 1079 l 1397 1015 q 1300 1082 1374 1082 q 1058 792 1151 1082 q 984 468 1015 657 q 953 128 953 279 q 957 26 953 75 q 879 -15 910 -15 q 858 1 865 -15 q 711 456 825 72 q 594 885 650 660 l 592 885 q 476 274 575 529 q 192 -18 364 -18 q 83 26 122 -18 q 38 131 44 71 m 893 1138 q 874 1149 881 1138 q 732 1321 808 1236 l 751 1342 q 900 1194 819 1283 q 1099 1340 1021 1290 l 1115 1318 q 911 1147 1026 1250 q 893 1138 901 1138 z "},"ň":{"ha":651,"x_min":79,"x_max":797,"o":"m 129 -10 q 79 132 79 -10 q 106 370 79 210 q 136 561 132 531 q 207 588 182 588 q 225 564 225 588 q 192 390 225 553 q 158 133 158 226 q 161 85 158 99 l 165 85 q 231 340 182 218 q 454 592 322 575 q 571 517 529 579 q 549 423 565 492 q 523 300 532 354 q 514 196 514 246 q 534 76 514 121 q 589 32 554 32 q 685 126 638 32 q 769 431 733 219 l 797 426 q 696 85 756 182 q 564 -11 636 -11 q 467 41 506 -11 q 429 197 429 93 q 450 365 429 265 q 471 483 471 465 q 428 532 471 532 q 339 471 385 532 q 258 322 293 410 q 185 8 207 193 q 129 -10 150 -10 m 394 714 q 379 728 385 714 q 272 932 324 850 l 296 949 q 406 782 360 863 q 579 950 503 885 l 599 931 q 413 726 496 822 q 394 714 403 714 z "},"ŉ":{"ha":651,"x_min":79,"x_max":797,"o":"m 129 -10 q 79 132 79 -10 q 106 370 79 210 q 136 561 132 531 q 207 588 182 588 q 225 564 225 588 q 192 390 225 553 q 158 133 158 226 q 161 85 158 99 l 165 85 q 231 340 182 218 q 454 592 322 575 q 571 517 529 579 q 549 423 565 492 q 523 300 532 354 q 514 196 514 246 q 534 76 514 121 q 589 32 554 32 q 685 126 638 32 q 769 431 733 219 l 797 426 q 696 85 756 182 q 564 -11 636 -11 q 467 41 506 -11 q 429 197 429 93 q 450 365 429 265 q 471 483 471 465 q 428 532 471 532 q 339 471 385 532 q 258 322 293 410 q 185 8 207 193 q 129 -10 150 -10 m 161 925 q 215 974 182 957 q 292 844 292 913 q 200 657 292 765 l 181 669 q 231 806 231 743 q 161 925 231 874 z "},"Ŋ":{"ha":1068,"x_min":38,"x_max":1411,"o":"m 38 131 l 58 139 q 176 57 90 57 q 419 281 317 57 q 558 1014 553 576 q 636 1061 608 1061 q 658 1036 653 1061 q 768 590 738 700 q 914 146 835 347 l 917 146 q 927 259 919 168 q 939 389 935 350 q 952 500 943 428 q 972 631 961 572 q 999 747 983 689 q 1113 1010 1042 907 q 1286 1114 1185 1114 q 1377 1079 1346 1114 q 1411 990 1408 1044 l 1390 982 q 1292 1051 1369 1051 q 1188 1011 1236 1051 q 1105 903 1139 971 q 1048 763 1071 835 q 1010 610 1025 690 q 964 213 983 469 q 917 -157 944 -43 q 832 -349 889 -272 q 685 -425 775 -425 q 569 -380 614 -425 q 525 -274 525 -335 q 597 -157 525 -201 l 610 -168 q 585 -242 585 -193 q 619 -337 585 -297 q 707 -376 653 -376 q 875 -154 822 -376 q 900 -10 893 -68 q 879 -15 886 -15 q 858 1 865 -15 q 711 456 825 72 q 594 885 632 724 l 592 885 q 476 274 575 529 q 192 -18 364 -18 q 83 26 122 -18 q 38 131 44 71 z "},"ŋ":{"ha":651,"x_min":79,"x_max":569,"o":"m 569 519 q 519 115 536 342 q 503 -61 511 1 q 474 -201 496 -124 q 419 -328 453 -278 q 254 -429 351 -429 q 139 -383 186 -429 q 92 -274 92 -336 q 172 -149 92 -190 l 183 -162 q 149 -242 149 -186 q 189 -338 150 -296 q 283 -381 228 -381 q 394 -301 356 -381 q 417 -223 410 -271 q 427 -131 425 -175 q 432 -3 429 -87 q 439 140 435 81 q 458 344 444 228 q 471 483 471 460 q 428 532 471 532 q 339 471 385 532 q 258 322 293 410 q 185 8 204 183 q 129 -10 150 -10 q 79 132 79 -10 q 106 370 79 210 q 136 561 132 531 q 207 588 182 588 q 225 564 225 588 q 192 390 225 553 q 158 140 158 226 q 161 85 158 99 l 165 85 q 231 340 182 218 q 454 592 322 575 q 569 519 525 579 z "},"Ō":{"ha":875,"x_min":89,"x_max":899,"o":"m 89 382 q 135 610 89 494 q 272 806 181 726 q 382 991 297 917 q 582 1065 467 1065 q 758 1002 685 1065 q 865 844 832 939 q 899 638 899 750 q 786 236 899 431 q 421 -18 638 -18 q 180 99 271 -18 q 89 382 89 217 m 460 33 q 732 265 629 33 q 803 607 803 426 q 790 742 803 675 q 749 874 776 810 q 672 977 722 938 q 554 1017 621 1017 q 392 940 457 1017 q 328 760 328 864 q 386 579 328 658 q 536 500 444 500 q 644 545 601 500 q 694 675 686 590 l 722 674 q 656 506 717 567 q 507 444 594 444 q 333 529 401 444 q 264 732 264 614 l 261 732 q 183 442 183 625 q 258 158 183 282 q 460 33 333 33 m 465 1147 q 461 1165 461 1153 q 464 1181 461 1175 l 768 1203 q 772 1183 772 1194 q 767 1164 772 1174 l 465 1147 z "},"ō":{"ha":583,"x_min":47,"x_max":729,"o":"m 47 233 q 89 406 47 326 q 201 524 131 485 l 214 506 q 156 408 178 476 q 133 269 133 340 q 176 101 133 169 q 288 33 219 33 q 378 74 340 33 q 436 175 417 115 q 290 263 349 193 q 232 425 232 333 q 271 547 232 500 q 367 594 310 594 q 478 533 432 594 q 525 360 525 472 q 501 213 525 286 q 701 431 668 218 l 729 426 q 642 229 711 289 q 485 169 572 169 q 392 40 454 93 q 251 -14 329 -14 q 106 53 165 -14 q 47 233 47 119 m 447 218 q 457 306 457 258 q 419 470 457 400 q 335 540 382 540 q 285 508 303 540 q 268 433 268 476 q 319 297 268 358 q 447 218 369 235 m 240 754 q 236 772 236 761 q 239 788 236 782 l 543 810 q 547 790 547 801 q 542 771 547 781 l 240 754 z "},"Ŏ":{"ha":875,"x_min":89,"x_max":899,"o":"m 89 382 q 135 610 89 494 q 272 806 181 726 q 382 991 297 917 q 582 1065 467 1065 q 758 1002 685 1065 q 865 844 832 939 q 899 638 899 750 q 786 236 899 431 q 421 -18 638 -18 q 180 99 271 -18 q 89 382 89 217 m 460 33 q 732 265 629 33 q 803 607 803 426 q 790 742 803 675 q 749 874 776 810 q 672 977 722 938 q 554 1017 621 1017 q 392 940 457 1017 q 328 760 328 864 q 386 579 328 658 q 536 500 444 500 q 644 545 601 500 q 694 675 686 590 l 722 674 q 656 506 717 567 q 507 444 594 444 q 333 529 401 444 q 264 732 264 614 l 261 732 q 183 442 183 625 q 258 158 183 282 q 460 33 333 33 m 601 1111 q 506 1149 549 1111 q 447 1250 463 1188 q 511 1286 469 1279 q 553 1190 522 1229 q 624 1151 585 1151 q 694 1187 664 1151 q 736 1285 724 1222 l 767 1278 q 706 1155 751 1199 q 601 1111 661 1111 z "},"ŏ":{"ha":583,"x_min":47,"x_max":729,"o":"m 47 233 q 89 406 47 326 q 201 524 131 485 l 214 506 q 156 408 178 476 q 133 269 133 340 q 176 101 133 169 q 288 33 219 33 q 378 74 340 33 q 436 175 417 115 q 290 263 349 193 q 232 425 232 333 q 271 547 232 500 q 367 594 310 594 q 478 533 432 594 q 525 360 525 472 q 501 213 525 286 q 701 431 668 218 l 729 426 q 642 229 711 289 q 485 169 572 169 q 392 40 454 93 q 251 -14 329 -14 q 106 53 165 -14 q 47 233 47 119 m 447 218 q 457 306 457 258 q 419 470 457 400 q 335 540 382 540 q 285 508 303 540 q 268 433 268 476 q 319 297 268 358 q 447 218 369 235 m 376 718 q 281 756 324 718 q 222 857 238 794 q 286 893 244 886 q 328 797 297 836 q 399 758 360 758 q 469 794 439 758 q 511 892 499 829 l 542 885 q 481 762 526 806 q 376 718 436 718 z "},"Ő":{"ha":875,"x_min":89,"x_max":899,"o":"m 89 382 q 135 610 89 494 q 272 806 181 726 q 382 991 297 917 q 582 1065 467 1065 q 758 1002 685 1065 q 865 844 832 939 q 899 638 899 750 q 786 236 899 431 q 421 -18 638 -18 q 180 99 271 -18 q 89 382 89 217 m 460 33 q 732 265 629 33 q 803 607 803 426 q 790 742 803 675 q 749 874 776 810 q 672 977 722 938 q 554 1017 621 1017 q 392 940 457 1017 q 328 760 328 864 q 386 579 328 658 q 536 500 444 500 q 644 545 601 500 q 694 675 686 590 l 722 674 q 656 506 717 567 q 507 444 594 444 q 333 529 401 444 q 264 732 264 614 l 261 732 q 183 442 183 625 q 258 158 183 282 q 460 33 333 33 m 497 1103 l 478 1126 q 676 1342 558 1206 q 710 1306 699 1328 q 497 1103 619 1213 m 671 1103 l 650 1126 q 857 1336 753 1222 q 892 1297 881 1321 q 671 1103 792 1206 z "},"ő":{"ha":583,"x_min":47,"x_max":729,"o":"m 47 233 q 89 406 47 326 q 201 524 131 485 l 214 506 q 156 408 178 476 q 133 269 133 340 q 176 101 133 169 q 288 33 219 33 q 378 74 340 33 q 436 175 417 115 q 290 263 349 193 q 232 425 232 333 q 271 547 232 500 q 367 594 310 594 q 478 533 432 594 q 525 360 525 472 q 501 213 525 286 q 701 431 668 218 l 729 426 q 642 229 711 289 q 485 169 572 169 q 392 40 454 93 q 251 -14 329 -14 q 106 53 165 -14 q 47 233 47 119 m 447 218 q 457 306 457 258 q 419 470 457 400 q 335 540 382 540 q 285 508 303 540 q 268 433 268 476 q 319 297 268 358 q 447 218 369 235 m 272 710 l 253 733 q 451 949 333 813 q 485 913 474 935 q 272 710 394 819 m 446 710 l 425 733 q 632 943 528 829 q 667 904 656 928 q 446 710 567 813 z "},"Œ":{"ha":1354,"x_min":89,"x_max":1338,"o":"m 89 382 q 135 610 89 494 q 272 806 181 726 q 382 991 297 917 q 582 1065 467 1065 q 792 947 729 1065 q 906 1033 838 1001 q 1044 1064 974 1064 q 1192 1019 1129 1064 q 1256 900 1256 974 q 1231 820 1256 856 q 1171 765 1207 785 l 1157 779 q 1192 861 1192 808 q 1142 973 1192 928 q 1015 1018 1092 1018 q 874 968 935 1018 q 814 839 814 918 q 876 697 814 761 q 1047 592 939 633 q 1044 565 1047 582 q 816 470 899 546 q 733 285 733 394 q 810 103 733 175 q 997 31 888 31 q 1214 126 1125 31 q 1294 322 1294 211 q 1286 382 1294 351 l 1307 389 q 1338 292 1338 350 q 1244 94 1338 183 q 963 -18 1128 -18 q 794 17 875 -18 q 671 119 714 53 q 421 -18 578 -18 q 180 99 271 -18 q 89 382 89 217 m 460 33 q 651 154 578 33 q 633 251 633 199 q 707 439 633 356 q 900 563 781 522 l 900 565 q 733 796 733 653 q 742 854 733 825 q 676 972 724 928 q 554 1017 628 1017 q 392 940 457 1017 q 328 760 328 864 q 386 579 328 658 q 536 500 444 500 q 682 592 635 500 l 703 579 q 624 480 676 515 q 507 444 571 444 q 333 529 401 444 q 264 732 264 614 l 261 732 q 183 442 183 625 q 258 158 183 282 q 460 33 333 33 z "},"œ":{"ha":844,"x_min":47,"x_max":990,"o":"m 47 233 q 89 406 47 326 q 201 524 131 485 l 214 506 q 156 408 178 476 q 133 269 133 340 q 178 101 133 169 q 294 33 224 33 q 414 119 369 33 q 458 306 458 204 q 420 470 458 400 q 335 540 382 540 q 287 509 304 540 q 269 435 269 478 q 358 265 269 336 l 349 247 q 265 317 296 268 q 233 432 233 365 q 269 549 233 503 q 358 594 304 594 q 453 552 410 594 q 513 432 497 510 l 515 432 q 608 542 549 493 q 731 590 667 590 q 803 563 776 590 q 829 490 829 536 q 754 350 829 414 q 539 250 665 275 q 588 93 542 154 q 701 32 635 32 q 856 134 782 32 q 963 431 931 236 l 990 426 q 866 99 956 213 q 672 -14 776 -14 q 549 31 603 -14 q 474 150 494 76 l 471 150 q 383 32 438 78 q 258 -14 329 -14 q 108 53 169 -14 q 47 233 47 119 m 540 283 q 633 311 586 290 q 720 375 681 332 q 760 471 760 418 q 700 543 760 543 q 590 460 640 543 q 540 283 544 383 z "},"Ŕ":{"ha":1031,"x_min":126,"x_max":1176,"o":"m 378 14 q 418 338 378 101 q 494 799 489 763 q 568 822 532 822 q 585 806 585 822 q 553 611 585 793 q 511 372 511 374 q 849 488 721 372 q 967 744 967 592 q 879 946 967 872 q 650 1019 792 1019 q 346 915 475 1019 q 204 633 204 803 q 238 482 204 551 q 340 392 272 413 l 333 371 q 185 441 243 375 q 126 610 126 507 q 181 797 126 708 q 321 950 235 886 q 676 1065 478 1065 q 865 1033 779 1065 q 1007 931 950 1001 q 1064 764 1064 861 q 946 500 1064 618 q 710 363 853 407 q 976 47 856 207 q 1149 431 1100 140 l 1176 426 q 1063 93 1139 204 q 900 -29 988 -18 q 608 343 757 168 q 506 333 567 333 q 478 6 481 133 q 400 -24 433 -24 q 378 14 378 -24 m 667 1146 l 656 1175 q 932 1294 779 1224 q 950 1246 950 1274 q 667 1146 817 1194 z "},"ŕ":{"ha":421,"x_min":79,"x_max":485,"o":"m 117 -10 q 88 13 97 -10 q 79 104 79 36 q 103 345 79 172 q 131 563 128 518 q 200 588 175 588 q 218 561 218 588 q 190 401 218 539 q 158 157 163 264 l 163 157 q 211 353 181 260 q 400 590 286 590 q 457 568 435 590 q 479 513 479 546 q 418 449 479 460 q 364 503 410 503 q 239 336 294 503 q 168 7 188 188 q 117 -10 138 -10 m 243 715 l 225 740 q 454 935 328 818 q 485 893 478 915 q 243 715 361 796 z "},"Ŗ":{"ha":1031,"x_min":126,"x_max":1176,"o":"m 378 14 q 418 338 378 101 q 494 799 489 763 q 568 822 532 822 q 585 806 585 822 q 553 611 585 793 q 511 372 511 374 q 849 488 721 372 q 967 744 967 592 q 879 946 967 872 q 650 1019 792 1019 q 346 915 475 1019 q 204 633 204 803 q 238 482 204 551 q 340 392 272 413 l 333 371 q 185 441 243 375 q 126 610 126 507 q 181 797 126 708 q 321 950 235 886 q 676 1065 478 1065 q 865 1033 779 1065 q 1007 931 950 1001 q 1064 764 1064 861 q 946 500 1064 618 q 710 363 853 407 q 976 47 856 207 q 1149 431 1100 140 l 1176 426 q 1063 93 1139 204 q 900 -29 988 -18 q 608 343 757 168 q 506 333 567 333 q 478 6 481 133 q 400 -24 433 -24 q 378 14 378 -24 m 604 -111 q 658 -62 625 -79 q 735 -192 735 -124 q 643 -379 735 -271 l 624 -367 q 674 -231 674 -293 q 604 -111 674 -162 z "},"ŗ":{"ha":421,"x_min":79,"x_max":486,"o":"m 124 -10 q 95 13 104 -10 q 86 104 86 36 q 110 345 86 172 q 138 563 135 518 q 207 588 181 588 q 225 561 225 588 q 197 401 225 539 q 165 157 169 264 l 169 157 q 218 353 188 260 q 407 590 293 590 q 464 568 442 590 q 486 513 486 546 q 425 449 486 460 q 371 503 417 503 q 246 336 301 503 q 175 7 194 188 q 124 -10 144 -10 m 79 -111 q 133 -62 100 -79 q 210 -192 210 -124 q 118 -379 210 -271 l 99 -367 q 149 -231 149 -293 q 79 -111 149 -162 z "},"Ř":{"ha":1031,"x_min":126,"x_max":1176,"o":"m 378 14 q 418 338 378 101 q 494 799 489 763 q 568 822 532 822 q 585 806 585 822 q 553 611 585 793 q 511 372 511 374 q 849 488 721 372 q 967 744 967 592 q 879 946 967 872 q 650 1019 792 1019 q 346 915 475 1019 q 204 633 204 803 q 238 482 204 551 q 340 392 272 413 l 333 371 q 185 441 243 375 q 126 610 126 507 q 181 797 126 708 q 321 950 235 886 q 676 1065 478 1065 q 865 1033 779 1065 q 1007 931 950 1001 q 1064 764 1064 861 q 946 500 1064 618 q 710 363 853 407 q 976 47 856 207 q 1149 431 1100 140 l 1176 426 q 1063 93 1139 204 q 900 -29 988 -18 q 608 343 757 168 q 506 333 567 333 q 478 6 481 133 q 400 -24 433 -24 q 378 14 378 -24 m 747 1138 q 728 1149 735 1138 q 586 1321 663 1236 l 606 1342 q 754 1194 674 1283 q 953 1340 875 1290 l 969 1318 q 765 1147 881 1250 q 747 1138 756 1138 z "},"ř":{"ha":421,"x_min":79,"x_max":506,"o":"m 117 -10 q 88 13 97 -10 q 79 104 79 36 q 103 345 79 172 q 131 563 128 518 q 200 588 175 588 q 218 561 218 588 q 190 401 218 539 q 158 157 163 264 l 163 157 q 211 353 181 260 q 400 590 286 590 q 457 568 435 590 q 479 513 479 546 q 418 449 479 460 q 364 503 410 503 q 239 336 294 503 q 168 7 188 188 q 117 -10 138 -10 m 301 714 q 286 728 292 714 q 179 932 231 850 l 203 949 q 313 782 267 863 q 486 950 410 885 l 506 931 q 319 726 403 822 q 301 714 308 714 z "},"Ś":{"ha":706,"x_min":56,"x_max":736,"o":"m 56 218 q 88 339 56 283 q 178 419 121 394 l 189 400 q 124 263 124 356 q 194 101 124 168 q 365 33 265 33 q 528 92 458 33 q 597 244 597 150 q 582 324 597 288 q 530 397 567 361 q 468 453 493 433 q 388 511 443 472 q 310 568 336 547 q 250 624 285 589 q 200 700 215 660 q 185 788 185 740 q 283 988 185 910 q 504 1065 382 1065 q 666 1019 596 1065 q 736 890 736 972 q 651 756 736 797 l 638 771 q 672 853 672 799 q 615 971 672 924 q 476 1018 558 1018 q 328 969 393 1018 q 264 836 264 919 q 313 706 264 761 q 460 583 363 651 q 539 526 514 546 q 601 467 564 506 q 655 386 639 429 q 671 292 671 343 q 568 71 671 160 q 332 -18 465 -18 q 138 47 221 -18 q 56 218 56 111 m 440 1146 l 429 1175 q 706 1294 553 1224 q 724 1246 724 1274 q 440 1146 590 1194 z "},"ś":{"ha":465,"x_min":94,"x_max":524,"o":"m 94 69 q 110 113 94 94 q 160 131 126 131 q 157 104 157 117 q 178 48 157 69 q 239 26 200 26 q 317 52 283 26 q 350 118 350 78 q 326 180 350 151 q 242 256 301 208 q 215 277 233 263 q 189 297 196 292 q 168 315 182 303 q 149 333 154 326 q 134 352 143 340 q 122 374 125 364 q 115 395 118 383 q 113 421 113 407 q 184 544 113 497 q 335 590 256 590 q 433 560 394 590 q 471 482 471 531 q 404 415 471 419 q 299 550 404 550 q 216 524 251 550 q 181 460 181 499 q 207 400 181 431 q 301 315 233 369 q 328 293 307 310 q 356 272 350 276 q 376 253 361 267 q 397 233 392 240 q 409 213 401 225 q 419 188 417 200 q 421 161 421 175 q 354 38 421 88 q 214 -12 288 -12 q 131 8 167 -12 q 94 69 94 29 m 282 715 l 264 740 q 493 935 367 818 q 524 893 517 915 q 282 715 400 796 z "},"Ŝ":{"ha":706,"x_min":56,"x_max":736,"o":"m 56 218 q 88 339 56 283 q 178 419 121 394 l 189 400 q 124 263 124 356 q 194 101 124 168 q 365 33 265 33 q 528 92 458 33 q 597 244 597 150 q 582 324 597 288 q 530 397 567 361 q 468 453 493 433 q 388 511 443 472 q 310 568 336 547 q 250 624 285 589 q 200 700 215 660 q 185 788 185 740 q 283 988 185 910 q 504 1065 382 1065 q 666 1019 596 1065 q 736 890 736 972 q 651 756 736 797 l 638 771 q 672 853 672 799 q 615 971 672 924 q 476 1018 558 1018 q 328 969 393 1018 q 264 836 264 919 q 313 706 264 761 q 460 583 363 651 q 539 526 514 546 q 601 467 564 506 q 655 386 639 429 q 671 292 671 343 q 568 71 671 160 q 332 -18 465 -18 q 138 47 221 -18 q 56 218 56 111 m 344 1114 l 328 1138 q 532 1308 431 1217 q 550 1317 543 1317 q 569 1307 561 1317 q 713 1135 635 1217 l 692 1113 q 543 1261 603 1193 q 344 1114 451 1188 z "},"ŝ":{"ha":465,"x_min":94,"x_max":503,"o":"m 94 69 q 110 113 94 94 q 160 131 126 131 q 157 104 157 117 q 178 48 157 69 q 239 26 200 26 q 317 52 283 26 q 350 118 350 78 q 326 180 350 151 q 242 256 301 208 q 215 277 233 263 q 189 297 196 292 q 168 315 182 303 q 149 333 154 326 q 134 352 143 340 q 122 374 125 364 q 115 395 118 383 q 113 421 113 407 q 184 544 113 497 q 335 590 256 590 q 433 560 394 590 q 471 482 471 531 q 404 415 471 419 q 299 550 404 550 q 216 524 251 550 q 181 460 181 499 q 207 400 181 431 q 301 315 233 369 q 328 293 307 310 q 356 272 350 276 q 376 253 361 267 q 397 233 392 240 q 409 213 401 225 q 419 188 417 200 q 421 161 421 175 q 354 38 421 88 q 214 -12 288 -12 q 131 8 167 -12 q 94 69 94 29 m 197 708 l 176 728 q 361 932 269 824 q 382 944 372 944 q 397 931 392 944 q 503 726 443 824 l 479 710 q 369 876 424 783 q 197 708 288 788 z "},"Ş":{"ha":706,"x_min":56,"x_max":736,"o":"m 56 218 q 88 339 56 283 q 178 419 121 394 l 189 400 q 124 263 124 356 q 194 101 124 168 q 365 33 265 33 q 528 92 458 33 q 597 244 597 150 q 582 324 597 288 q 530 397 567 361 q 468 453 493 433 q 388 511 443 472 q 310 568 336 547 q 250 624 285 589 q 200 700 215 660 q 185 788 185 740 q 283 988 185 910 q 504 1065 382 1065 q 666 1019 596 1065 q 736 890 736 972 q 651 756 736 797 l 638 771 q 672 853 672 799 q 615 971 672 924 q 476 1018 558 1018 q 328 969 393 1018 q 264 836 264 919 q 313 706 264 761 q 460 583 363 651 q 539 526 514 546 q 601 467 564 506 q 655 386 639 429 q 671 292 671 343 q 576 78 671 165 q 354 -17 482 -10 l 325 -79 q 425 -185 425 -118 q 297 -350 425 -257 l 281 -331 q 364 -214 364 -265 q 267 -126 364 -157 q 321 -18 294 -75 q 134 50 213 -14 q 56 218 56 114 z "},"ş":{"ha":465,"x_min":94,"x_max":471,"o":"m 150 -117 q 200 -12 189 -39 q 125 12 156 -8 q 94 69 94 32 q 110 113 94 94 q 160 131 126 131 q 157 104 157 117 q 178 48 157 69 q 239 26 200 26 q 317 52 283 26 q 350 118 350 78 q 326 180 350 151 q 242 256 301 208 q 215 277 233 263 q 189 297 196 292 q 168 315 182 303 q 149 333 154 326 q 134 352 143 340 q 122 374 125 364 q 115 395 118 383 q 113 421 113 407 q 184 544 113 497 q 335 590 256 590 q 433 560 394 590 q 471 482 471 531 q 404 415 471 419 q 299 550 404 550 q 216 524 251 550 q 181 460 181 499 q 207 400 181 431 q 301 315 233 369 q 328 293 307 310 q 356 272 350 276 q 376 253 361 267 q 397 233 392 240 q 409 213 401 225 q 419 188 417 200 q 421 161 421 175 q 363 45 421 93 q 235 -11 306 -3 l 208 -69 q 307 -175 307 -108 q 179 -340 307 -247 l 163 -321 q 246 -204 246 -257 q 150 -117 246 -147 z "},"Š":{"ha":706,"x_min":56,"x_max":743,"o":"m 56 218 q 88 339 56 283 q 178 419 121 394 l 189 400 q 124 263 124 356 q 194 101 124 168 q 365 33 265 33 q 528 92 458 33 q 597 244 597 150 q 582 324 597 288 q 530 397 567 361 q 468 453 493 433 q 388 511 443 472 q 310 568 336 547 q 250 624 285 589 q 200 700 215 660 q 185 788 185 740 q 283 988 185 910 q 504 1065 382 1065 q 666 1019 596 1065 q 736 890 736 972 q 651 756 736 797 l 638 771 q 672 853 672 799 q 615 971 672 924 q 476 1018 558 1018 q 328 969 393 1018 q 264 836 264 919 q 313 706 264 761 q 460 583 363 651 q 539 526 514 546 q 601 467 564 506 q 655 386 639 429 q 671 292 671 343 q 568 71 671 160 q 332 -18 465 -18 q 138 47 221 -18 q 56 218 56 111 m 521 1138 q 501 1149 508 1138 q 360 1321 436 1236 l 379 1342 q 528 1194 447 1283 q 726 1340 649 1290 l 743 1318 q 539 1147 654 1250 q 521 1138 529 1138 z "},"š":{"ha":465,"x_min":94,"x_max":544,"o":"m 94 69 q 110 113 94 94 q 160 131 126 131 q 157 104 157 117 q 178 48 157 69 q 239 26 200 26 q 317 52 283 26 q 350 118 350 78 q 326 180 350 151 q 242 256 301 208 q 215 277 233 263 q 189 297 196 292 q 168 315 182 303 q 149 333 154 326 q 134 352 143 340 q 122 374 125 364 q 115 395 118 383 q 113 421 113 407 q 184 544 113 497 q 335 590 256 590 q 433 560 394 590 q 471 482 471 531 q 404 415 471 419 q 299 550 404 550 q 216 524 251 550 q 181 460 181 499 q 207 400 181 431 q 301 315 233 369 q 328 293 307 310 q 356 272 350 276 q 376 253 361 267 q 397 233 392 240 q 409 213 401 225 q 419 188 417 200 q 421 161 421 175 q 354 38 421 88 q 214 -12 288 -12 q 131 8 167 -12 q 94 69 94 29 m 340 714 q 325 728 331 714 q 218 932 269 850 l 242 949 q 351 782 306 863 q 525 950 449 885 l 544 931 q 358 726 442 822 q 340 714 347 714 z "},"Ţ":{"ha":996,"x_min":143,"x_max":1200,"o":"m 806 -175 q 678 -340 806 -247 l 661 -321 q 744 -204 744 -257 q 649 -117 744 -147 l 700 -10 q 605 65 643 3 q 567 253 567 128 q 642 690 567 438 q 751 974 689 850 q 526 1003 606 1003 q 295 929 385 1003 q 206 733 206 856 q 250 592 206 649 q 374 535 294 536 l 375 513 q 333 508 354 508 q 199 567 256 508 q 143 714 143 626 q 272 959 143 850 q 589 1068 400 1068 q 843 1040 665 1068 q 1074 1013 1021 1013 q 1181 1057 1147 1013 l 1200 1044 q 1142 957 1179 982 q 1035 932 1104 932 q 814 961 960 932 q 724 688 754 814 q 663 254 663 440 q 690 85 663 140 q 760 31 718 31 q 842 84 800 31 q 917 257 883 138 l 946 249 q 732 -14 872 -11 l 707 -69 q 806 -175 806 -108 z "},"ţ":{"ha":376,"x_min":63,"x_max":522,"o":"m 147 -117 q 204 0 186 -39 q 99 242 99 50 q 133 547 99 342 l 67 543 q 63 567 63 549 q 65 586 63 578 l 140 589 q 159 709 146 625 q 176 825 172 793 q 250 850 218 850 q 268 832 268 850 q 225 594 268 824 l 410 607 q 414 585 414 599 q 407 560 414 571 l 218 551 q 186 251 186 364 q 214 85 186 140 q 286 31 242 31 q 400 126 342 31 q 494 431 458 222 l 522 426 q 477 233 504 315 q 424 105 450 150 q 366 32 397 60 q 311 -4 335 4 q 263 -12 288 -12 q 233 -10 253 -12 l 206 -69 q 304 -175 304 -108 q 176 -340 304 -247 l 160 -321 q 243 -204 243 -257 q 147 -117 243 -147 z "},"Ť":{"ha":996,"x_min":143,"x_max":1200,"o":"m 732 -14 q 617 47 667 -14 q 567 253 567 108 q 642 690 567 438 q 751 974 689 850 q 526 1003 606 1003 q 295 929 385 1003 q 206 733 206 856 q 250 592 206 649 q 374 535 294 536 l 375 513 q 333 508 354 508 q 199 567 256 508 q 143 714 143 626 q 272 959 143 850 q 589 1068 400 1068 q 843 1040 665 1068 q 1074 1013 1021 1013 q 1181 1057 1147 1013 l 1200 1044 q 1142 957 1179 982 q 1035 932 1104 932 q 814 961 960 932 q 724 688 754 814 q 663 254 663 440 q 690 85 663 140 q 760 31 718 31 q 842 84 800 31 q 917 257 883 138 l 946 249 q 732 -14 872 -14 m 850 1138 q 831 1149 838 1138 q 689 1321 765 1236 l 708 1342 q 857 1194 776 1283 q 1056 1340 978 1290 l 1072 1318 q 868 1147 983 1250 q 850 1138 858 1138 z "},"ť":{"ha":376,"x_min":63,"x_max":522,"o":"m 185 247 q 213 85 185 140 q 285 31 242 31 q 400 126 342 31 q 494 431 458 221 l 522 426 q 477 233 504 315 q 424 105 450 150 q 366 32 397 60 q 311 -4 335 4 q 263 -12 288 -12 q 147 47 197 -12 q 97 233 97 106 q 138 547 97 325 l 67 543 q 63 567 63 549 q 65 586 63 578 l 146 589 q 166 710 151 626 q 186 825 181 793 q 260 850 228 850 q 278 832 278 850 q 231 594 278 828 l 410 607 q 414 585 414 599 q 407 560 414 571 l 222 551 q 185 247 185 346 m 329 960 q 383 1008 350 992 q 460 879 460 947 q 368 692 460 800 l 349 704 q 399 840 399 778 q 329 960 399 908 z "},"Ŧ":{"ha":996,"x_min":143,"x_max":1200,"o":"m 732 -14 q 617 47 667 -14 q 567 253 567 108 q 592 482 567 346 l 468 475 q 463 501 463 485 q 464 515 463 511 l 600 524 q 751 974 653 772 q 526 1003 606 1003 q 295 929 385 1003 q 206 733 206 856 q 250 592 206 649 q 374 535 294 536 l 375 513 q 333 508 354 508 q 199 567 256 508 q 143 714 143 626 q 272 959 143 850 q 589 1068 400 1068 q 843 1040 665 1068 q 1074 1013 1021 1013 q 1181 1057 1147 1013 l 1200 1044 q 1142 957 1179 982 q 1035 932 1104 932 q 814 961 960 932 q 690 529 729 756 l 835 540 q 839 519 839 533 q 833 493 839 503 l 683 486 q 663 254 663 358 q 690 85 663 140 q 760 31 718 31 q 842 84 800 31 q 917 257 883 138 l 946 249 q 732 -14 872 -14 z "},"ŧ":{"ha":376,"x_min":35,"x_max":522,"o":"m 99 242 q 104 349 99 297 l 39 344 q 35 368 35 350 q 38 388 35 379 l 110 390 q 133 547 118 460 l 67 543 q 63 567 63 549 q 65 586 63 578 l 140 589 q 159 709 146 625 q 176 825 172 793 q 250 850 218 850 q 268 832 268 850 q 225 594 268 824 l 410 607 q 414 585 414 599 q 407 560 414 571 l 218 551 q 194 396 201 456 l 382 408 q 386 386 386 400 q 379 361 386 372 l 190 353 q 186 251 186 299 q 214 85 186 140 q 286 31 242 31 q 400 126 342 31 q 494 431 458 222 l 522 426 q 477 233 504 315 q 424 105 450 150 q 366 32 397 60 q 311 -4 335 4 q 263 -12 288 -12 q 147 47 196 -12 q 99 242 99 107 z "},"Ũ":{"ha":1207,"x_min":131,"x_max":1353,"o":"m 342 396 q 192 465 254 396 q 131 633 131 535 q 183 808 131 721 q 313 957 235 896 q 594 1064 442 1057 q 699 1000 654 1053 q 614 696 649 840 q 564 346 564 486 q 569 254 564 300 q 590 156 575 208 q 635 72 604 104 q 710 40 665 40 q 1001 515 868 40 q 1114 1013 1061 725 q 1199 1047 1169 1047 q 1217 1029 1217 1047 q 1193 914 1217 1025 q 1106 504 1124 608 q 1074 204 1074 310 q 1140 25 1074 25 q 1237 122 1188 25 q 1325 431 1286 219 l 1353 426 q 1246 76 1310 182 q 1110 -31 1182 -31 q 1013 41 1043 -31 q 982 207 982 113 q 997 375 982 275 l 994 376 q 675 -18 875 -18 q 575 15 618 -18 q 509 103 532 49 q 476 217 486 158 q 465 336 465 275 q 535 765 465 485 q 560 863 544 806 q 583 947 576 919 q 589 986 589 974 q 550 1017 589 1017 q 451 992 511 1017 q 339 922 392 967 q 240 797 275 868 q 204 647 204 725 q 247 499 204 563 q 367 419 289 436 l 365 397 q 342 396 357 396 m 774 1131 l 756 1136 q 790 1222 761 1185 q 864 1260 818 1260 q 951 1225 899 1260 q 1031 1193 999 1193 q 1104 1263 1083 1193 l 1124 1257 q 1090 1172 1118 1208 q 1014 1135 1061 1135 q 926 1168 982 1135 q 847 1200 878 1200 q 774 1131 797 1200 z "},"ũ":{"ha":628,"x_min":76,"x_max":774,"o":"m 76 164 q 98 317 76 207 q 119 490 119 428 q 110 557 119 535 q 174 588 150 588 q 208 510 208 588 q 185 347 208 468 q 161 169 161 226 q 181 72 161 108 q 235 36 200 36 q 389 260 317 36 q 458 563 435 399 q 525 588 499 588 q 544 561 544 588 q 524 428 544 540 q 493 188 493 275 q 512 75 493 118 q 565 32 531 32 q 746 431 672 32 l 774 426 q 724 212 751 300 q 667 76 697 124 q 606 9 636 29 q 540 -11 576 -11 q 451 37 486 -11 q 417 181 417 85 q 421 254 417 222 l 418 256 q 208 -12 338 -12 q 111 38 146 -12 q 76 164 76 89 m 224 738 l 206 743 q 240 829 211 792 q 314 867 268 867 q 401 832 349 867 q 481 800 449 800 q 554 869 533 800 l 574 864 q 540 778 568 815 q 464 742 511 742 q 376 775 432 742 q 297 807 328 807 q 224 738 247 807 z "},"Ū":{"ha":1207,"x_min":131,"x_max":1353,"o":"m 342 396 q 192 465 254 396 q 131 633 131 535 q 183 808 131 721 q 313 957 235 896 q 594 1064 442 1057 q 699 1000 654 1053 q 614 696 649 840 q 564 346 564 486 q 569 254 564 300 q 590 156 575 208 q 635 72 604 104 q 710 40 665 40 q 1001 515 868 40 q 1114 1013 1061 725 q 1199 1047 1169 1047 q 1217 1029 1217 1047 q 1193 914 1217 1025 q 1106 504 1124 608 q 1074 204 1074 310 q 1140 25 1074 25 q 1237 122 1188 25 q 1325 431 1286 219 l 1353 426 q 1246 76 1310 182 q 1110 -31 1182 -31 q 1013 41 1043 -31 q 982 207 982 113 q 997 375 982 275 l 994 376 q 675 -18 875 -18 q 575 15 618 -18 q 509 103 532 49 q 476 217 486 158 q 465 336 465 275 q 535 765 465 485 q 560 863 544 806 q 583 947 576 919 q 589 986 589 974 q 550 1017 589 1017 q 451 992 511 1017 q 339 922 392 967 q 240 797 275 868 q 204 647 204 725 q 247 499 204 563 q 367 419 289 436 l 365 397 q 342 396 357 396 m 783 1147 q 779 1165 779 1153 q 782 1181 779 1175 l 1086 1203 q 1090 1183 1090 1194 q 1085 1164 1090 1174 l 783 1147 z "}}}
